<svg xmlns="http://www.w3.org/2000/svg" viewBox="0 0 512 512" id="warriorhelmet">
  <path fill="#ff8066" d="M201.79 124c-24.87-40.64-20.35-85.21 3.35-104.47 13.06-10.61 34.6-15.67 52.81-9 25.2 9.18 36.14 38.15 54.82 55.65 35.22 33 83.88-3.4 89-43.72a93.59 93.59 0 0 1 13.86 69.76 93.59 93.59 0 0 1-39.8 59c-12.85 8.45-29.37 13.61-43.62 7.84-21.47-8.69-29.74-36.86-54.76-39-16.71-1.42-31.46 8.77-41.7 18.18-2.53.58-13.41 2.77-23.77-3.66A30.43 30.43 0 0 1 201.79 124Z" class="coloreb304a svgShape"></path>
  <path fill="#ffbf66" d="M243 10.52c25.2 9.18 36.14 38.15 54.82 55.65 12 11.19 25.44 14.39 38.26 12.17-8-1.44-15.92-5.29-23.26-12.17-18.73-17.5-29.67-46.47-54.82-55.65A52.94 52.94 0 0 0 232.84 8 48.85 48.85 0 0 1 243 10.52zm19.45 109.53c-16.69-1.42-31.43 8.74-41.66 18.14a34 34 0 0 0 15 0c8-7.32 18.67-15.12 30.89-17.55a32.47 32.47 0 0 0-4.23-.59zm139.32-97.6A62.91 62.91 0 0 1 396.3 41a93.57 93.57 0 0 1 4.33 51.19 93.59 93.59 0 0 1-39.8 59 63 63 0 0 1-22.83 9.58c12.8 2.62 26.71-2.23 37.87-9.56a93.59 93.59 0 0 0 39.8-59 93.59 93.59 0 0 0-13.9-69.76z" class="colore4222e svgShape"></path>
  <path fill="#5c5656" d="M235.8 165.49h-36v-24a18 18 0 0 1 36 0Z" class="color57565c svgShape"></path>
  <path fill="#3a3636" d="M217.8 123.49a17.89 17.89 0 0 0-7.5 1.65 18 18 0 0 1 10.5 16.35v24h15v-24a18 18 0 0 0-18-18Z" class="color3c3b41 svgShape"></path>
  <path fill="#817676" d="m339.98 438.09-35.67 19.31-13.24 7.16-66.27 35.87-7.5 4.06-7.5-4.06-64.65-34.99-13.06-7.07-37.47-20.28 17.08-94.16h211.2l17.08 94.16zM317.91 265.14v42.77H116.69v-42.77A104.47 104.47 0 0 1 184 167.72l23.64-9.07q1.06-.41 2.16-.72a26.76 26.76 0 0 1 15 0q1.09.31 2.16.72l23.64 9.07a104.47 104.47 0 0 1 67.31 97.42Z" class="color787681 svgShape"></path>
  <path fill="#5c5656" d="M279.44 184.39a104.37 104.37 0 0 1 23.47 65.75v42.77H116.69v15h201.22v-42.77a104.48 104.48 0 0 0-38.47-80.75Z" class="color57565c svgShape"></path>
  <path fill="#938a88" d="M224.8 157.93v108.35a7.5 7.5 0 0 1-15 0V157.93a26.76 26.76 0 0 1 15 0Z" class="color8b8893 svgShape"></path>
  <path fill="#5c5656" d="M322.9 343.93h-15l14.49 79.9A20 20 0 0 1 312.24 445l-22.93 12.4-13.24 7.16-66.27 35.87 7.5 4.06 7.5-4.06 66.27-35.87 13.24-7.16L340 438.09Z" class="color57565c svgShape"></path>
  <path fill="#3a3636" d="m328.58 341.81-111.28 41.5-111.28-41.5v-58.93l111.28-16.6 111.28 16.6v58.93z" class="color3c3b41 svgShape"></path>
  <path fill="#2d2a2a" d="M313.58 280.64v44.74a20 20 0 0 1-13 18.74l-94.18 35.12 10.91 4.07 111.28-41.5v-58.93Z" class="color2c2a2d svgShape"></path>
  <path d="M303 331.76a7.5 7.5 0 0 0 7.5-7.5V312a7.5 7.5 0 0 0-15 0v12.27a7.5 7.5 0 0 0 7.5 7.49Zm-141.12-37.95a7.5 7.5 0 0 0-7.5 7.5v30.42a7.5 7.5 0 0 0 15 0v-30.42a7.5 7.5 0 0 0-7.5-7.5Zm49 2.17v44.29a7.5 7.5 0 0 0 15 0V296a7.5 7.5 0 0 0-15 0Zm64 43.25a7.5 7.5 0 0 0 7.5-7.5v-30.42a7.5 7.5 0 0 0-15 0v30.42a7.5 7.5 0 0 0 7.42 7.5ZM408 18.27a7.5 7.5 0 0 0-13.69 3.2c-2.63 20.67-18.43 40.69-37.57 47.58-9.85 3.55-24.6 5-38.87-8.39-6.21-5.82-11.57-13.11-17.25-20.84-10.74-14.61-21.85-29.73-40.11-36.38-19.3-7.06-44-2.86-60.12 10.22-13.5 11-21.54 28.6-22.65 49.65-1.12 21.22 5.14 44.15 17.63 64.56.14.22.3.42.45.63a25.46 25.46 0 0 0-3.54 12.95v15l-11 4.21a112 112 0 0 0-72.14 104.43v9.68l-4.28.64a7.5 7.5 0 0 0-6.39 7.42v58.93a7.47 7.47 0 0 0 4.68 6.93l-16 88a7.49 7.49 0 0 0 3.85 7.96L213.62 511a9 9 0 0 0 .94.44h.05a6.77 6.77 0 0 0 .8.25h.1a7.17 7.17 0 0 0 .83.15 9.07 9.07 0 0 0 .91.06 8.87 8.87 0 0 0 .9-.06h.05a7.58 7.58 0 0 0 .83-.15h.1a7.41 7.41 0 0 0 .8-.25h.05A7.9 7.9 0 0 0 221 511l122.59-66.35a7.51 7.51 0 0 0 3.81-7.93l-16-88a7.49 7.49 0 0 0 4.68-6.93v-58.94a7.5 7.5 0 0 0-6.4-7.42l-4.27-.64v-9.7a112 112 0 0 0-72.13-104.4l-10-3.84v-15.33c11.84-10.2 23.11-14.92 33.51-14 11.27 1 18.54 8.87 27 18 7.26 7.89 14.75 16 25.62 20.45a42.24 42.24 0 0 0 15.86 3c11.12 0 23.16-3.92 34.73-11.53a100 100 0 0 0 28-139.17ZM124.18 265.12a97.53 97.53 0 0 1 62.49-90.43l23.12-8.87v94l-85.61 12.78Zm83.11-114.3v-9.37a10.49 10.49 0 0 1 4.7-8.74 10.36 10.36 0 0 1 5.8-1.76 10.49 10.49 0 0 1 10.31 8.55 9.84 9.84 0 0 1 .19 1.95v9.69a34.39 34.39 0 0 0-21-.32ZM103 434.05l14.5-80 48 17.89-30.65 79.33Zm106.83 57.82-61.73-33.39 31.42-81.28 30.27 11.29Zm15 0V388.49l32.16-12 31.32 81ZM331.62 434l-30.05 16.27L271 371.25l46.1-17.19Zm-10.55-97.47-62.4 23.27H258.52l-41.23 15.37-103.78-38.7v-47.16l103.78-15.48 103.78 15.48ZM247.92 174.7a97.53 97.53 0 0 1 62.48 90.41v7.45l-85.61-12.78v-94Zm160.35-84a85.52 85.52 0 0 1-36.57 54.25c-6.23 4.09-22.28 13-36.69 7.15-7.74-3.13-13.79-9.72-20.2-16.69-9.21-10-19.65-21.37-36.74-22.83-13-1.11-26.38 3.52-39.8 13.74a25.42 25.42 0 0 0-30.87-8.1l-.4-.22c-22.45-38.37-16.34-77 2.91-92.68 10.3-8.38 29.24-13.74 45.51-7.78 14 5.1 23.32 17.77 33.18 31.18 5.83 7.93 11.86 16.13 19.08 22.9 15.45 14.48 34.7 18.58 54.21 11.55 18.42-6.63 34-22.16 42-40.64a85.43 85.43 0 0 1 4.38 48.13Zm-161.7 255.47a7.5 7.5 0 0 0 7.5-7.5V296a7.5 7.5 0 0 0-15 0v42.69a7.5 7.5 0 0 0 7.5 7.48Zm-112.92-41.68a7.5 7.5 0 0 0-7.5 7.5v12.27a7.5 7.5 0 0 0 15 0V312a7.5 7.5 0 0 0-7.5-7.51Zm56.46-16a7.5 7.5 0 0 0-7.5 7.5v42.69a7.5 7.5 0 0 0 15 0V296a7.5 7.5 0 0 0-7.5-7.52Z" fill="#000000" class="color000000 svgShape"></path>
</svg>
