<svg xmlns="http://www.w3.org/2000/svg" enable-background="new 0 0 512 512" viewBox="0 0 512 512" id="Cards">
  <path fill="#954e3f" d="M283.715,253.908l-139.452,69.922c-4.937,2.475-10.946,0.48-13.421-4.457L25.063,108.406
	c-2.475-4.937-0.48-10.946,4.457-13.421l139.452-69.922c4.937-2.475,10.946-0.48,13.421,4.457l105.779,210.966
	C290.648,245.424,288.652,251.433,283.715,253.908z" class="color3f6695 svgShape"></path>
  <polygon fill="#f2ce9d" points="120.861 192.375 130.509 124.892 192.375 156.518 181.718 224.506" class="colora6f29d svgShape"></polygon>
  <polygon fill="#f2ce9d" points="63.549 131.618 66.691 103.195 92.155 117.275 88.609 145.901" class="colora6f29d svgShape"></polygon>
  <path fill="#cb6955" d="M318,368H162c-5.523,0-10-4.477-10-10V122c0-5.523,4.477-10,10-10h156c5.523,0,10,4.477,10,10v236
	C328,363.523,323.523,368,318,368z" class="color558acb svgShape"></path>
  <path fill="#ff8066" d="M273.137 214.756L273.137 214.756c-9.15-9.008-23.986-9.008-33.137-.001-9.151-9.008-23.987-9.008-33.137.001l0 0c-9.151 9.008-9.151 23.613-.001 32.621l-.001.001L239.999 280l.001-.001.001.001 33.137-32.622 0-.001C282.288 238.369 282.287 223.764 273.137 214.756zM226.71 139.051L226.71 139.051c-4.412-4.14-11.305-4.057-15.616.188l-7.961 7.88-7.961-7.88c-4.311-4.245-11.204-4.328-15.616-.188l0 0c-4.618 4.333-4.758 11.621-.31 16.129l23.887 23.777 23.887-23.777C231.468 150.672 231.328 143.385 226.71 139.051z" class="color994b53 svgShape"></path>
  <path fill="#ffc16b" d="M336.135,484.938l-127.447-89.963c-4.512-3.185-5.588-9.425-2.403-13.936l136.097-192.804
	c3.185-4.512,9.425-5.588,13.937-2.403l127.447,89.963c4.512,3.185,5.588,9.424,2.403,13.936L350.072,482.535
	C346.887,487.047,340.647,488.122,336.135,484.938z" class="color6badff svgShape"></path>
  <path fill="#ffbf66" d="M360.31 267.379c5.458 3.853 13.005 2.551 16.858-2.906 3.853-5.458 2.551-13.005-2.906-16.858-.192-.135-.386-.263-.583-.385 1.099-.776 2.088-1.747 2.908-2.909 3.853-5.458 2.551-13.005-2.906-16.858-5.458-3.853-13.005-2.551-16.858 2.906-.82 1.162-1.404 2.419-1.767 3.714-.181-.144-.367-.285-.558-.42-5.458-3.853-13.005-2.551-16.858 2.906s-2.551 13.005 2.906 16.858L360.31 267.379zM328.97 450.503c5.458 3.853 13.005 2.551 16.858-2.906 3.853-5.458 2.551-13.005-2.906-16.858-.192-.135-.386-.263-.583-.385 1.099-.776 2.088-1.747 2.908-2.909 3.853-5.458 2.551-13.005-2.906-16.858-5.458-3.853-13.005-2.551-16.858 2.906-.82 1.162-1.404 2.419-1.767 3.714-.181-.144-.367-.285-.558-.42-5.458-3.853-13.005-2.551-16.858 2.906-3.853 5.458-2.551 13.005 2.906 16.858L328.97 450.503zM374.946 332.155c-.342-.241-.69-.469-1.041-.688 1.963-1.385 3.729-3.12 5.193-5.194 6.879-9.746 4.556-23.223-5.19-30.103-9.746-6.88-23.223-4.556-30.103 5.19-1.465 2.075-2.508 4.32-3.156 6.633-.324-.257-.654-.509-.997-.75-9.746-6.879-23.223-4.556-30.103 5.19-6.879 9.746-4.556 23.223 5.19 30.103l11.11 7.843 0 0-18.454 26.144c-2.548 3.609-1.687 8.602 1.923 11.149 1.401.989 3.012 1.465 4.606 1.465 2.512 0 4.984-1.18 6.543-3.388l18.454-26.143 11.111 7.843c9.746 6.88 23.223 4.556 30.103-5.19C387.016 352.512 384.692 339.034 374.946 332.155zM24 352L24 352c17.673 0 32 14.327 32 32v0 0c0-17.673 14.327-32 32-32h0 0c-17.673 0-32-14.327-32-32v0 0C56 337.673 41.673 352 24 352L24 352zM24 456L24 456c17.673 0 32 14.327 32 32v0 0c0-17.673 14.327-32 32-32h0 0c-17.673 0-32-14.327-32-32v0 0C56 441.673 41.673 456 24 456L24 456zM432 160L432 160c17.673 0 32 14.327 32 32v0 0c0-17.673 14.327-32 32-32h0 0c-17.673 0-32-14.327-32-32v0 0C464 145.673 449.673 160 432 160L432 160zM423.945 462.713L423.945 462.713c17.673 0 32 14.327 32 32v0 0c0-17.673 14.327-32 32-32h0 0c-17.673 0-32-14.327-32-32v0 0C455.945 448.386 441.618 462.713 423.945 462.713L423.945 462.713zM424 56L424 56c17.673 0 32 14.327 32 32v0 0c0-17.673 14.327-32 32-32h0 0c-17.673 0-32-14.327-32-32v0 0C456 41.673 441.673 56 424 56L424 56z" class="colorf3c87c svgShape"></path>
  <circle cx="168" cy="472" r="16" fill="#ffc16b" class="color6badff svgShape"></circle>
  <circle cx="256" cy="40" r="16" fill="#ffc16b" class="color6badff svgShape"></circle>
  <circle cx="40" cy="256" r="16" fill="#ffc16b" class="color6badff svgShape"></circle>
  <circle cx="376" cy="104" r="24" fill="#ffc16b" class="color6badff svgShape"></circle>
  <path d="M96.026 110.274L70.562 96.193c-2.34-1.294-5.175-1.334-7.55-.104s-3.979 3.566-4.272 6.226l-3.143 28.424c-.352 3.172 1.217 6.249 3.99 7.829l25.061 14.282c1.226.699 2.592 1.05 3.961 1.05 1.227 0 2.456-.282 3.586-.849 2.391-1.199 4.024-3.514 4.354-6.168l3.546-28.625C100.496 115.017 98.886 111.855 96.026 110.274zM82.146 133.009l-10.067-5.737 1.246-11.268 10.227 5.655L82.146 133.009zM240 204.665c-12.1-7.407-28.25-5.944-38.749 4.39-5.966 5.873-9.251 13.691-9.251 22.013 0 8.322 3.285 16.139 9.25 22.012l33.139 32.622c1.557 1.532 3.585 2.299 5.612 2.299s4.056-.767 5.612-2.299l33.137-32.622c5.965-5.873 9.25-13.689 9.25-22.012 0-8.321-3.285-16.14-9.251-22.013C268.25 198.721 252.099 197.258 240 204.665zM267.525 241.677l-23.602 23.234-5.199 2.609-26.25-25.843c-2.886-2.841-4.475-6.608-4.475-10.609s1.59-7.77 4.476-10.61c3.021-2.974 6.988-4.46 10.956-4.46s7.936 1.486 10.956 4.46c3.113 3.064 8.111 3.064 11.225 0 6.041-5.947 15.871-5.947 21.912 0 2.886 2.842 4.476 6.61 4.476 10.61C272 235.068 270.411 238.836 267.525 241.677zM203.134 186.957c2.042 0 4.083-.776 5.644-2.33l23.938-23.829c3.679-3.729 5.648-8.666 5.548-13.903-.102-5.236-2.261-10.094-6.08-13.677-7.571-7.107-19.302-6.966-26.717.336l-2.333 2.31-2.348-2.324c-7.399-7.286-19.128-7.43-26.704-.321-3.819 3.585-5.978 8.442-6.078 13.679-.101 5.237 1.87 10.174 5.6 13.953l23.887 23.777C199.051 186.181 201.092 186.957 203.134 186.957zM184.001 147.204c.01-.515.156-1.499 1.03-2.319.634-.595 1.439-.89 2.241-.89.824 0 1.645.312 2.272.93l7.961 7.88c3.117 3.086 8.139 3.086 11.256 0l7.946-7.865c1.254-1.235 3.243-1.261 4.526-.055.001 0 .001.001.002.001.873.819 1.02 1.804 1.03 2.318.01.514-.1 1.504-.89 2.306l-18.243 18.159-18.192-18.108C184.1 148.708 183.991 147.718 184.001 147.204z" fill="#000000" class="color000000 svgShape"></path>
  <path d="M488.379,269.258l-127.447-89.963c-3.928-2.772-8.7-3.853-13.438-3.032c-4.657,0.802-8.724,3.348-11.494,7.162V122
		c0-9.925-8.075-18-18-18h-89.312l-39.143-78.059c-4.436-8.872-15.271-12.477-24.161-8.033L25.931,87.831
		c-8.861,4.447-12.462,15.284-8.022,24.165L123.69,322.96c3.157,6.288,9.524,9.926,16.124,9.926c1.394,0,2.799-0.166,4.186-0.5V358
		c0,9.925,8.075,18,18,18h38.05l-0.301,0.426c-5.724,8.109-3.782,19.362,4.326,25.085l127.446,89.963c0,0,0,0,0.001,0
		c3.147,2.222,6.767,3.288,10.354,3.288c5.655,0,11.229-2.653,14.73-7.614l136.098-192.805
		C498.429,286.233,496.487,274.98,488.379,269.258z M144,195.54l-14.423-7.614l7.266-50.812l7.157,3.66V195.54z M144,122v0.803
		l-9.848-5.036c-2.3-1.176-5.028-1.168-7.322,0.02c-2.295,1.189-3.874,3.413-4.24,5.971l-9.649,67.48
		c-0.478,3.346,1.197,6.63,4.185,8.207L144,213.632v101.38l-3.323,1.666c-0.987,0.492-2.192,0.09-2.686-0.894L32.215,104.833
		c-0.496-0.994-0.096-2.206,0.891-2.701l139.441-69.917c0.993-0.495,2.196-0.099,2.691,0.891L210.789,104H162
		C152.075,104,144,112.075,144,122z M162,360c-1.103,0-2-0.897-2-2V122c0-1.103,0.897-2,2-2h156c1.103,0,2,0.897,2,2v84.071
		L211.344,360H162z M479.633,285.117L343.535,477.922c-0.636,0.901-1.888,1.115-2.787,0.479l-127.447-89.963
		c-0.9-0.636-1.115-1.887-0.479-2.787l9.302-13.178c0,0,0,0,0,0l126.795-179.626c0.636-0.9,1.885-1.117,2.787-0.479l127.447,89.963
		C480.054,282.966,480.269,284.217,479.633,285.117z" fill="#000000" class="color000000 svgShape"></path>
  <path d="M391.659 344.772c-.878-5.09-3.016-9.758-6.192-13.652.056-.078.111-.156.167-.234 9.411-13.333 6.222-31.838-7.112-41.251-6.458-4.56-14.303-6.33-22.1-4.988-7.791 1.344-14.593 5.641-19.153 12.101-.057.081-.113.162-.17.243-12.186-4.322-26.27-.242-34.085 10.829-9.411 13.334-6.221 31.839 7.113 41.252l11.11 7.843-13.841 19.608c-2.548 3.609-1.687 8.602 1.923 11.149 1.401.989 3.012 1.465 4.606 1.465 2.512 0 4.984-1.18 6.543-3.388l13.84-19.607 11.111 7.843c5.051 3.564 10.949 5.425 17.007 5.425 1.689 0 3.393-.146 5.092-.438 7.792-1.343 14.594-5.641 19.153-12.1S393.002 352.563 391.659 344.772zM373.6 357.645c-2.095 2.968-5.22 4.942-8.799 5.56-3.583.618-7.187-.197-10.154-2.292l-35.293-24.913c-6.126-4.324-7.592-12.827-3.268-18.953 2.095-2.968 5.22-4.942 8.8-5.56 3.582-.619 7.187.196 10.155 2.292.216.152.424.313.629.477 2.098 1.668 4.893 2.175 7.443 1.35 2.55-.826 4.518-2.874 5.24-5.455.418-1.495 1.087-2.9 1.987-4.176 2.095-2.968 5.22-4.942 8.8-5.56 3.582-.617 7.187.196 10.153 2.291 6.127 4.325 7.593 12.828 3.267 18.956-.898 1.273-1.997 2.373-3.267 3.269-2.188 1.544-3.459 4.079-3.386 6.755.073 2.677 1.48 5.139 3.749 6.561.226.143.451.287.676.446 2.968 2.095 4.941 5.22 5.559 8.799C376.509 351.07 375.695 354.677 373.6 357.645zM335.933 259.964l19.765 13.951c3.514 2.479 7.556 3.671 11.561 3.671 6.313 0 12.535-2.961 16.446-8.5 3.095-4.386 4.298-9.714 3.386-15.004-.445-2.583-1.369-5.006-2.709-7.171 2.149-3.951 2.903-8.479 2.128-12.98-.912-5.29-3.829-9.907-8.215-13.004-8.397-5.927-19.816-4.494-26.529 2.976-7.636-1.638-15.878 1.279-20.66 8.054-3.096 4.386-4.299 9.714-3.387 15.004S331.547 256.867 335.933 259.964zM344.176 241.184c1.303-1.845 3.862-2.286 5.709-.983.065.046.128.095.189.144 2.1 1.671 4.893 2.177 7.445 1.352 2.551-.826 4.519-2.875 5.24-5.457.126-.448.328-.872.598-1.255 1.304-1.847 3.865-2.285 5.709-.985.895.631 1.489 1.572 1.675 2.651.186 1.078-.059 2.164-.69 3.058-.271.385-.603.717-.985.986-2.187 1.544-3.457 4.079-3.384 6.755s1.479 5.138 3.748 6.56c.076.048.152.096.219.143.894.631 1.488 1.571 1.674 2.65.187 1.078-.059 2.164-.689 3.058-1.303 1.847-3.864 2.289-5.709.984l-19.764-13.95c-.895-.631-1.489-1.573-1.675-2.651S343.544 242.077 344.176 241.184zM353.039 430.034c4.781-8.82 2.309-20.057-6.086-25.983-8.396-5.925-19.808-4.492-26.521 2.966-2.489-.539-5.084-.596-7.666-.151-5.29.913-9.908 3.83-13.003 8.215-3.096 4.386-4.299 9.714-3.387 15.004s3.829 9.907 8.215 13.004l19.765 13.951c3.429 2.42 7.434 3.683 11.546 3.683 1.147 0 2.304-.099 3.458-.297 5.289-.913 9.907-3.83 13.002-8.215 3.096-4.386 4.299-9.714 3.387-15.004C355.304 434.622 354.38 432.198 353.039 430.034zM339.291 442.982c-1.302 1.845-3.862 2.289-5.708.984l-19.764-13.95c-.895-.631-1.489-1.573-1.675-2.651s.059-2.164.69-3.058c.631-.894 1.572-1.488 2.65-1.675 1.075-.184 2.164.059 3.059.691.065.046.128.095.189.144 2.1 1.671 4.894 2.178 7.445 1.352 2.551-.826 4.519-2.875 5.24-5.457.126-.448.328-.872.598-1.255 1.305-1.847 3.865-2.285 5.709-.985 1.846 1.303 2.287 3.864.984 5.709-.271.385-.603.717-.982.984-2.192 1.546-3.464 4.088-3.387 6.77.078 2.682 1.494 5.146 3.772 6.562.067.042.136.086.194.127.894.631 1.488 1.571 1.674 2.65C340.168 441.002 339.923 442.088 339.291 442.982zM88 344c-13.233 0-24-10.767-24-24 0-4.418-3.582-8-8-8s-8 3.582-8 8c0 13.233-10.767 24-24 24-4.418 0-8 3.582-8 8s3.582 8 8 8c13.233 0 24 10.767 24 24 0 4.418 3.582 8 8 8s8-3.582 8-8c0-13.233 10.767-24 24-24 4.418 0 8-3.582 8-8S92.418 344 88 344zM56 360.025c-2.282-3.039-4.986-5.743-8.025-8.025 3.039-2.282 5.743-4.986 8.025-8.025 2.282 3.039 4.986 5.743 8.025 8.025C60.986 354.282 58.282 356.986 56 360.025zM88 448c-13.233 0-24-10.767-24-24 0-4.418-3.582-8-8-8s-8 3.582-8 8c0 13.233-10.767 24-24 24-4.418 0-8 3.582-8 8s3.582 8 8 8c13.233 0 24 10.767 24 24 0 4.418 3.582 8 8 8s8-3.582 8-8c0-13.233 10.767-24 24-24 4.418 0 8-3.582 8-8S92.418 448 88 448zM56 464.025c-2.282-3.039-4.986-5.743-8.025-8.025 3.039-2.282 5.743-4.986 8.025-8.025 2.282 3.039 4.986 5.743 8.025 8.025C60.986 458.282 58.282 460.986 56 464.025zM496 152c-13.233 0-24-10.767-24-24 0-4.418-3.582-8-8-8s-8 3.582-8 8c0 13.233-10.767 24-24 24-4.418 0-8 3.582-8 8s3.582 8 8 8c13.233 0 24 10.767 24 24 0 4.418 3.582 8 8 8s8-3.582 8-8c0-13.233 10.767-24 24-24 4.418 0 8-3.582 8-8S500.418 152 496 152zM464 168.025c-2.282-3.039-4.986-5.743-8.025-8.025 3.039-2.282 5.743-4.986 8.025-8.025 2.282 3.039 4.986 5.743 8.025 8.025C468.986 162.282 466.282 164.986 464 168.025zM487.944 454.713c-13.233 0-24-10.767-24-24 0-4.418-3.582-8-8-8s-8 3.582-8 8c0 13.233-10.767 24-24 24-4.418 0-8 3.582-8 8s3.582 8 8 8c13.233 0 24 10.767 24 24 0 4.418 3.582 8 8 8s8-3.582 8-8c0-13.233 10.767-24 24-24 4.418 0 8-3.582 8-8S492.362 454.713 487.944 454.713zM455.944 470.738c-2.282-3.039-4.986-5.743-8.025-8.025 3.039-2.282 5.743-4.986 8.025-8.025 2.282 3.039 4.986 5.743 8.025 8.025C460.931 464.995 458.227 467.699 455.944 470.738zM424 64c13.233 0 24 10.767 24 24 0 4.418 3.582 8 8 8s8-3.582 8-8c0-13.233 10.767-24 24-24 4.418 0 8-3.582 8-8s-3.582-8-8-8c-13.233 0-24-10.767-24-24 0-4.418-3.582-8-8-8s-8 3.582-8 8c0 13.233-10.767 24-24 24-4.418 0-8 3.582-8 8S419.582 64 424 64zM456 47.975c2.282 3.039 4.986 5.743 8.025 8.025-3.039 2.282-5.743 4.986-8.025 8.025-2.282-3.039-4.986-5.743-8.025-8.025C451.014 53.718 453.718 51.014 456 47.975zM168 448c-13.233 0-24 10.767-24 24s10.767 24 24 24 24-10.767 24-24S181.233 448 168 448zM168 480c-4.411 0-8-3.589-8-8s3.589-8 8-8 8 3.589 8 8S172.411 480 168 480zM256 64c13.233 0 24-10.767 24-24s-10.767-24-24-24-24 10.767-24 24S242.767 64 256 64zM256 32c4.411 0 8 3.589 8 8s-3.589 8-8 8-8-3.589-8-8S251.589 32 256 32zM40 280c13.233 0 24-10.767 24-24s-10.767-24-24-24-24 10.767-24 24S26.767 280 40 280zM40 248c4.411 0 8 3.589 8 8s-3.589 8-8 8-8-3.589-8-8S35.589 248 40 248zM376 136c17.645 0 32-14.355 32-32s-14.355-32-32-32-32 14.355-32 32S358.355 136 376 136zM376 88c8.822 0 16 7.178 16 16s-7.178 16-16 16-16-7.178-16-16S367.178 88 376 88z" fill="#000000" class="color000000 svgShape"></path>
</svg>
