<svg xmlns="http://www.w3.org/2000/svg" xml:space="preserve" id="list" x="0" y="0" enable-background="new 0 0 512 512" version="1.1" viewBox="0 0 512 512">
  <path fill="#eab46a" fill-rule="evenodd" d="M45.713,31h82.569c6.865,0,12.481,5.616,12.481,12.481v82.569c0,6.865-5.616,12.481-12.481,12.481H45.713
				c-6.865,0-12.481-5.616-12.481-12.481V43.481C33.232,36.616,38.848,31,45.713,31z" clip-rule="evenodd" class="colorb9ea6a svgShape"></path>
  <path fill="#e4972c" fill-rule="evenodd" d="M130.553,31.209c5.79,1.076,10.21,6.182,10.21,12.272v82.569c0,6.865-5.616,12.481-12.481,12.481H45.713
				c-6.089,0-11.196-4.419-12.272-10.21c0.737,0.137,1.496,0.209,2.271,0.209h82.569c6.865,0,12.481-5.616,12.481-12.481V33.48
				C130.763,32.705,130.69,31.946,130.553,31.209z" clip-rule="evenodd" class="colora1e42c svgShape"></path>
  <path fill="#ffbf66" fill-rule="evenodd" d="M45.713,202.234h82.569c6.865,0,12.481,5.616,12.481,12.481v82.569c0,6.865-5.616,12.481-12.481,12.481
				H45.713c-6.865,0-12.481-5.617-12.481-12.481v-82.569C33.232,207.851,38.848,202.234,45.713,202.234z" clip-rule="evenodd" class="colorfcdd2e svgShape"></path>
  <path fill="#fb9507" fill-rule="evenodd" d="M130.553,202.444c5.79,1.076,10.21,6.182,10.21,12.272v82.569c0,6.865-5.616,12.481-12.481,12.481H45.713
				c-6.089,0-11.196-4.419-12.272-10.21c0.737,0.137,1.496,0.209,2.271,0.209h82.569c6.865,0,12.481-5.616,12.481-12.481v-82.569
				C130.763,203.94,130.69,203.181,130.553,202.444z" clip-rule="evenodd" class="colorfbd307 svgShape"></path>
  <g fill="#3a3636" class="color000000 svgShape">
    <path fill="#ff8066" fill-rule="evenodd" d="M45.713,373.469h82.569c6.865,0,12.481,5.616,12.481,12.481v82.569c0,6.865-5.616,12.481-12.481,12.481
				H45.713c-6.865,0-12.481-5.616-12.481-12.481V385.95C33.232,379.085,38.848,373.469,45.713,373.469z" clip-rule="evenodd" class="colorfc5692 svgShape"></path>
    <path fill="#fb5735" fill-rule="evenodd" d="M130.553,373.678c5.79,1.076,10.21,6.182,10.21,12.272v82.569c0,6.865-5.616,12.481-12.481,12.481H45.713
				c-6.089,0-11.196-4.419-12.272-10.21c0.737,0.137,1.496,0.209,2.271,0.209h82.569c6.865,0,12.481-5.616,12.481-12.481v-82.569
				C130.763,375.174,130.69,374.415,130.553,373.678z" clip-rule="evenodd" class="colorfb3580 svgShape"></path>
  </g>
  <path fill-rule="evenodd" d="M490.745,463.049c0,6.63-5.372,12.002-11.969,12.002H201.69c-6.644,0-12.017-5.372-12.017-12.002
		c0-6.63,5.372-11.998,12.017-11.998h277.086C485.373,451.051,490.745,456.418,490.745,463.049L490.745,463.049z M490.745,391.421
		c0,6.63-5.372,11.997-11.969,11.997H201.69c-6.644,0-12.017-5.367-12.017-11.997c0-6.631,5.372-12.003,12.017-12.003h277.086
		C485.373,379.419,490.745,384.791,490.745,391.421L490.745,391.421z M490.745,220.179c0,6.63-5.372,12.002-11.969,12.002H201.69
		c-6.644,0-12.017-5.372-12.017-12.002c0-6.621,5.372-12.003,12.017-12.003h277.086
		C485.373,208.177,490.745,213.558,490.745,220.179L490.745,220.179z M490.745,291.821c0,6.621-5.372,11.998-11.969,11.998H201.69
		c-6.644,0-12.017-5.377-12.017-11.998c0-6.63,5.372-12.003,12.017-12.003h277.086C485.373,279.819,490.745,285.191,490.745,291.821
		L490.745,291.821z M128.79,468.52c0,0.24-0.236,0.481-0.518,0.481h-82.56c-0.236,0-0.471-0.24-0.471-0.481v-82.57
		c0-0.24,0.236-0.481,0.471-0.481h82.56c0.283,0,0.518,0.24,0.518,0.481V468.52L128.79,468.52z M128.272,361.469h-82.56
		c-13.477,0-24.457,10.98-24.457,24.481v82.57c0,13.501,10.98,24.48,24.457,24.48h82.56c13.524,0,24.504-10.98,24.504-24.48v-82.57
		C152.776,372.449,141.796,361.469,128.272,361.469L128.272,361.469z M128.79,297.278c0,0.24-0.236,0.495-0.518,0.495h-82.56
		c-0.236,0-0.471-0.255-0.471-0.495v-82.57c0-0.226,0.236-0.48,0.471-0.48h82.56c0.283,0,0.518,0.254,0.518,0.48V297.278
		L128.79,297.278z M128.272,190.228h-82.56c-13.477,0-24.457,10.994-24.457,24.481v82.57c0,13.501,10.98,24.495,24.457,24.495h82.56
		c13.524,0,24.504-10.994,24.504-24.495v-82.57C152.776,201.221,141.796,190.228,128.272,190.228L128.272,190.228z M490.745,120.579
		c0,6.63-5.372,11.998-11.969,11.998H201.69c-6.644,0-12.017-5.367-12.017-11.998c0-6.63,5.372-11.998,12.017-11.998h277.086
		C485.373,108.582,490.745,113.949,490.745,120.579L490.745,120.579z M189.674,48.952c0-6.63,5.372-12.002,12.017-12.002h277.086
		c6.597,0,11.969,5.372,11.969,12.002c0,6.63-5.372,11.998-11.969,11.998H201.69C195.046,60.949,189.674,55.582,189.674,48.952
		L189.674,48.952z M128.79,126.05c0,0.24-0.236,0.481-0.518,0.481h-82.56c-0.236,0-0.471-0.24-0.471-0.481v-82.57
		c0-0.24,0.236-0.48,0.471-0.48h82.56c0.283,0,0.518,0.24,0.518,0.48V126.05L128.79,126.05z M128.272,19h-82.56
		c-13.477,0-24.457,10.98-24.457,24.481v82.57c0,13.501,10.98,24.481,24.457,24.481h82.56c13.524,0,24.504-10.98,24.504-24.481
		v-82.57C152.776,29.98,141.796,19,128.272,19z" clip-rule="evenodd" fill="#3a3636" class="color000000 svgShape"></path>
</svg>
