<svg id="SvgjsSvg1036" width="288" height="288" xmlns="http://www.w3.org/2000/svg" version="1.1" xmlns:xlink="http://www.w3.org/1999/xlink" xmlns:svgjs="http://svgjs.com/svgjs"><defs id="SvgjsDefs1037"></defs><g id="SvgjsG1038"><svg xmlns="http://www.w3.org/2000/svg" enable-background="new 0 0 512 512" viewBox="0 0 512 512" width="288" height="288"><polygon fill="#ffbf66" points="83.656 176 83.656 231 142.93 256 173.656 221 173.656 176 128.656 166.333" class="svgShape colorffffff-0 selectable"></polygon><path fill="#ffbf66" d="M438.746,452.47l-135.09-242.89V46l-47.66-14.067L213.656,46c0,34.271,0,129.409,0,163.58
			c-12.501,22.477-129.138,232.188-135.09,242.89c-13.36,24.01,4,53.53,31.48,53.53h297.22
			C434.746,506,452.106,476.48,438.746,452.47z" class="svgShape colorffffff-1 selectable"></path><polygon fill="#ff8066" points="303.176 291 214.136 291 116.806 466 400.506 466" class="svgShape color9dcafc-2 selectable"></polygon><path fill="#ffbf66" d="M188.656,146v30c-36.679,0-83.066,0-120,0v-30H188.656z" class="svgShape colorffffff-3 selectable"></path><path fill="#ff8066" d="M173.656,366c0,24.884-20.178,45-45,45c-24.952,0-45-20.263-45-45V231c0,0,20-15,40,0s50-10,50-10
			C173.656,250.165,173.656,335.677,173.656,366z" class="svgShape color9dcafc-4 selectable"></path><path fill="#ffbf66" d="M328.656,6v40c-33.262,0-111.201,0-140,0V6H328.656z" class="svgShape colorffffff-5 selectable"></path><circle cx="298.656" cy="406" r="15" fill="#ffbf66" class="svgShape colorffffff-6 selectable"></circle><circle cx="223.656" cy="421" r="10" fill="#ffbf66" class="svgShape colorffffff-7 selectable"></circle><circle cx="233.656" cy="361" r="20" fill="#ffbf66" class="svgShape colorffffff-8 selectable"></circle><circle cx="288.656" cy="356" r="5" fill="#ffbf66" class="svgShape colorffffff-9 selectable"></circle><circle cx="268.656" cy="436" r="5" fill="#ffbf66" class="svgShape colorffffff-10 selectable"></circle><circle cx="178.656" cy="431" r="5" fill="#ffbf66" class="svgShape colorffffff-11 selectable"></circle><circle cx="116.156" cy="343.5" r="12.5" fill="#ffbf66" class="svgShape colorffffff-12 selectable"></circle><circle cx="138.656" cy="301" r="10" fill="#ffbf66" class="svgShape colorffffff-13 selectable"></circle><path fill="#3a3636" d="M407.263,511h-297.22c-31.274,0-51.08-33.59-35.85-60.961l26.71-48.02
							c1.342-2.413,4.387-3.284,6.8-1.938c2.413,1.342,3.281,4.387,1.938,6.8l-26.71,48.02c-11.497,20.665,3.421,46.1,27.111,46.1
							h297.22c23.649,0,38.628-25.399,27.111-46.1C290.752,196.199,298.653,212.045,298.653,209.58V51h-80
							c-0.228,168.367,0.565,158.858-0.63,161.011l-40,71.92c-1.343,2.413-4.384,3.28-6.801,1.939
							c-2.413-1.343-3.281-4.387-1.939-6.801l39.37-70.786V46c0-2.762,2.238-5,5-5h90c2.762,0,5,2.238,5,5v162.283l134.46,241.756
							C458.318,477.365,438.588,511,407.263,511z" class="svgShape color4269a7-14 selectable"></path><path fill="#3a3636" d="M328.653 51h-140c-2.762 0-5-2.238-5-5V6c0-2.762 2.238-5 5-5h140c2.762 0 5 2.238 5 5v40C333.653 48.762 331.414 51 328.653 51zM193.653 41h130V11h-130V41zM188.653 181h-120c-2.762 0-5-2.238-5-5v-30c0-2.762 2.238-5 5-5h120c2.762 0 5 2.238 5 5v30C193.653 178.762 191.414 181 188.653 181zM73.653 171h110v-20h-110V171zM400.503 471c-298.823-.976-285.239 2.252-288.01-2.466-.898-1.527-.921-3.416-.06-4.965l33.75-60.68c1.342-2.413 4.383-3.282 6.8-1.938 2.413 1.342 3.281 4.386 1.938 6.8L125.305 461h266.696l-91.769-165h-83.159l-39.052 70.211c-1.342 2.413-4.383 3.283-6.8 1.938-2.413-1.342-3.281-4.387-1.938-6.8l40.48-72.78c.882-1.586 2.554-2.569 4.369-2.569h89.04c1.815 0 3.487.983 4.37 2.569l97.33 175C406.723 466.896 404.314 471 400.503 471z" class="svgShape color4269a7-15 selectable"></path><path fill="#3a3636" d="M298.653 426c-11.028 0-20-8.972-20-20s8.972-20 20-20 20 8.972 20 20S309.681 426 298.653 426zM298.653 396c-5.514 0-10 4.486-10 10s4.486 10 10 10 10-4.486 10-10S304.166 396 298.653 396zM233.653 386c-13.785 0-25-11.215-25-25s11.215-25 25-25 25 11.215 25 25S247.438 386 233.653 386zM233.653 346c-8.271 0-15 6.729-15 15s6.729 15 15 15 15-6.729 15-15S241.924 346 233.653 346zM223.653 436c-8.271 0-15-6.729-15-15s6.729-15 15-15 15 6.729 15 15S231.924 436 223.653 436zM223.653 416c-2.757 0-5 2.243-5 5s2.243 5 5 5 5-2.243 5-5S226.409 416 223.653 416zM128.653 416c-27.57 0-50-22.43-50-50V176c0-2.762 2.238-5 5-5h90c2.762 0 5 2.238 5 5v190C178.653 393.57 156.223 416 128.653 416zM88.653 181v185c0 22.056 17.944 40 40 40s40-17.944 40-40V181H88.653z" class="svgShape color4269a7-16 selectable"></path><path fill="#3a3636" d="M138.569 240.818c-6.128 0-12.293-1.602-17.916-5.818-16.662-12.497-33.315-.505-34.016.012-2.215 1.635-5.346 1.175-6.988-1.034-1.643-2.21-1.199-5.325 1.004-6.978 7.956-5.966 27.807-13.646 46 0 16.586 12.442 43.533-9.62 43.803-9.845 2.125-1.762 5.276-1.472 7.04.649 1.764 2.122 1.478 5.27-.642 7.036C175.836 225.689 157.395 240.816 138.569 240.818zM138.653 316c-8.271 0-15-6.729-15-15s6.729-15 15-15 15 6.729 15 15S146.924 316 138.653 316zM138.653 296c-2.757 0-5 2.243-5 5s2.243 5 5 5 5-2.243 5-5S141.409 296 138.653 296zM116.153 361c-9.649 0-17.5-7.851-17.5-17.5s7.851-17.5 17.5-17.5 17.5 7.851 17.5 17.5S125.802 361 116.153 361zM116.153 336c-4.136 0-7.5 3.364-7.5 7.5s3.364 7.5 7.5 7.5 7.5-3.364 7.5-7.5S120.288 336 116.153 336z" class="svgShape color4269a7-17 selectable"></path><circle cx="178.653" cy="431" r="5" fill="#3a3636" class="svgShape color4269a7-18 selectable"></circle><circle cx="288.653" cy="356" r="5" fill="#3a3636" class="svgShape color4269a7-19 selectable"></circle><circle cx="268.653" cy="436" r="5" fill="#3a3636" class="svgShape color4269a7-20 selectable"></circle><path fill="#3a3636" d="M248.653 76h-35c-2.762 0-5-2.238-5-5s2.238-5 5-5h35c2.762 0 5 2.238 5 5S251.414 76 248.653 76zM248.653 101h-35c-2.762 0-5-2.238-5-5s2.238-5 5-5h35c2.762 0 5 2.238 5 5S251.414 101 248.653 101zM248.653 126h-35c-2.762 0-5-2.238-5-5s2.238-5 5-5h35c2.762 0 5 2.238 5 5S251.414 126 248.653 126zM248.653 151h-35c-2.762 0-5-2.238-5-5s2.238-5 5-5h35c2.762 0 5 2.238 5 5S251.414 151 248.653 151zM248.653 176h-35c-2.762 0-5-2.238-5-5s2.238-5 5-5h35c2.762 0 5 2.238 5 5S251.414 176 248.653 176z" class="svgShape color4269a7-21 selectable"></path></svg></g></svg>