<svg xmlns="http://www.w3.org/2000/svg" enable-background="new 0 0 2000 2000" viewBox="0 0 2000 2000" id="ChemistryFlask">
  <path fill="#3a3636" d="M1411.2926025,1202.1390381c-0.3647461-5.46521-3.9626465-10.201416-9.1540527-12.0231934
		c-84.5266113-29.5568848-252.4412842-69.4519043-427.2316895-4.7363281
		c-16.3500366,6.0571289-33.1092529,11.1123047-49.9140625,15.2109375
		c-12.7064819-33.7467041-45.1775513-57.8383789-83.296875-57.8383789c-41.1247559,0-75.7362061,28.0994873-85.9387207,66.081543
		c-49.0490112-6.5578613-98.1881104-20.4484863-146.3265381-41.579834
		c-3.9627075-1.7762451-8.5169678-1.5029297-12.2506104,0.6373291c-3.7803345,2.140625-6.2843018,5.9660645-6.7868652,10.2470703
		c-1.9124146,16.1677246-2.8685913,32.5627441-2.8685913,48.7757568c0,227.3466797,184.9473877,412.2481689,412.2481079,412.2481689
		c227.3463135,0,412.2481689-184.9014893,412.2481689-412.2481689
		C1412.020874,1218.3520508,1411.7929688,1210.0177002,1411.2926025,1202.1390381z M780.3051147,1225.6386719
		c0-0.0452881,0.0455933-0.0909424,0.0455933-0.1821289v-0.1364746
		c3.2332764-31.0141602,29.5112305-55.2426758,61.3452148-55.2426758c34.0198975,0,61.7098999,27.6894531,61.7098999,61.7095947
		c0,34.0198975-27.6900024,61.7097168-61.7098999,61.7097168s-61.7099609-27.6898193-61.7099609-61.7097168
		C779.9859619,1229.7375488,780.1227417,1227.6425781,780.3051147,1225.6386719z M999.7727051,1611.836792
		c-212.2716064,0-384.9227905-172.6506348-384.9227905-384.9228516c0-9.0628662,0.3190918-18.2167969,0.9561768-27.3708496
		c45.1330566,18.2624512,91.1300049,30.4221191,137.0825195,36.4793701
		c2.2315063,47.1359863,41.1703491,84.7995605,88.807312,84.7995605c49.0946045,0,89.0352173-39.9406738,89.0352173-89.0350342
		c0-1.5029297-0.1367798-2.9603271-0.2279053-4.4630127c18.1712646-4.3721924,36.2514038-9.791748,53.9212646-16.3041992
		c160.9921265-59.6604004,316.5183716-25.9591064,400.0431519,1.9127197
		c0.182373,4.5541992,0.2279053,9.2452393,0.2279053,13.9814453
		C1384.6955566,1439.1861572,1212.0454102,1611.836792,999.7727051,1611.836792z" class="color464b4f svgShape"></path>
  <path fill="#3a3636" d="M1376.4521484,946.2373047c-56.8365479-76.1464233-136.991333-134.2583008-226.5268555-164.4984131
		V493.3200073h14.7099609c27.4165039,0,49.6872559-22.3154907,49.6872559-49.6864014v-90.4923706
		c0-27.4164734-22.270752-49.686676-49.6872559-49.686676H834.9101563c-27.4165039,0-49.6861572,22.2702026-49.6861572,49.686676
		v90.4923706c0,27.3709106,22.2696533,49.6864014,49.6861572,49.6864014h14.710022v288.4188843
		c-89.5355835,30.2401123-169.6903076,88.3519897-226.5268555,164.4984131
		c-60.84375,81.56604-93.0435181,178.6166992-93.0435181,280.6766357c0,258.9985352,210.723877,469.7224121,469.7229004,469.7224121
		s469.7230225-210.723877,469.7230225-469.7224121C1469.4957275,1124.8540039,1437.2969971,1027.8033447,1376.4521484,946.2373047z
		 M999.7727051,1669.3110352c-243.9243164,0-442.397583-198.4730225-442.397583-442.3970947
		c0-194.46521,124.6039429-364.1555786,310.0072021-422.2218628c5.6928101-1.7759399,9.5632324-7.059021,9.5632324-13.0250244
		V493.3200073h20.8586426c7.5596313,0,13.6626587-6.102478,13.6626587-13.6626587
		c0-7.5598755-6.1030273-13.6626587-13.6626587-13.6626587h-62.894043c-12.3417358,0-22.3608398-10.0193481-22.3608398-22.361084
		v-90.4923706c0-12.3420105,10.019104-22.3613586,22.3608398-22.3613586h329.7250977
		c12.3428955,0,22.3619385,10.0193481,22.3619385,22.3613586v90.4923706c0,12.3417358-10.019043,22.361084-22.3619385,22.361084
		h-130.3411865c-7.5606689,0-13.6626587,6.1027832-13.6626587,13.6626587c0,7.5601807,6.1019897,13.6626587,13.6626587,13.6626587
		h88.3059082v298.3470459c0,5.9660034,3.87146,11.2490845,9.564209,13.0250244
		c185.4477539,58.0662842,310.0062256,227.7566528,310.0062256,422.2218628
		C1442.1704102,1470.8380127,1243.6970215,1669.3110352,999.7727051,1669.3110352z" class="color464b4f svgShape"></path>
  <path fill="#3a3636" d="M743.8713379,1021.1998901c-36.7072754,0-66.5376587,29.8301392-66.5376587,66.4915161
		c0,36.7070313,29.8303833,66.5371094,66.5376587,66.5371094c36.6616821,0,66.4920654-29.8300781,66.4920654-66.5371094
		C810.3634033,1051.0300293,780.53302,1021.1998901,743.8713379,1021.1998901z M743.8713379,1126.9031982
		c-21.6325684,0-39.2123413-17.5792236-39.2123413-39.211792c0-21.5869141,17.5797729-39.1661377,39.2123413-39.1661377
		c21.5869751,0,39.166748,17.5792236,39.166748,39.1661377
		C783.0380859,1109.3239746,765.458313,1126.9031982,743.8713379,1126.9031982z" class="color464b4f svgShape"></path>
  <path fill="#3a3636" d="M833.1789551,948.2412109c-27.6433105,0-50.1408691,22.4978638-50.1408691,50.1419678
		c0,27.644165,22.4975586,50.1420898,50.1408691,50.1420898c27.6444702,0,50.0964355-22.4979248,50.0964355-50.1420898
		C883.2753906,970.7390747,860.8234253,948.2412109,833.1789551,948.2412109z M833.1789551,1021.1998901
		c-12.5685425,0-22.8155518-10.2470093-22.8155518-22.8167114c0-12.5696411,10.2470093-22.8166504,22.8155518-22.8166504
		c12.5708008,0,22.7711182,10.2470093,22.7711182,22.8166504
		C855.9500732,1010.9528809,845.7497559,1021.1998901,833.1789551,1021.1998901z" class="color464b4f svgShape"></path>
  <path fill="#ffbf66" d="M1132.1096191,804.632019c-5.692749-1.7759399-9.5643311-7.05896-9.5643311-13.0249634V493.2599792
		h-88.3059082c-7.5606689,0-13.6625977-6.102478-13.6625977-13.6626587c0-7.5598755,6.1019287-13.6626587,13.6625977-13.6626587
		h130.3413086c12.3428955,0,22.3619385-10.0193481,22.3619385-22.361084v-90.4923706
		c0-12.3420105-10.019043-22.3613586-22.3619385-22.3613586H834.8555298c-12.3417969,0-22.3608398,10.0193481-22.3608398,22.3613586
		v90.4923706c0,12.3417358,10.019043,22.361084,22.3608398,22.361084h62.894043
		c7.5596313,0,13.6626587,6.1027832,13.6626587,13.6626587c0,7.5601807-6.1030273,13.6626587-13.6626587,13.6626587h-20.8587036
		v298.3470764c0,5.9660034-3.8704224,11.2490234-9.5631714,13.0249634
		c-185.4032593,58.0663452-310.0072632,227.7566528-310.0072632,422.2219849
		c0,243.9239502,198.4733276,442.3969727,442.397644,442.3969727s442.397644-198.4730225,442.397644-442.3969727
		C1442.1157227,1032.3886719,1317.557373,862.6983643,1132.1096191,804.632019z M833.1243286,948.1811523
		c27.6444092,0,50.0964355,22.4978638,50.0964355,50.1420288c0,27.644104-22.4520264,50.1420288-50.0964355,50.1420288
		c-27.6433105,0-50.1408691-22.4979248-50.1408691-50.1420288
		C782.9834595,970.6790161,805.4810181,948.1811523,833.1243286,948.1811523z M743.8167114,1021.1398926
		c36.6616821,0,66.4920654,29.8300781,66.4920654,66.4914551c0,36.7070313-29.8303833,66.5371094-66.4920654,66.5371094
		c-36.7073364,0-66.5376587-29.8300781-66.5376587-66.5371094
		C677.2790527,1050.9699707,707.109375,1021.1398926,743.8167114,1021.1398926z M999.7180786,1639.1020508
		c-227.3007202,0-412.2481689-184.9014893-412.2481689-412.2480469c0-16.2131348,0.9562378-32.6081543,2.8686523-48.7758789
		c0.5025635-4.2810059,3.0064697-8.1063232,6.7868652-10.2469482c3.7336426-2.1403809,8.2879028-2.4135742,12.2505493-0.6374512
		c48.1384277,21.1314697,97.2775879,35.0219727,146.3265991,41.579834
		c10.2025146-37.9820557,44.8139648-66.081543,85.9386597-66.081543c38.1193848,0,70.5904541,24.0917969,83.296875,57.8383789
		c16.8048096-4.0986328,33.5640259-9.1536865,49.9141235-15.2109375
		c174.7904663-64.7155762,342.7051392-24.8205566,427.2317505,4.7363281
		c5.1912842,1.8217773,8.7893066,6.5581055,9.1539307,12.0231934c0.5003662,7.8786621,0.7282715,16.2130127,0.7282715,24.7750244
		C1411.9661865,1454.2005615,1227.0644531,1639.1020508,999.7180786,1639.1020508z" class="colorb4efed svgShape"></path>
  <path fill="#ff8066" d="M903.3511963,1231.7270508c0,34.0198975-27.6900635,61.7095947-61.7099609,61.7095947
		s-61.7098999-27.6896973-61.7098999-61.7095947c0-2.0495605,0.1367798-4.1445313,0.3190918-6.1484375
		c0-0.0452881,0.0455933-0.0908203,0.0455933-0.1820068v-0.1364746
		c3.2333374-31.0142822,29.5112915-55.2427979,61.3452148-55.2427979
		C875.6611328,1170.017334,903.3511963,1197.7067871,903.3511963,1231.7270508z" class="colorf77872 svgShape"></path>
  <path fill="#ff8066" d="M1384.6408691 1226.8540039c0 212.2720947-172.6500244 384.9227295-384.9227905 384.9227295-212.2716064 0-384.9227905-172.6506348-384.9227905-384.9227295 0-9.0628662.3190918-18.2169189.9561768-27.3709717 45.1330566 18.2624512 91.1300049 30.4221191 137.0825195 36.4793701 2.2315063 47.1361084 41.1702881 84.7995605 88.807251 84.7995605 49.0946655 0 89.0352783-39.9406738 89.0352783-89.0349121 0-1.5030518-.1367798-2.9604492-.2279663-4.4631348 18.1713257-4.3720703 36.2514648-9.791626 53.9212646-16.3041992 160.9921265-59.6604004 316.5183716-25.9591064 400.0431519 1.9127197C1384.5953369 1217.4266357 1384.6408691 1222.1176758 1384.6408691 1226.8540039zM782.9834595 1087.6313477c0 21.6325684-17.579834 39.211792-39.166748 39.211792-21.6325684 0-39.2123413-17.5792236-39.2123413-39.211792 0-21.5869141 17.5797729-39.1661377 39.2123413-39.1661377C765.4036255 1048.46521 782.9834595 1066.0444336 782.9834595 1087.6313477zM855.8954468 998.3231812c0 12.5697021-10.2003174 22.8167114-22.7711182 22.8167114-12.5686035 0-22.8155518-10.2470093-22.8155518-22.8167114s10.2469482-22.8167114 22.8155518-22.8167114C845.6951294 975.5064697 855.8954468 985.753479 855.8954468 998.3231812z" class="colorf77872 svgShape"></path>
</svg>
