<svg xmlns="http://www.w3.org/2000/svg" xml:space="preserve" id="DuckHalloween" x="0" y="0" version="1.1" viewBox="0 0 512 512" enable-background="new 0 0 512 512">
  <g fill="#000000" class="color000000 svgShape">
    <g fill="#000000" class="color000000 svgShape">
      <g fill="#000000" class="color000000 svgShape">
        <g fill="#000000" class="color000000 svgShape">
          <path d="M368.36,154.89c4.54-3.89,11.34-1.14,13.96,0.16l-0.93,8.42c-1.49,0.48-2.96,0.93-4.38,1.35
					c-3.48,1.02-6.86,1.91-10.1,2.68L368.36,154.89z" fill="#eac694" class="coloreab894 svgShape"></path>
        </g>
      </g>
      <g fill="#000000" class="color000000 svgShape">
        <g fill="#000000" class="color000000 svgShape">
          <path d="M370.78,326.06c-0.22,0.27-0.45,0.53-0.7,0.78c-0.02,0.02-0.04,0.04-0.06,0.06
					c-3.91,3.76-11.95,4.83-20.17,2.55c-3.74-1.04-6.1-2.77-6.99-5.14c-1.37-3.62,0.76-8.04,1.66-9.64c0.34,0.37,0.7,0.73,1.11,1.08
					c2.75,2.39,7.02,3.56,11.52,3.56c4.86,0,9.98-1.38,13.81-4.04C372.48,318.59,373.39,322.78,370.78,326.06z" fill="#ffd08f" class="colorffec8f svgShape"></path>
        </g>
      </g>
      <g fill="#000000" class="color000000 svgShape">
        <g fill="#000000" class="color000000 svgShape">
          <path d="M371.05,300.71c0.41-0.23,0.79-0.48,1.16-0.73c1.7,4.75,0.72,8.71-2.9,11.55
					c-6.08,4.76-17.02,4.7-21.07,1.18c-5.11-4.44-2.62-10.84-0.89-14c2.92,2.3,6.68,3.82,10.77,4.32c0.97,0.12,1.94,0.18,2.9,0.18
					C364.67,303.21,368.15,302.35,371.05,300.71z" fill="#ffd08f" class="colorffec8f svgShape"></path>
        </g>
      </g>
      <g fill="#000000" class="color000000 svgShape">
        <g fill="#000000" class="color000000 svgShape">
          <path d="M321.33,282.48c-1.16,3.87-3.46,11.54-5.68,19.22c-2.54,8.79-4.05,14.27-4.91,17.76
					c-2.6-4.17-5.07-7.48-7.13-9.62c-0.76-0.8-2.03-0.82-2.83-0.06c-0.8,0.76-0.82,2.03-0.06,2.83c6.36,6.63,24.09,36.18,26.59,67.9
					c-0.31,0.09-0.6,0.25-0.85,0.5c-10.2,10.24-29.52,10.56-34.28,10.48c-1.35-2.34-3.12-4.44-5.29-6.19
					c-4.6-3.7-10.35-5.39-16.21-4.75l-8.99,0.97c0.51-6.35,1.93-24.36,3.34-42.4c0.88-11.21,1.74-22.43,2.37-30.86
					c0.31-4.22,0.57-7.74,0.74-10.22c0.07-1.04,0.13-1.85,0.16-2.51c13.27-3.63,23.59-8.22,31.61-13.06H321.33z" fill="#ead4b5" class="coloreaceb5 svgShape"></path>
        </g>
      </g>
      <g fill="#000000" class="color000000 svgShape">
        <g fill="#000000" class="color000000 svgShape">
          <path d="M325.65,405.53c-7.27,4.8-23.78,8.48-31.23,9.96c1.12-3.11,1.55-6.45,1.19-9.84l-0.6-5.54
					c-0.17-1.59-0.52-3.13-1.02-4.61c6.8-0.05,23.09-1.16,33.59-10.09C327.75,392.13,327.19,398.9,325.65,405.53z" fill="#f9eede" class="colorf9eade svgShape"></path>
        </g>
      </g>
      <g fill="#000000" class="color000000 svgShape">
        <g fill="#000000" class="color000000 svgShape">
          <path d="M116.04,403.45c-0.72-1.96-1.17-3.6-1.45-4.82c3.55,0.73,7.68,0.84,12.33-0.27
					c5.81-1.38,12.1-4.5,17.82-7.96c4.38,2.41,21.49,10.44,54.88,10.44c7.36,0,15.53-0.39,24.51-1.32c-0.75,2.64-1.01,5.46-0.7,8.35
					l0.6,5.54c0.37,3.42,1.51,6.58,3.23,9.33c-66.76-1.76-99.74-13.93-110.94-19.16C116.22,403.53,116.13,403.49,116.04,403.45z" fill="#f9eede" class="colorf9eade svgShape"></path>
        </g>
      </g>
      <g fill="#000000" class="color000000 svgShape">
        <g fill="#000000" class="color000000 svgShape">
          <path d="M232.93,423.55c-0.07-0.08-0.15-0.16-0.23-0.23c-2.56-2.76-4.27-6.34-4.71-10.35l-0.6-5.54
					c-1.07-9.91,6.11-18.84,16.02-19.91l27.7-3c0.67-0.07,1.33-0.11,1.99-0.11c4.1,0,8.04,1.39,11.28,3.99
					c3.76,3.03,6.12,7.33,6.64,12.13l0.6,5.54c0.52,4.8-0.86,9.51-3.89,13.27c-3.03,3.76-7.34,6.12-12.13,6.64l-27.7,3
					c-0.65,0.07-1.31,0.11-1.96,0.11C240.85,429.1,236.23,426.98,232.93,423.55z" fill="#ff8066" class="colorc69e7d svgShape"></path>
        </g>
      </g>
      <g fill="#000000" class="color000000 svgShape">
        <g fill="#000000" class="color000000 svgShape">
          <path d="M254.35,382.31l-41.53-79.29c6.06-0.16,12.31-0.51,18.74-1.1c12.42-1.14,23.23-3,32.67-5.33
					c-0.72,10.96-4.13,54.54-6.59,85.36L254.35,382.31z" fill="#ffd08f" class="colorffec8f svgShape"></path>
        </g>
      </g>
      <g fill="#000000" class="color000000 svgShape">
        <g fill="#000000" class="color000000 svgShape">
          <path d="M224.54,65.67c9.59,1.07,18.62,3.16,27.08,6.26c0.17,0.11,0.35,0.21,0.55,0.27
					c0.12,0.03,0.23,0.05,0.35,0.07c12.72,4.79,24.14,11.89,34.19,21.3c13.37,12.51,21.44,26.58,25.81,36.8
					c0.05,0.26,0.16,0.51,0.31,0.72c1.63,3.9,2.71,7.19,3.32,9.57c-2.78-1.6-6.38-3.26-11.05-4.85
					c-14.76-5.03-35.21-7.64-60.93-7.83C246.47,100.54,230.93,74.91,224.54,65.67z" fill="#ead4b5" class="coloreaceb5 svgShape"></path>
        </g>
      </g>
      <g fill="#000000" class="color000000 svgShape">
        <g fill="#000000" class="color000000 svgShape">
          <path d="M266.62,24.24c-1.74-3.06-3.22-5.54-4.41-7.54c-1.54-2.58-2.9-4.86-3.3-5.95
					c0.04-0.01,0.08-0.02,0.13-0.03c2.48,0.13,22.86,7.82,39.02,25.6c11.96,13.16,17.99,27.92,17.99,43.94
					c-0.4-0.48-0.83-0.96-1.32-1.45c-4.9-4.9-10.4-4.06-14.35-1.99c-0.26-3.51-1.98-7.71-7.04-10.73c-2.71-1.62-5.49-2.07-8.26-1.34
					c-2.45,0.65-4.48,2.16-5.99,3.66c-0.11-0.25-0.24-0.5-0.38-0.75c-1.53-2.73-4.41-4.81-8.56-6.21
					C271.1,55.51,273.46,36.26,266.62,24.24z" fill="#f7eddf" class="colorf7f2df svgShape"></path>
        </g>
      </g>
      <g fill="#000000" class="color000000 svgShape">
        <g fill="#000000" class="color000000 svgShape">
          <path d="M267.36,64.78c9.72,2.61,8.51,7.83,8.46,8.02c-0.29,0.98,0.2,2.01,1.14,2.41
					c0.94,0.39,2.02,0.02,2.52-0.86c0.03-0.05,2.72-4.69,6.63-5.73c1.71-0.45,3.4-0.16,5.17,0.9c6.99,4.18,4.81,10.61,4.72,10.87
					c-0.32,0.88,0.01,1.86,0.8,2.37c0.79,0.51,1.82,0.4,2.49-0.26c0.69-0.68,6.94-6.53,12.6-0.86c5.61,5.61,2.5,9.22,2.14,9.6
					c-0.62,0.62-0.76,1.57-0.35,2.35s1.28,1.2,2.14,1.03c1.38-0.26,5.47-0.54,7.75,1.26c1.15,0.9,1.75,2.25,1.84,4.12
					c0.39,7.88-4.98,10.43-5.19,10.53c-0.85,0.37-1.33,1.29-1.16,2.2s0.96,1.59,1.89,1.63c1.36,0.05,5.54,0.66,6.84,2.67
					c0.21,0.32,0.85,1.31-0.06,3.58c-2.27,5.69-9.17,6.97-12.01,7.26c-3.95-9.05-10.43-20.37-20.15-31.02
					c-9.16-10.04-22.22-20.58-40.21-27.65C256.68,66.77,260.01,62.81,267.36,64.78z" fill="#e2cdaf" class="colore2d8af svgShape"></path>
        </g>
      </g>
      <g fill="#000000" class="color000000 svgShape">
        <g fill="#000000" class="color000000 svgShape">
          <path d="M183.74,66.77c12.54-1.85,24.39-2.37,35.53-1.57c3.38,4.55,23.53,33.11,20.9,62.77
					c-5.83,0.01-11.89,0.14-18.24,0.4c-10.05,0.4-19.41,1.18-28.15,2.22c1.87-23.5-13.96-53.57-18.89-62.29
					C177.78,67.73,180.73,67.22,183.74,66.77z" fill="#f9eede" class="colorf9eade svgShape"></path>
        </g>
      </g>
      <g fill="#000000" class="color000000 svgShape">
        <g fill="#000000" class="color000000 svgShape">
          <path d="M65.02,86.24c0.38-35.86,24.11-56.12,30.17-58.91c-0.08,1.33-0.4,3.47-0.68,5.43
					c-1.68,11.53-5.06,34.81,9.81,49.06c-1.4,0.81-2.95,2.3-3.79,5.11c-1.44,4.79-1.74,8.23-1.69,10.46
					c-3.05-0.46-7.88-0.74-11.3,1.36c-1.99,1.22-3.3,3.13-3.77,5.51c-1.04,5.21,0.13,8.81,1.48,11.06c-2.77,0.71-6.5,2.1-8.69,4.79
					c-0.85,1.04-1.41,2.19-1.68,3.43c-0.56-0.29-1.22-0.73-1.94-1.41C69.88,119.21,64.77,110.66,65.02,86.24z" fill="#f7eddf" class="colorf7f2df svgShape"></path>
        </g>
      </g>
      <g fill="#000000" class="color000000 svgShape">
        <g fill="#000000" class="color000000 svgShape">
          <path d="M87.96,151.38c-0.66,0.4-4.09,2.2-7.06-1.66c-3.16-4.11,3.69-11.93,3.75-12.01
					c0.44-0.48,0.6-1.15,0.46-1.79c-0.14-0.64-0.6-1.17-1.2-1.41c-0.18-0.08-4.47-1.91-5.18-8.64c-0.13-1.23,0.18-2.29,0.94-3.23
					c2.21-2.72,7.64-3.81,9.54-4c0.83-0.08,1.51-0.67,1.72-1.47c0.22-0.8-0.09-1.66-0.76-2.15c-0.16-0.12-3.88-2.92-2.47-9.97
					c0.26-1.31,0.88-2.23,1.94-2.88c3.1-1.91,8.98-0.89,10.99-0.33c0.7,0.2,1.45-0.02,1.96-0.54c0.51-0.52,0.69-1.29,0.48-1.99
					c-0.01-0.04-1-3.55,1.29-11.22c0.47-1.56,1.24-2.54,2.36-3.01c2.5-1.04,6.35,0.51,7.62,1.19c0.7,0.38,1.56,0.29,2.19-0.21
					s0.89-1.34,0.68-2.11c-0.06-0.21-1.33-5.23,7.4-8.72c2.51-1,4.42-1.08,5.69-0.23c1.43,0.96,2.03,3.06,2.24,4.51
					c-11.31,6.67-20.58,15.06-27.72,25.14c-11.31,15.96-15.24,33.15-16.31,46.52C88.33,151.2,88.14,151.27,87.96,151.38z" fill="#e2cdaf" class="colore2d8af svgShape"></path>
        </g>
      </g>
      <g fill="#000000" class="color000000 svgShape">
        <g fill="#000000" class="color000000 svgShape">
          <path d="M108.1,106.95c7.05-9.95,16.29-18.18,27.65-24.68c0.01-0.01,0.02-0.01,0.03-0.02
					c10.03-5.73,21.71-10.1,35-13.08c3.78,6.6,21.27,38.64,18.93,61.94c-62.27,8.26-90.2,30.48-91.53,31.57c0,0,0,0-0.01,0.01
					c-0.19,0.15-2.84,2.38-5.55,5.93C91.64,157.41,91.43,130.46,108.1,106.95z" fill="#ead4b5" class="coloreaceb5 svgShape"></path>
        </g>
      </g>
      <g fill="#000000" class="color000000 svgShape">
        <g fill="#000000" class="color000000 svgShape">
          <path d="M97.05,201.78c-4.16-4.57-7.27-17.37-5.55-22.81c2.33-7.38,9-13.02,9.22-13.2
					c0.63-0.51,38.18-30.06,121.38-33.41c44.71-1.8,69.12,2.94,81.72,7.23c13.74,4.68,17.55,10.14,17.82,11.34
					c0.14,0.62,0.41,1.55,0.74,2.73c1.36,4.72,4.54,15.76,2.21,19.85c-0.37,0.65-0.84,1.02-1.52,1.2
					c-1.77,0.47-6.08-0.31-11.54-1.29c-17.21-3.09-49.23-8.83-101.9,1.26c-56.75,10.88-89.46,21.53-103.42,26.08
					c-3.51,1.14-6.04,1.97-7.19,2.21C98.56,203.08,97.82,202.63,97.05,201.78z" fill="#f9eede" class="colorf9eade svgShape"></path>
        </g>
      </g>
      <g fill="#000000" class="color000000 svgShape">
        <g fill="#000000" class="color000000 svgShape">
          <path d="M105.48,243.64c0.22-0.39,0.3-0.84,0.24-1.29c-0.04-0.24-3.59-23.6-2.11-36.53
					c1.08-0.34,2.35-0.76,3.86-1.25c13.89-4.53,46.43-15.13,102.93-25.95c51.94-9.95,83.49-4.29,100.44-1.25
					c0.86,0.15,1.68,0.3,2.45,0.44c1.54,5.23,7.53,28.05,3.55,53.4c-0.12,0.79,0.23,1.57,0.9,2c0.09,0.06,9.42,6.16,5.24,18.68
					c-1.22,3.66-6.42,15.71-24.27,26.73c-0.24,0.09-0.46,0.23-0.65,0.4c-13.73,8.32-34.76,15.98-66.85,18.94
					c-8.95,0.82-17.51,1.2-25.69,1.2c-28.7,0-52.42-4.62-69.8-10.6c-0.3-0.2-0.64-0.32-0.98-0.34
					c-13.26-4.67-22.71-10.12-27.68-14.85C95.28,262.15,105.38,243.82,105.48,243.64z" fill="#ffd08f" class="colorffec8f svgShape"></path>
        </g>
      </g>
      <g fill="#000000" class="color000000 svgShape">
        <g fill="#000000" class="color000000 svgShape">
          <path d="M135.06,292.45c17.82,6.05,41.84,10.68,70.69,10.68c0.9,0,1.83-0.02,2.74-0.03
					c0.03,0.21,0.09,0.43,0.2,0.63l41.4,79.05l-7.09,0.77c-7.6,0.82-13.9,5.44-17.2,11.76c-44.76,4.97-69.16-3.75-77.09-7.42
					c5.74-3.78,10.53-7.57,13.11-9.7c0.67,1.64,1.11,3.13,1.23,4.41c0.1,1.04,0.97,1.81,1.99,1.81c0.06,0,0.12,0,0.19-0.01
					c1.1-0.1,1.91-1.08,1.81-2.18c-0.21-2.22-1.12-4.86-2.58-7.79c-0.07-0.24-0.18-0.47-0.34-0.67
					c-10.33-20.07-44.64-53.16-52.67-60.77L135.06,292.45z" fill="#ead4b5" class="coloreaceb5 svgShape"></path>
        </g>
      </g>
      <g fill="#000000" class="color000000 svgShape">
        <g fill="#000000" class="color000000 svgShape">
          <path d="M88.5,382.07c-1.59-1.73-1.58-4.2-1.43-5.57c1.87-0.28,3.87-0.67,6-1.19c22.84-5.6,39.45-17.82,40.15-18.34
					c0.89-0.66,1.07-1.91,0.41-2.8c-0.66-0.89-1.91-1.07-2.8-0.41c-0.16,0.12-16.65,12.25-38.71,17.66
					c-11.81,2.9-16.46,1.07-18.18-0.28c-0.9-0.7-1.3-1.49-1.48-2.06c15.95-5.16,44.25-26.01,47.9-28.72
					c0.89-0.66,1.07-1.91,0.41-2.8c-0.66-0.89-1.91-1.07-2.8-0.41c-11.16,8.31-42.22,29.74-51.81,29.07
					c-4.89-0.34-8.38-2.27-8.89-4.93c-0.47-2.48,1.8-6.47,9.62-10.21c14.54-6.96,39.81-26.37,45.99-31.18
					c14.56,14.1,38.67,39.11,47.14,54.57c-4.5,3.75-20.96,16.89-34.02,19.99c-14.29,3.39-22.8-6.38-23.27-6.93
					c19.49-3.81,37.05-17.13,37.81-17.71c0.88-0.67,1.04-1.93,0.37-2.8c-0.67-0.88-1.93-1.04-2.8-0.37
					c-0.18,0.14-18.29,13.87-37.27,17.17C94.78,384.87,90.52,384.27,88.5,382.07z" fill="#ffd08f" class="colorffec8f svgShape"></path>
        </g>
      </g>
      <g fill="#000000" class="color000000 svgShape">
        <g fill="#000000" class="color000000 svgShape">
          <path d="M102.8,421.08c-8.77-12.53-3.86-24.45-1.28-29.09c1.76,1.59,4.73,3.81,8.74,5.36
					c0.4,2.68,2.3,12.01,10.57,22.72c4.56,5.92,11.63,12.86,22.39,19.24c-0.03,0.03-0.06,0.05-0.08,0.09
					c-0.19,0.24-1.42,1.78-3.19,4.14C134.49,442.04,112.79,435.34,102.8,421.08z" fill="#ffd08f" class="colorffec8f svgShape"></path>
        </g>
      </g>
      <g fill="#000000" class="color000000 svgShape">
        <g fill="#000000" class="color000000 svgShape">
          <path d="M220.62,499.47c-1.08,1.2-2.31,1.79-3.74,1.79c-6.38,0-8.9-2.86-11.34-5.62
					c-2.72-3.08-5.81-6.57-13.15-2.76c-11.15,5.78-17.55,6.33-23.64,2.01c-1.94-1.38-3.1-3.5-4.22-5.54
					c-2.33-4.27-5.23-9.59-15.66-5.56c-8.54,3.3-16.53,3.61-20.37,0.78c-2-1.48-2.86-3.74-2.63-6.91
					c0.8-11.24,20.18-35.5,20.38-35.75c0.16-0.21,0.28-0.43,0.35-0.67c9.39,5.09,21.3,9.69,36.43,12.95
					c14.37,3.09,28.6,4.86,42.24,5.34C226.16,469.7,226.77,492.64,220.62,499.47z" fill="#ffbf66" class="colorffa255 svgShape"></path>
        </g>
      </g>
      <g fill="#000000" class="color000000 svgShape">
        <g fill="#000000" class="color000000 svgShape">
          <path d="M183.87,450.27c-34.21-7.36-51.35-21.68-59.7-32.4c-2.47-3.17-4.34-6.22-5.75-8.98
					c16.24,6.81,50.16,16.65,112.13,17.94c3.99,3.9,9.43,6.28,15.4,6.28c0.79,0,1.6-0.04,2.39-0.13l27.7-3
					c5.86-0.63,11.12-3.51,14.82-8.11c0.49-0.61,0.93-1.23,1.35-1.88c4.17-0.75,21.55-4.08,31.96-9.07
					C312.03,448.6,253.04,465.15,183.87,450.27z" fill="#ead4b5" class="coloreaceb5 svgShape"></path>
        </g>
      </g>
      <g fill="#000000" class="color000000 svgShape">
        <g fill="#000000" class="color000000 svgShape">
          <path d="M344.35,457.28c-1.15,5.83-4.24,6.19-10.05,6.36c-3.88,0.12-8.28,0.25-11.64,3.4
					c-2.44,2.29-4.11,5.31-5.72,8.23c-3.55,6.43-5.69,9.67-11.9,7.23c-3.97-1.56-6.73-3.1-8.75-4.22
					c-4.09-2.28-6.79-3.79-10.97,0.39c-1.56,1.55-2.58,3.7-3.67,5.98c-2.67,5.56-5.19,10.82-15.06,9.74
					c-10.97-1.2-15.37-24.89-16.32-35.52c9.03-0.84,17.61-2.33,25.56-4.5c17.88-4.87,32-13,41.4-23.61
					C326.5,435.73,346.12,448.32,344.35,457.28z" fill="#ffbf66" class="colorffa255 svgShape"></path>
        </g>
      </g>
      <g fill="#000000" class="color000000 svgShape">
        <g fill="#000000" class="color000000 svgShape">
          <path d="M340.41,362.37h-12.09c-3.41-14.54-9.08-27.89-14.61-37.84c0.42-3.24,5.08-19.51,9.26-33.58
					c0.31,0.19,0.67,0.3,1.05,0.3c0.07,0,0.13,0,0.2-0.01l17.64-1.74c0.22,2.19,1.1,4.32,2.57,6.25c-2.35,3.78-4.56,10-2.2,15.45
					c-0.27,0.15-0.52,0.36-0.7,0.64c-0.2,0.3-4.83,7.44-2.43,13.85c0.4,1.06,0.97,2.01,1.68,2.88c-1.25,2.61-3.55,8.58-1.56,13.9
					c0.76,2.04,2.07,3.73,3.87,5.09c-0.53,0.31-0.9,0.85-0.98,1.5l-1.52,13.33C340.53,362.38,340.47,362.37,340.41,362.37z" fill="#ffd08f" class="colorffec8f svgShape"></path>
        </g>
      </g>
      <g fill="#000000" class="color000000 svgShape">
        <g fill="#000000" class="color000000 svgShape">
          <path d="M360.68,351.83l-5.73,52.13c-7.24,5.98-13.14,1.97-15.11,0.25l6.26-54.7c0.01-0.07,0-0.14,0-0.2
					c0.55,0.24,1.12,0.47,1.72,0.67c2.64,0.88,5.37,1.3,8.04,1.3c1.84,0,3.64-0.22,5.37-0.61
					C360.93,350.97,360.73,351.37,360.68,351.83z" fill="#eac694" class="coloreab894 svgShape"></path>
        </g>
      </g>
      <g fill="#000000" class="color000000 svgShape">
        <g fill="#000000" class="color000000 svgShape">
          <path d="M368.63,342.18c-4.15,4.71-12.37,6.4-19.55,4c-3.22-1.07-5.22-2.74-6.11-5.11
					c-1.27-3.37-0.02-7.41,0.98-9.79c1.36,0.82,2.97,1.49,4.82,2.01c3.26,0.91,6.48,1.34,9.52,1.34c4.79,0,9.1-1.1,12.32-3.16
					C371.87,335.52,371.2,339.26,368.63,342.18z" fill="#ffd08f" class="colorffec8f svgShape"></path>
        </g>
      </g>
      <g fill="#000000" class="color000000 svgShape">
        <g fill="#000000" class="color000000 svgShape">
          <path d="M373.78,290.96c-0.31,2.5-1.97,4.73-4.69,6.27c-2.92,1.65-6.64,2.3-10.48,1.83c-3.84-0.47-7.29-2-9.72-4.3
					c-2.27-2.15-3.35-4.71-3.04-7.22c0.4-3.3,3.09-5.93,6.87-7.27c0.1-0.03,0.2-0.06,0.29-0.1c1.69-0.56,3.58-0.87,5.58-0.87
					c0.79,0,1.61,0.05,2.43,0.15C368.71,280.38,374.44,285.55,373.78,290.96z" fill="#ffd08f" class="colorffec8f svgShape"></path>
        </g>
      </g>
      <g fill="#000000" class="color000000 svgShape">
        <g fill="#000000" class="color000000 svgShape">
          <path d="M373.46,235.57l-4.63,42.09c-2.18-1.09-4.66-1.87-7.33-2.19c-2.42-0.3-4.77-0.2-6.96,0.21l5.06-44.21
					c4.23,0.75,8.99,1.77,14.27,3.12C373.65,234.87,373.5,235.2,373.46,235.57z" fill="#eac694" class="coloreab894 svgShape"></path>
        </g>
      </g>
      <g fill="#000000" class="color000000 svgShape">
        <g fill="#000000" class="color000000 svgShape">
          <path d="M338.88,225.32c-1.17,0-2.15,0.03-2.92,0.07c0.15-17.46,0.66-43.32,1.52-49.15
					c5.1-0.3,20.91-1.88,39.96-7.39c13.71-3.97,30.87-10.6,45.9-21.34c3.06,8.55,12.81,38.49,9.27,64
					c-3.29,23.7-10.24,34.78-12.93,38.31c-7.19-5.26-17.16-10.76-30.77-15.08C363.23,226.58,346.67,225.32,338.88,225.32z" fill="#f9eede" class="colorf9eade svgShape"></path>
        </g>
      </g>
      <g fill="#000000" class="color000000 svgShape">
        <g fill="#000000" class="color000000 svgShape">
          <path d="M454.46,197.53c-2.39,37.88-15.09,60.31-19.73,67.32c-1.9-2.82-5.59-7.47-11.87-12.58
					c3.13-4.06,10.31-15.69,13.72-40.2c3.89-28-7.22-59.96-9.87-67.04c5.13-3.97,9.95-8.45,14.22-13.52
					C445.11,137.85,456.87,159.31,454.46,197.53z" fill="#ead4b5" class="coloreaceb5 svgShape"></path>
        </g>
      </g>
      <g fill="#000000" class="color000000 svgShape">
        <g fill="#000000" class="color000000 svgShape">
          <path d="M246.83,419.05l27.7-3c2.14-0.23,4.07-1.29,5.42-2.97c1.35-1.68,1.97-3.79,1.73-5.93l-0.6-5.54
					c-0.23-2.14-1.28-4.07-2.96-5.42c-1.68-1.35-3.73-1.97-5.93-1.74l-27.7,3c-4.42,0.48-7.63,4.47-7.16,8.9l0.6,5.54
					c0.45,4.13,3.96,7.2,8.03,7.2C246.25,419.1,246.54,419.08,246.83,419.05z" fill="#f9eede" class="colorf9eade svgShape"></path>
        </g>
      </g>
      <g fill="#000000" class="color000000 svgShape">
        <g fill="#000000" class="color000000 svgShape">
          <path d="M241.92,411.46l-0.6-5.54c-0.24-2.23,1.38-4.25,3.61-4.49l27.69-3c0.15-0.02,0.3-0.03,0.46-0.03
					c0.93,0,1.81,0.31,2.54,0.9c0.85,0.68,1.38,1.65,1.5,2.73l0.6,5.54c0.12,1.08-0.19,2.14-0.88,2.99
					c-0.68,0.85-1.65,1.38-2.73,1.5l-27.69,3C244.17,415.32,242.16,413.69,241.92,411.46z" fill="#f9eede" class="colorf9eade svgShape"></path>
        </g>
      </g>
    </g>
    <g id="body16" fill="#000000" class="color000000 svgShape">
      <g fill="#000000" class="color000000 svgShape">
        <g fill="#000000" class="color000000 svgShape">
          <g fill="#000000" class="color000000 svgShape">
            <path d="M98.89,207c-1.3,0-2.99-0.54-4.79-2.52c-4.71-5.18-8.73-19.33-6.4-26.71
						c2.72-8.61,10.18-14.82,10.49-15.08c0,0,0,0,0.01-0.01c1.54-1.26,38.78-30.89,123.76-34.31c36.4-1.46,64.38,1.04,83.17,7.44
						c18.15,6.18,20.25,13.45,20.43,14.26c0.11,0.5,0.38,1.42,0.68,2.49c1.75,6.07,5,17.38,1.85,22.93
						c-0.9,1.58-2.27,2.65-3.98,3.09c-2.62,0.69-6.63-0.03-13.26-1.22c-16.95-3.04-48.5-8.7-100.44,1.25
						c-56.5,10.83-89.04,21.43-102.93,25.95c-3.89,1.27-6.24,2.03-7.6,2.32C99.58,206.96,99.24,207,98.89,207z M100.72,165.77
						c-0.21,0.18-6.89,5.82-9.22,13.2c-1.72,5.45,1.39,18.24,5.55,22.82c0.77,0.85,1.51,1.3,1.98,1.2c1.15-0.25,3.69-1.07,7.2-2.22
						c13.97-4.55,46.67-15.2,103.42-26.08c52.67-10.09,84.69-4.35,101.9-1.26c5.46,0.98,9.77,1.75,11.54,1.29
						c0.68-0.18,1.14-0.55,1.52-1.2c2.32-4.09-0.86-15.13-2.21-19.85c-0.34-1.18-0.61-2.11-0.74-2.73
						c-0.27-1.21-4.08-6.66-17.82-11.34c-12.6-4.29-37.01-9.03-81.72-7.23C138.9,135.71,101.35,165.26,100.72,165.77z" fill="#3a3636" class="color873c1e svgShape"></path>
          </g>
        </g>
        <g fill="#000000" class="color000000 svgShape">
          <g fill="#000000" class="color000000 svgShape">
            <path d="M91.32,176.3c-0.94,0-1.78-0.66-1.96-1.62c-0.3-1.55-7.06-38.25,15.47-70.05
						c15.89-22.41,42.24-36.48,78.33-41.82c59.26-8.76,93.85,13.68,112.43,34.05c19.43,21.3,25.9,45.26,25.14,48.41
						c-0.26,1.07-1.34,1.73-2.42,1.47c-1.04-0.25-1.7-1.29-1.49-2.33c0.21-3.26-7.13-29.35-30.09-50.84
						c-25.73-24.08-60.38-33.1-102.98-26.8c-34.94,5.17-60.39,18.67-75.62,40.14c-21.56,30.37-14.91,66.65-14.84,67.02
						c0.21,1.08-0.5,2.13-1.59,2.34C91.57,176.29,91.45,176.3,91.32,176.3z M316.83,144.33c0,0.02-0.01,0.03-0.01,0.05
						C316.83,144.36,316.83,144.34,316.83,144.33z" fill="#3a3636" class="color873c1e svgShape"></path>
          </g>
        </g>
        <g fill="#000000" class="color000000 svgShape">
          <g fill="#000000" class="color000000 svgShape">
            <path d="M242.17,130.22c-0.06,0-0.12,0-0.18-0.01c-1.1-0.1-1.91-1.07-1.81-2.17c2.9-32.26-21.14-63.19-21.39-63.49
						c-0.68-0.87-0.53-2.12,0.33-2.81c0.87-0.68,2.12-0.53,2.81,0.33c1.03,1.31,25.27,32.5,22.23,66.33
						C244.06,129.44,243.19,130.22,242.17,130.22z" fill="#3a3636" class="color873c1e svgShape"></path>
          </g>
        </g>
        <g fill="#000000" class="color000000 svgShape">
          <g fill="#000000" class="color000000 svgShape">
            <path d="M191.54,134.9c-0.09,0-0.19-0.01-0.28-0.02c-1.09-0.15-1.86-1.16-1.7-2.26
						c3.66-26.03-19.25-64.3-19.48-64.68c-0.57-0.95-0.27-2.17,0.68-2.75c0.95-0.57,2.17-0.27,2.75,0.68
						c0.98,1.62,23.87,39.88,20.02,67.31C193.37,134.18,192.52,134.9,191.54,134.9z" fill="#3a3636" class="color873c1e svgShape"></path>
          </g>
        </g>
        <g fill="#000000" class="color000000 svgShape">
          <g fill="#000000" class="color000000 svgShape">
            <path d="M314.49,131.97c-1.1,0-2-0.89-2-1.99c0-1.1,0.89-2,1.99-2.01c0.1,0,10.38-0.15,13.25-7.34
						c0.91-2.27,0.27-3.26,0.06-3.58c-1.31-2.01-5.48-2.62-6.84-2.67c-0.93-0.04-1.72-0.71-1.89-1.63c-0.17-0.92,0.31-1.83,1.16-2.2
						c0.21-0.1,5.58-2.65,5.19-10.53c-0.09-1.87-0.69-3.22-1.84-4.12c-2.28-1.8-6.37-1.52-7.75-1.26c-0.86,0.16-1.73-0.26-2.14-1.03
						s-0.27-1.73,0.35-2.35c0.36-0.38,3.47-3.99-2.14-9.6c-5.67-5.67-11.91,0.18-12.6,0.86c-0.67,0.66-1.7,0.77-2.49,0.26
						c-0.79-0.51-1.12-1.49-0.8-2.37c0.09-0.26,2.26-6.68-4.72-10.87c-1.77-1.06-3.46-1.36-5.16-0.91
						c-3.94,1.04-6.62,5.69-6.64,5.74c-0.5,0.88-1.58,1.25-2.52,0.86c-0.94-0.4-1.43-1.43-1.14-2.4c0.05-0.19,1.27-5.4-8.46-8.02
						c-10-2.69-12.59,5.71-12.69,6.07c-0.31,1.06-1.42,1.67-2.48,1.36c-1.06-0.31-1.67-1.42-1.36-2.48
						c1.27-4.34,6.58-11.76,17.57-8.81c5.11,1.37,8.58,3.64,10.32,6.74c0.14,0.25,0.27,0.5,0.38,0.75c1.51-1.5,3.53-3.01,5.99-3.66
						c2.76-0.74,5.54-0.29,8.26,1.34c5.07,3.04,6.79,7.25,7.04,10.77c0.55-0.29,1.14-0.57,1.77-0.81c3.24-1.24,8.05-1.76,12.57,2.76
						c4.37,4.37,4.78,8.23,4.36,10.7c-0.06,0.33-0.13,0.64-0.21,0.94c2.22,0.08,5,0.58,7.16,2.28c2.09,1.64,3.22,4.02,3.38,7.08
						c0.27,5.54-1.67,9.16-3.66,11.38c1.99,0.63,4.13,1.73,5.39,3.66c0.91,1.39,1.7,3.78,0.31,7.26
						C327.57,131.82,315.03,131.97,314.49,131.97C314.49,131.97,314.49,131.97,314.49,131.97z" fill="#3a3636" class="color873c1e svgShape"></path>
          </g>
        </g>
        <g fill="#000000" class="color000000 svgShape">
          <g fill="#000000" class="color000000 svgShape">
            <path d="M85.19,156.14c-2.4,0-5.15-0.96-7.47-3.98c-3.95-5.13,0.08-12.01,2.47-15.27
						c-2.05-1.58-4.83-4.77-5.44-10.59c-0.24-2.32,0.37-4.4,1.82-6.18c2.19-2.69,5.92-4.08,8.69-4.79
						c-1.35-2.25-2.53-5.85-1.48-11.06c0.48-2.38,1.78-4.29,3.77-5.51c3.41-2.1,8.25-1.83,11.3-1.36
						c-0.05-2.23,0.25-5.67,1.69-10.46c1.03-3.42,3.11-4.91,4.68-5.56c2.76-1.14,5.87-0.58,8.09,0.14c0.5-2.96,2.61-7.11,9.83-10
						c3.81-1.53,6.98-1.47,9.42,0.17c4.02,2.71,4.1,8.66,4.1,8.91c0.01,1.1-0.89,2-1.99,2.01c0,0-0.01,0-0.01,0
						c-1.1,0-1.99-0.89-2-1.98c-0.01-1.14-0.46-4.37-2.34-5.63c-1.27-0.85-3.19-0.77-5.69,0.23c-8.72,3.49-7.45,8.51-7.4,8.72
						c0.21,0.77-0.05,1.62-0.68,2.11c-0.63,0.5-1.49,0.59-2.19,0.21c-1.27-0.68-5.13-2.23-7.62-1.19c-1.12,0.47-1.9,1.45-2.37,3.01
						c-2.3,7.67-1.31,11.18-1.29,11.21c0.21,0.7,0.03,1.47-0.48,1.99c-0.51,0.52-1.26,0.74-1.96,0.54
						c-2.01-0.56-7.89-1.58-10.99,0.33c-1.06,0.65-1.68,1.57-1.94,2.88c-1.41,7.06,2.31,9.86,2.47,9.97
						c0.67,0.49,0.98,1.35,0.76,2.15c-0.22,0.8-0.9,1.39-1.72,1.47c-1.9,0.19-7.33,1.28-9.54,4c-0.76,0.94-1.07,1.99-0.94,3.23
						c0.71,6.72,5,8.56,5.18,8.64c0.6,0.25,1.06,0.78,1.2,1.41c0.14,0.64-0.02,1.3-0.46,1.79c-0.07,0.08-6.92,7.9-3.75,12.01
						c2.97,3.87,6.4,2.06,7.06,1.66c0.94-0.57,2.17-0.28,2.75,0.65c0.58,0.93,0.31,2.15-0.62,2.74
						C88.99,155.46,87.21,156.14,85.19,156.14z" fill="#3a3636" class="color873c1e svgShape"></path>
          </g>
        </g>
        <g fill="#000000" class="color000000 svgShape">
          <g fill="#000000" class="color000000 svgShape">
            <path d="M76.68,128.08c-0.76,0-3.5-0.22-6.48-3.05c-4.33-4.12-9.43-14.2-9.18-38.83
						c0.4-37.98,25.9-59.9,33.08-62.72c1.88-0.74,3.3-0.61,4.23,0.37c1.32,1.39,0.97,3.76,0.14,9.49
						c-1.8,12.36-5.15,35.36,11.19,47.8c0.88,0.67,1.05,1.92,0.38,2.8c-0.67,0.88-1.92,1.05-2.8,0.38
						C89.03,70.45,92.73,45,94.51,32.76c0.28-1.95,0.6-4.09,0.68-5.43c-6.06,2.78-29.79,23.05-30.17,58.9
						c-0.25,24.03,4.72,32.66,7.71,35.67c2.12,2.14,3.85,2.17,3.94,2.17c0,0,0,0,0,0c1.11-0.06,2.02,0.77,2.09,1.88
						c0.07,1.1-0.8,2.05-1.9,2.12C76.83,128.08,76.76,128.08,76.68,128.08z" fill="#3a3636" class="color873c1e svgShape"></path>
          </g>
        </g>
        <g fill="#000000" class="color000000 svgShape">
          <g fill="#000000" class="color000000 svgShape">
            <path d="M317.71,89.08c-0.07,0-0.13,0-0.2-0.01c-1.1-0.11-1.9-1.09-1.79-2.19c1.87-18.59-4.08-35.6-17.67-50.56
						c-16.15-17.78-36.53-25.47-39.02-25.6c-0.05,0.01-0.09,0.02-0.13,0.03c0.4,1.08,1.76,3.37,3.3,5.95
						c1.19,1.99,2.67,4.47,4.41,7.54c7.99,14.06,3.42,37.99,3.22,39c-0.21,1.08-1.26,1.79-2.35,1.58c-1.08-0.21-1.79-1.26-1.58-2.35
						c0.05-0.23,4.48-23.5-2.78-36.26c-1.72-3.03-3.19-5.49-4.37-7.46c-3.34-5.6-4.6-7.7-3.73-9.74c0.69-1.62,2.45-2.04,3.2-2.21
						c3.07-0.71,19.97,6.04,35.16,19.38C307,38.1,322.6,58.39,319.7,87.28C319.6,88.31,318.73,89.08,317.71,89.08z" fill="#3a3636" class="color873c1e svgShape"></path>
          </g>
        </g>
        <g fill="#000000" class="color000000 svgShape">
          <g fill="#000000" class="color000000 svgShape">
            <path d="M205.74,303.13c-52.79,0-89.44-15.48-101.44-26.88c-12.67-12.04-4.46-30.31-2.63-33.94
						c-0.61-4.15-3.67-26.12-1.85-38.31c0.16-1.09,1.18-1.85,2.27-1.68c1.09,0.16,1.85,1.18,1.68,2.27
						c-1.88,12.62,1.91,37.51,1.95,37.76c0.07,0.44-0.01,0.9-0.24,1.29c-0.1,0.18-10.2,18.52,1.57,29.71
						c11.53,10.96,47.02,25.79,98.46,25.79c8.17,0,16.74-0.37,25.69-1.2c75.04-6.91,89.62-39.58,91.78-46.06
						c4.14-12.42-4.86-18.44-5.25-18.68c-0.66-0.43-1.02-1.21-0.9-1.99c4.51-28.71-3.81-54.27-3.89-54.53
						c-0.35-1.05,0.22-2.18,1.27-2.53c1.05-0.35,2.18,0.22,2.53,1.27c0.35,1.06,8.5,26.03,4.23,55.23
						c2.84,2.38,10.01,9.89,5.81,22.5c-2.3,6.89-17.69,41.65-95.21,48.78C222.59,302.75,213.97,303.13,205.74,303.13z" fill="#3a3636" class="color873c1e svgShape"></path>
          </g>
        </g>
      </g>
      <g fill="#000000" class="color000000 svgShape">
        <g fill="#000000" class="color000000 svgShape">
          <g fill="#000000" class="color000000 svgShape">
            <path d="M245.95,433.1c-11.28,0-20.71-8.47-21.93-19.7l-0.6-5.54c-1.31-12.1,7.47-23.01,19.57-24.32l27.7-3
						c5.86-0.64,11.61,1.05,16.21,4.75c4.59,3.7,7.47,8.96,8.11,14.82l0.6,5.54c0.63,5.86-1.05,11.62-4.75,16.21
						c-3.7,4.59-8.96,7.47-14.82,8.11l-27.7,3C247.54,433.05,246.74,433.1,245.95,433.1z M273.1,384.41c-0.66,0-1.32,0.04-1.99,0.11
						l-27.7,3c-9.91,1.07-17.09,10.01-16.02,19.91l0.6,5.54c1,9.19,8.71,16.13,17.95,16.13c0.65,0,1.31-0.04,1.96-0.11l27.7-3
						c4.8-0.52,9.11-2.88,12.13-6.64c3.03-3.76,4.41-8.47,3.89-13.27l-0.6-5.54c-0.52-4.8-2.88-9.11-6.64-12.13
						C281.14,385.8,277.2,384.41,273.1,384.41z M245.97,419.1c-4.07,0-7.58-3.07-8.03-7.2l-0.6-5.54c-0.48-4.43,2.73-8.42,7.16-8.9
						l27.7-3c2.2-0.23,4.25,0.38,5.93,1.74c1.68,1.35,2.73,3.28,2.96,5.42l0.6,5.54c0.23,2.14-0.38,4.25-1.73,5.93
						c-1.35,1.68-3.28,2.73-5.42,2.97l-27.7,3C246.54,419.08,246.25,419.1,245.97,419.1z M273.07,398.41c-0.15,0-0.3,0.01-0.46,0.03
						l-27.69,3c-2.23,0.24-3.85,2.25-3.61,4.49l0.6,5.54c0.24,2.23,2.25,3.85,4.49,3.61l27.69-3c1.08-0.12,2.05-0.65,2.73-1.5
						c0.68-0.85,0.99-1.91,0.88-2.99l-0.6-5.54c-0.12-1.08-0.65-2.05-1.5-2.73C274.88,398.73,274,398.41,273.07,398.41z" fill="#3a3636" class="color873c1e svgShape"></path>
          </g>
        </g>
      </g>
      <g fill="#000000" class="color000000 svgShape">
        <g fill="#000000" class="color000000 svgShape">
          <g fill="#000000" class="color000000 svgShape">
            <path d="M361.02,303.21c-0.96,0-1.93-0.06-2.9-0.18c-4.68-0.57-8.94-2.48-11.99-5.37
						c-3.21-3.04-4.72-6.81-4.26-10.61c0.93-7.6,9.74-12.79,19.63-11.58c9.89,1.21,17.18,8.38,16.25,15.98l0,0
						c-0.47,3.8-2.84,7.09-6.7,9.27C368.15,302.35,364.67,303.21,361.02,303.21z M358.58,279.29c-6.66,0-12.15,3.41-12.74,8.25
						c-0.31,2.51,0.77,5.07,3.04,7.22c2.43,2.3,5.88,3.83,9.72,4.3c3.84,0.47,7.56-0.18,10.48-1.83c2.72-1.54,4.39-3.76,4.69-6.27
						l0,0c0.66-5.41-5.06-10.58-12.76-11.52C360.19,279.34,359.38,279.29,358.58,279.29z" fill="#3a3636" class="color873c1e svgShape"></path>
          </g>
        </g>
        <g fill="#000000" class="color000000 svgShape">
          <g fill="#000000" class="color000000 svgShape">
            <path d="M357.14,319.3c-4.51,0-8.77-1.17-11.52-3.56c-7.73-6.72-3.58-16.87-0.29-21.3
						c0.66-0.89,1.91-1.07,2.8-0.42c0.89,0.66,1.07,1.91,0.42,2.8c-0.31,0.42-7.16,9.94-0.3,15.9c4.05,3.52,14.99,3.58,21.07-1.18
						c4.2-3.29,4.86-8.09,1.9-13.86c-0.5-0.98-0.12-2.19,0.87-2.69c0.98-0.51,2.19-0.12,2.69,0.87c3.83,7.48,2.75,14.34-2.99,18.84
						C367.88,317.73,362.35,319.3,357.14,319.3z" fill="#3a3636" class="color873c1e svgShape"></path>
          </g>
        </g>
        <g fill="#000000" class="color000000 svgShape">
          <g fill="#000000" class="color000000 svgShape">
            <path d="M358.29,334.64c-3.03,0-6.26-0.44-9.52-1.34c-5.05-1.4-8.31-3.96-9.67-7.6
						c-2.4-6.41,2.23-13.55,2.43-13.85c0.61-0.92,1.85-1.18,2.77-0.57c0.92,0.61,1.18,1.85,0.57,2.77
						c-0.07,0.1-3.71,5.79-2.02,10.26c0.89,2.37,3.25,4.1,6.99,5.14c8.79,2.44,17.4,1.05,20.93-3.38c2.99-3.75,1.37-8.68-0.51-12.17
						c-0.53-0.97-0.16-2.19,0.81-2.71c0.97-0.52,2.19-0.16,2.71,0.81c4.69,8.67,2.09,14.1,0.12,16.56
						C370.76,332.5,364.99,334.64,358.29,334.64z" fill="#3a3636" class="color873c1e svgShape"></path>
          </g>
        </g>
        <g fill="#000000" class="color000000 svgShape">
          <g fill="#000000" class="color000000 svgShape">
            <path d="M355.86,351.28c-2.67,0-5.4-0.42-8.04-1.3c-4.38-1.46-7.27-3.99-8.59-7.51
						c-2.58-6.89,2.05-14.9,2.25-15.23c0.56-0.95,1.79-1.27,2.74-0.71c0.95,0.56,1.27,1.78,0.71,2.74
						c-0.05,0.09-3.87,6.74-1.95,11.82c0.89,2.37,2.89,4.04,6.11,5.11c7.18,2.4,15.4,0.71,19.55-4c3.06-3.48,3.43-8.12,1.04-13.07
						c-0.48-1-0.06-2.19,0.93-2.67c1-0.48,2.19-0.06,2.67,0.93c3.08,6.4,2.48,12.75-1.65,17.45
						C367.97,348.99,362.08,351.28,355.86,351.28z" fill="#3a3636" class="color873c1e svgShape"></path>
          </g>
        </g>
      </g>
      <g fill="#000000" class="color000000 svgShape">
        <g fill="#000000" class="color000000 svgShape">
          <g fill="#000000" class="color000000 svgShape">
            <path d="M165.02,384.41c-1.02,0-1.89-0.78-1.99-1.81c-1.35-14.45-40.84-54.13-55.94-68.2
						c-0.41-0.39-0.65-0.93-0.64-1.5c0.01-0.57,0.26-1.1,0.69-1.47l26.16-22.75c0.83-0.73,2.1-0.64,2.82,0.2
						c0.72,0.83,0.64,2.1-0.2,2.82l-24.49,21.3c9.31,8.82,53.97,51.92,55.58,69.23c0.1,1.1-0.71,2.07-1.81,2.18
						C165.15,384.41,165.08,384.41,165.02,384.41z" fill="#3a3636" class="color873c1e svgShape"></path>
          </g>
        </g>
        <g fill="#000000" class="color000000 svgShape">
          <g fill="#000000" class="color000000 svgShape">
            <path d="M66.51,370.24c-0.21,0-0.42-0.01-0.62-0.02c-6.86-0.47-11.67-3.6-12.54-8.17
						c-0.47-2.45-0.26-8.79,11.82-14.57c15.9-7.61,46.3-31.54,46.6-31.78c0.87-0.68,2.12-0.54,2.81,0.33
						c0.68,0.87,0.54,2.12-0.33,2.81c-1.26,0.99-31.05,24.45-47.35,32.25c-7.81,3.74-10.09,7.73-9.62,10.21
						c0.51,2.66,4,4.6,8.89,4.93c9.58,0.64,40.65-20.76,51.81-29.07c0.88-0.66,2.14-0.48,2.8,0.41c0.66,0.89,0.48,2.14-0.41,2.8
						C116.2,343.47,79.85,370.24,66.51,370.24z" fill="#3a3636" class="color873c1e svgShape"></path>
          </g>
        </g>
        <g fill="#000000" class="color000000 svgShape">
          <g fill="#000000" class="color000000 svgShape">
            <path d="M81.26,376.97c-4.33,0-7.66-0.93-9.94-2.8c-3.06-2.5-3.03-5.66-3.01-6.01c0.04-1.1,0.98-1.96,2.08-1.92
						c1.09,0.04,1.94,0.96,1.92,2.04c0,0.12,0.05,1.62,1.63,2.86c1.72,1.34,6.37,3.17,18.18,0.28c22.03-5.4,38.55-17.54,38.71-17.66
						c0.89-0.66,2.14-0.47,2.8,0.41c0.66,0.89,0.47,2.14-0.41,2.8c-0.7,0.52-17.3,12.73-40.15,18.34
						C88.55,376.42,84.61,376.97,81.26,376.97z" fill="#3a3636" class="color873c1e svgShape"></path>
          </g>
        </g>
        <g fill="#000000" class="color000000 svgShape">
          <g fill="#000000" class="color000000 svgShape">
            <path d="M95.61,388.32c-4.53,0-7.91-1.2-10.08-3.58c-3.76-4.13-2.22-10.05-2.15-10.3
						c0.29-1.07,1.39-1.69,2.45-1.41c1.06,0.29,1.69,1.38,1.41,2.44l0,0c-0.01,0.04-1.03,4.09,1.26,6.58
						c2.02,2.2,6.28,2.8,12.32,1.75c18.98-3.3,37.09-17.03,37.27-17.17c0.88-0.67,2.13-0.51,2.8,0.37c0.67,0.88,0.51,2.13-0.37,2.8
						c-0.77,0.59-19.05,14.46-39.02,17.94C99.37,388.14,97.4,388.32,95.61,388.32z" fill="#3a3636" class="color873c1e svgShape"></path>
          </g>
        </g>
        <g fill="#000000" class="color000000 svgShape">
          <g fill="#000000" class="color000000 svgShape">
            <path d="M232.66,459.66c-15.84,0-32.65-1.83-49.63-5.48c-35.57-7.65-53.46-22.77-62.2-34.1
						c-9.61-12.45-10.63-23.04-10.66-23.49c-0.1-1.1,0.72-2.07,1.82-2.17c1.09-0.11,2.07,0.72,2.17,1.82
						c0.02,0.16,1.05,10.1,10.02,21.62c8.35,10.72,25.49,25.04,59.7,32.4c69.17,14.88,128.18-1.67,140.3-39.37
						c13.14-40.89-15.05-89.55-23.45-98.29c-0.76-0.8-0.74-2.06,0.06-2.83c0.8-0.77,2.06-0.74,2.83,0.06
						c11.81,12.3,37.19,62.39,24.37,102.28c-6.37,19.82-24.89,34.82-52.15,42.25C262.86,457.9,248.23,459.66,232.66,459.66z" fill="#3a3636" class="color873c1e svgShape"></path>
          </g>
        </g>
        <g fill="#000000" class="color000000 svgShape">
          <g fill="#000000" class="color000000 svgShape">
            <path d="M311.71,327.12c-0.71,0-1.39-0.37-1.75-1.03c-0.54-0.98-0.9-1.63,5.68-24.39
						c2.23-7.69,4.52-15.35,5.68-19.22H299.4c-1.1,0-2-0.9-2-2s0.9-2,2-2h24.62c0.63,0,1.23,0.3,1.61,0.81
						c0.38,0.51,0.49,1.17,0.31,1.77c-4.66,15.33-12.02,40.52-12.25,43.72c0.15,0.82-0.23,1.68-1,2.1
						C312.37,327.04,312.04,327.12,311.71,327.12z M313.47,324.16L313.47,324.16z M313.46,324.16
						C313.46,324.16,313.46,324.16,313.46,324.16C313.46,324.16,313.46,324.16,313.46,324.16z" fill="#3a3636" class="color873c1e svgShape"></path>
          </g>
        </g>
        <g fill="#000000" class="color000000 svgShape">
          <g fill="#000000" class="color000000 svgShape">
            <path d="M324.02,291.25c-1.02,0-1.89-0.77-1.99-1.8c-0.11-1.1,0.69-2.08,1.79-2.19l19.83-1.96
						c1.1-0.11,2.08,0.7,2.19,1.79c0.11,1.1-0.69,2.08-1.79,2.19l-19.83,1.96C324.15,291.25,324.09,291.25,324.02,291.25z" fill="#3a3636" class="color873c1e svgShape"></path>
          </g>
        </g>
        <g fill="#000000" class="color000000 svgShape">
          <g fill="#000000" class="color000000 svgShape">
            <path d="M199.61,400.84c-38.26,0-55.15-10.55-56-11.09c-0.93-0.6-1.2-1.84-0.6-2.76c0.6-0.93,1.83-1.19,2.76-0.6
						l0,0c0.24,0.15,24.75,15.31,81.1,8.81c1.1-0.13,2.09,0.66,2.22,1.76c0.13,1.1-0.66,2.09-1.76,2.22
						C217.07,400.35,207.84,400.84,199.61,400.84z" fill="#3a3636" class="color873c1e svgShape"></path>
          </g>
        </g>
        <g fill="#000000" class="color000000 svgShape">
          <g fill="#000000" class="color000000 svgShape">
            <path d="M293.52,395.5c-1.51,0-2.47-0.05-2.65-0.06c-1.1-0.06-1.94-1.01-1.88-2.11c0.06-1.1,1-1.96,2.11-1.88
						c0.23,0.01,23.73,1.24,35.36-10.44c0.78-0.78,2.04-0.79,2.83-0.01c0.78,0.78,0.78,2.05,0.01,2.83
						C318.72,394.45,300.37,395.5,293.52,395.5z" fill="#3a3636" class="color873c1e svgShape"></path>
          </g>
        </g>
        <g fill="#000000" class="color000000 svgShape">
          <g fill="#000000" class="color000000 svgShape">
            <path d="M231.41,426.83c-0.01,0-0.03,0-0.04,0c-67.83-1.32-102.27-12.87-116.76-19.64
						c-0.24-0.11-0.42-0.2-0.56-0.26c-0.64-0.14-1.21-0.59-1.46-1.25c-0.29-0.76-0.09-1.64,0.51-2.19c1.02-0.95,2.03-0.47,3.2,0.07
						c11.44,5.34,45.55,17.91,115.14,19.26c1.1,0.02,1.98,0.93,1.96,2.04C233.39,425.96,232.5,426.83,231.41,426.83z" fill="#3a3636" class="color873c1e svgShape"></path>
          </g>
        </g>
        <g fill="#000000" class="color000000 svgShape">
          <g fill="#000000" class="color000000 svgShape">
            <path d="M290.98,420.17c-0.96,0-1.8-0.69-1.97-1.66c-0.19-1.09,0.55-2.12,1.64-2.31
						c0.27-0.04,26.6-4.6,35.59-11.07c0.9-0.65,2.15-0.44,2.79,0.46c0.65,0.9,0.44,2.15-0.46,2.79
						c-9.74,7.01-36.14,11.57-37.25,11.76C291.2,420.16,291.09,420.17,290.98,420.17z" fill="#3a3636" class="color873c1e svgShape"></path>
          </g>
        </g>
        <g fill="#000000" class="color000000 svgShape">
          <g fill="#000000" class="color000000 svgShape">
            <path d="M253.22,386.45c-0.72,0-1.42-0.39-1.77-1.07l-42.76-81.65c-0.51-0.98-0.13-2.19,0.84-2.7
						c0.98-0.51,2.19-0.14,2.7,0.84l42.76,81.65c0.51,0.98,0.13,2.19-0.84,2.7C253.85,386.37,253.53,386.45,253.22,386.45z" fill="#3a3636" class="color873c1e svgShape"></path>
          </g>
        </g>
        <g fill="#000000" class="color000000 svgShape">
          <g fill="#000000" class="color000000 svgShape">
            <path d="M259.51,385.77c-0.05,0-0.11,0-0.16-0.01c-1.1-0.09-1.92-1.05-1.83-2.15c2.77-34.73,6.88-87.22,6.86-89.51
						l1.92-0.02l0.07-0.09l1.29-1.53c0.83,0.7,0.83,0.7,0.5,5.59c-0.17,2.47-0.42,6-0.74,10.22c-0.63,8.43-1.5,19.65-2.37,30.86
						c-1.75,22.42-3.53,44.81-3.53,44.81C261.42,384.97,260.55,385.77,259.51,385.77z" fill="#3a3636" class="color873c1e svgShape"></path>
          </g>
        </g>
        <g fill="#000000" class="color000000 svgShape">
          <g fill="#000000" class="color000000 svgShape">
            <path d="M269.04,498.52c-0.91,0-1.87-0.05-2.88-0.16c-17.1-1.88-19.87-38.96-19.98-40.54
						c-0.08-1.1,0.75-2.06,1.86-2.13c1.1-0.07,2.06,0.75,2.13,1.86c0.69,9.82,4.98,35.59,16.43,36.84
						c9.87,1.08,12.39-4.17,15.06-9.74c1.09-2.27,2.12-4.42,3.67-5.97c4.17-4.17,6.88-2.67,10.97-0.39
						c2.02,1.12,4.78,2.66,8.75,4.22c6.21,2.44,8.35-0.8,11.9-7.23c1.61-2.92,3.28-5.94,5.72-8.23c3.36-3.15,7.76-3.29,11.64-3.4
						c5.81-0.18,8.9-0.54,10.05-6.36c1.87-9.42-19.92-22.86-28.47-27.24c-0.98-0.5-1.37-1.71-0.87-2.69
						c0.5-0.98,1.71-1.37,2.69-0.87c3.42,1.75,33.35,17.53,30.57,31.58c-1.83,9.22-8.5,9.42-13.85,9.58
						c-3.48,0.1-6.77,0.2-9.03,2.32c-1.98,1.86-3.49,4.59-4.95,7.24c-3.16,5.73-7.1,12.85-16.86,9.02
						c-4.22-1.66-7.12-3.27-9.24-4.45c-4-2.23-4.15-2.31-6.19-0.28c-1.07,1.07-1.96,2.92-2.9,4.88
						C282.77,491.56,279.43,498.52,269.04,498.52z" fill="#3a3636" class="color873c1e svgShape"></path>
          </g>
        </g>
        <g fill="#000000" class="color000000 svgShape">
          <g fill="#000000" class="color000000 svgShape">
            <path d="M216.88,505.26c-8.18,0-11.74-4.03-14.34-6.97c-2.64-2.99-3.74-4.23-8.31-1.86
						c-12.56,6.52-20.36,7-27.79,1.72c-2.7-1.91-4.14-4.56-5.41-6.89c-2.29-4.2-3.55-6.51-10.71-3.74c-10.09,3.9-19.13,4-24.19,0.27
						c-2.16-1.6-4.65-4.7-4.24-10.42c0.89-12.48,20.42-36.93,21.25-37.97c0.69-0.86,1.95-1,2.81-0.31c0.86,0.69,1,1.95,0.31,2.81
						c-0.2,0.24-19.58,24.51-20.38,35.75c-0.23,3.18,0.63,5.44,2.63,6.92c3.83,2.83,11.83,2.53,20.37-0.78
						c10.43-4.04,13.33,1.28,15.66,5.56c1.12,2.05,2.27,4.17,4.22,5.54c6.08,4.32,12.49,3.77,23.64-2.01
						c7.34-3.81,10.42-0.32,13.15,2.76c2.44,2.76,4.97,5.62,11.34,5.62c1.43,0,2.65-0.58,3.74-1.79c6.5-7.22,5.45-32.47,4.5-41.59
						c-0.11-1.1,0.68-2.08,1.78-2.2c1.1-0.1,2.08,0.68,2.2,1.78c0.15,1.41,3.52,34.67-5.5,44.68
						C221.73,504.21,219.47,505.26,216.88,505.26z" fill="#3a3636" class="color873c1e svgShape"></path>
          </g>
        </g>
        <g fill="#000000" class="color000000 svgShape">
          <g fill="#000000" class="color000000 svgShape">
            <path d="M140.75,447.82c-0.15,0-0.3-0.02-0.46-0.05c-1.16-0.27-28.47-6.83-40.77-24.4
						c-12.68-18.11-0.1-35.59,0.03-35.76c0.37-0.5,0.94-0.79,1.55-0.81c0.63-0.03,1.2,0.25,1.6,0.72
						c0.35,0.42,8.88,10.37,23.28,6.95c15.2-3.61,35.01-20.83,35.21-21c0.83-0.73,2.09-0.64,2.82,0.19
						c0.73,0.83,0.64,2.09-0.19,2.82c-0.84,0.73-20.77,18.05-36.92,21.88c-12.85,3.05-21.71-3.06-25.39-6.37
						c-2.58,4.63-7.49,16.55,1.28,29.09c11.41,16.3,38.13,22.73,38.4,22.79c1.08,0.25,1.74,1.33,1.49,2.4
						C142.48,447.2,141.66,447.82,140.75,447.82z" fill="#3a3636" class="color873c1e svgShape"></path>
          </g>
        </g>
      </g>
      <g fill="#000000" class="color000000 svgShape">
        <g fill="#000000" class="color000000 svgShape">
          <g fill="#000000" class="color000000 svgShape">
            <path d="M434.6,270.5c-0.08,0-0.15,0-0.23-0.01c-0.68-0.08-1.27-0.5-1.57-1.11c-0.09-0.19-10.05-19.69-45.09-30.82
						c-35.44-11.26-53.32-9.05-53.49-9.02c-0.58,0.08-1.16-0.1-1.59-0.48s-0.68-0.94-0.68-1.51c0-0.13,0.09-13.11,0.38-26.1
						c0.61-27.12,1.39-27.81,2.29-28.61c0.43-0.38,1.07-0.59,1.64-0.52c1.55,0.03,19.41-1.25,40.75-7.51
						c19.37-5.68,45.92-16.85,62.44-37.83c0.37-0.47,0.94-0.75,1.54-0.76c0.63-0.02,1.18,0.25,1.56,0.71
						c0.77,0.92,18.91,23.02,15.9,70.84c-3.01,47.66-21.51,71.01-22.3,71.98C435.77,270.23,435.19,270.5,434.6,270.5z
						 M338.88,225.32c7.79,0,24.35,1.26,50.04,9.43c29.22,9.28,41.7,23.99,45.81,30.1c4.63-7.01,17.34-29.44,19.73-67.32
						c2.41-38.22-9.35-59.68-13.53-66.01c-17.39,20.66-43.95,31.69-63.48,37.34c-19.05,5.51-34.87,7.09-39.96,7.39
						c-0.86,5.82-1.38,31.69-1.52,49.15C336.73,225.35,337.71,225.32,338.88,225.32z M335.79,176.29c0.14,0.02,0.28,0.02,0.41,0.01
						C335.99,176.3,335.85,176.3,335.79,176.29z" fill="#3a3636" class="color873c1e svgShape"></path>
          </g>
        </g>
        <g fill="#000000" class="color000000 svgShape">
          <g fill="#000000" class="color000000 svgShape">
            <path d="M419.97,254.58c-0.53,0-1.05-0.21-1.44-0.61c-0.76-0.8-0.74-2.06,0.06-2.83
						c0.09-0.09,9.92-10.02,14.03-39.61c4.16-29.96-10.01-66.04-10.16-66.4c-0.41-1.03,0.09-2.19,1.12-2.6
						c1.03-0.41,2.19,0.09,2.6,1.12c0.6,1.51,14.71,37.41,10.4,68.43c-4.33,31.19-14.78,41.53-15.22,41.95
						C420.97,254.39,420.47,254.58,419.97,254.58z" fill="#3a3636" class="color873c1e svgShape"></path>
          </g>
        </g>
      </g>
      <g fill="#000000" class="color000000 svgShape">
        <g fill="#000000" class="color000000 svgShape">
          <g fill="#000000" class="color000000 svgShape">
            <path d="M347.19,411.11c-4.88,0-8.87-2.58-10.91-4.79c-0.4-0.43-0.59-1.01-0.52-1.59l6.37-55.68
						c0.13-1.1,1.11-1.89,2.21-1.76c1.1,0.13,1.89,1.12,1.76,2.21l-6.26,54.7c1.97,1.72,7.86,5.73,15.1-0.25l5.73-52.13
						c0.12-1.1,1.11-1.89,2.21-1.77c1.1,0.12,1.89,1.11,1.77,2.21l-5.82,52.92c-0.05,0.49-0.29,0.95-0.66,1.28
						C354.33,409.88,350.55,411.11,347.19,411.11z" fill="#3a3636" class="color873c1e svgShape"></path>
          </g>
        </g>
        <g fill="#000000" class="color000000 svgShape">
          <g fill="#000000" class="color000000 svgShape">
            <path d="M352.22,280.33c-0.08,0-0.15,0-0.23-0.01c-1.1-0.13-1.89-1.12-1.76-2.21l5.63-49.21
						c0.13-1.1,1.11-1.9,2.21-1.76c1.1,0.13,1.89,1.12,1.76,2.21l-5.63,49.21C354.09,279.58,353.23,280.33,352.22,280.33z" fill="#3a3636" class="color873c1e svgShape"></path>
          </g>
        </g>
        <g fill="#000000" class="color000000 svgShape">
          <g fill="#000000" class="color000000 svgShape">
            <path d="M364.9,169.48c-0.08,0-0.15,0-0.23-0.01c-1.1-0.13-1.89-1.12-1.76-2.21l1.55-13.56
						c0.05-0.45,0.25-0.87,0.57-1.19c7.89-7.9,19.96-0.6,20.47-0.29c0.66,0.41,1.02,1.15,0.94,1.92l-1.16,10.52
						c-0.12,1.1-1.11,1.89-2.21,1.77c-1.1-0.12-1.89-1.11-1.77-2.21l1.01-9.18c-2.62-1.3-9.42-4.04-13.96-0.16l-1.47,12.82
						C366.77,168.73,365.91,169.48,364.9,169.48z" fill="#3a3636" class="color873c1e svgShape"></path>
          </g>
        </g>
        <g fill="#000000" class="color000000 svgShape">
          <g fill="#000000" class="color000000 svgShape">
            <path d="M370.59,281.99c-0.07,0-0.15,0-0.22-0.01c-1.1-0.12-1.89-1.11-1.77-2.21l4.86-44.19
						c0.12-1.1,1.11-1.89,2.21-1.77c1.1,0.12,1.89,1.11,1.77,2.21l-4.86,44.19C372.46,281.23,371.6,281.99,370.59,281.99z" fill="#3a3636" class="color873c1e svgShape"></path>
          </g>
        </g>
        <g fill="#000000" class="color000000 svgShape">
          <g fill="#000000" class="color000000 svgShape">
            <path d="M340.41,366.37h-12.53c-1.1,0-2-0.9-2-2s0.9-2,2-2h12.53c1.1,0,2,0.9,2,2S341.52,366.37,340.41,366.37z" fill="#3a3636" class="color873c1e svgShape"></path>
          </g>
        </g>
      </g>
    </g>
    <g id="exp_00000160185033835097724230000014080960488042695611_" fill="#000000" class="color000000 svgShape">
      <g id="mouth_00000172421280572668609270000017752552129395804854_" fill="#000000" class="color000000 svgShape">
        <g fill="#000000" class="color000000 svgShape">
          <g fill="#000000" class="color000000 svgShape">
            <path d="M263.27,242.81c-0.59,4.8-3.39,16.7-16.54,23.61c-19.73,10.37-52.92,13.33-67.8,1.76
						c-13.17-10.24-14.98-23.83-14.11-26.53c0.68-0.02,1.86,0.16,2.92,0.32c4.13,0.63,10.38,1.58,17.52-2.21
						c0.08-0.04,0.15-0.09,0.22-0.14c0.15-0.1,15.1-10.33,31.69-9.14c10.21,0.74,16.62,2.68,21.78,4.23
						c3.72,1.13,6.94,2.1,10.6,2.39c5.35,0.42,8.06-1.07,10.04-2.17c1.33-0.73,1.9-1.01,2.81-0.84
						C262.91,234.74,263.91,237.68,263.27,242.81z" fill="#ffbf66" class="colorffa255 svgShape"></path>
          </g>
        </g>
        <g id="mouth_00000105424047506239757640000002306179791740161430_" fill="#000000" class="color000000 svgShape">
          <g fill="#000000" class="color000000 svgShape">
            <g fill="#000000" class="color000000 svgShape">
              <path d="M192.68,255.25c-6.78,0-11.54-3.92-11.76-4.11c-0.85-0.71-0.96-1.97-0.24-2.82
							c0.71-0.84,1.97-0.96,2.81-0.25c0.09,0.07,5.11,4.12,11.6,2.96c2.24-0.4,4.59-1.1,7.09-1.85c5.77-1.72,12.3-3.67,20.04-2.71
							c1.62,0.2,3.15,0.43,4.58,0.65c7.86,1.2,12.19,1.86,17.38-4.32c0.71-0.85,1.97-0.96,2.82-0.24c0.85,0.71,0.96,1.97,0.24,2.82
							c-6.64,7.9-13,6.93-21.05,5.7c-1.4-0.21-2.89-0.44-4.47-0.64c-6.9-0.86-12.75,0.89-18.4,2.58c-2.61,0.78-5.07,1.51-7.53,1.95
							C194.71,255.16,193.67,255.25,192.68,255.25z" fill="#3a3636" class="color873c1e svgShape"></path>
            </g>
          </g>
          <g fill="#000000" class="color000000 svgShape">
            <g fill="#000000" class="color000000 svgShape">
              <path d="M207.1,279.82c-11.99,0-23.22-2.52-30.71-8.35c-12.65-9.84-16.86-23.83-15.72-30.2
							c0.43-2.41,1.61-3.26,2.52-3.55c1.42-0.45,3.09-0.19,5.19,0.13c3.78,0.58,8.95,1.37,14.84-1.72
							c1.54-1.05,16.75-11.06,34.26-9.8c10.67,0.77,17.33,2.78,22.68,4.4c3.49,1.06,6.51,1.97,9.72,2.22
							c4.1,0.32,5.93-0.69,7.7-1.66c1.56-0.86,3.33-1.84,5.99-1.2c2.03,0.49,3.41,2.84,3.89,6.62c1.11,8.87-2.98,25.08-18.8,33.39
							C237.23,276.12,221.61,279.82,207.1,279.82z M164.71,241.49c-0.94,2.5,0.8,16.47,14.13,26.83c14.93,11.6,48.2,8.65,67.98-1.74
							c13.95-7.33,16.3-20.5,16.69-24.36c0.5-4.98-0.52-7.73-1-8.26c-1-0.2-1.58,0.07-2.98,0.85c-1.96,1.08-4.65,2.56-9.95,2.15
							c-3.64-0.29-6.85-1.26-10.56-2.38c-5.16-1.56-11.58-3.5-21.81-4.24c-16.66-1.19-31.65,9.06-31.8,9.17
							c-0.07,0.05-0.13,0.09-0.2,0.12c-7.1,3.76-13.31,2.82-17.42,2.19C166.65,241.64,165.4,241.44,164.71,241.49z M184.26,237.85
							L184.26,237.85L184.26,237.85z M262.45,233.91L262.45,233.91L262.45,233.91z" fill="#3a3636" class="color873c1e svgShape"></path>
            </g>
          </g>
        </g>
      </g>
      <g id="mata_00000051349416460609445990000006328083244126752171_" fill="#000000" class="color000000 svgShape">
        <g fill="#000000" class="color000000 svgShape">
          <g fill="#000000" class="color000000 svgShape">
            <path d="M156.12,223.83c-17.39,1.51-19.71-25.48-2.35-26.99C171.17,195.33,173.49,222.32,156.12,223.83z
						 M260.3,187.58c-17.36,1.51-15.05,28.5,2.35,26.99C280.01,213.06,277.69,186.07,260.3,187.58z M150.12,177.59
						c-0.01,0-0.01-0.01-0.02-0.01c0.02,0.01,0.07,0.04,0.17,0.09c-0.01-0.01-0.02-0.01-0.03-0.02
						C150.2,177.64,150.16,177.61,150.12,177.59z M153.87,178.82c-0.9,0.7-2.4,0.43-3.02-0.52c-0.07-0.1-0.14-0.21-0.22-0.31
						c-0.03-0.04-0.03-0.04-0.04-0.06c-0.1-0.09-0.21-0.18-0.3-0.25c-0.01-0.01-0.01-0.01-0.02-0.02c0.04,0.02,0.08,0.04,0.14,0.07
						c-0.05-0.03-0.11-0.06-0.16-0.09c-0.09-0.06-0.19-0.11-0.14-0.08c-0.11-0.06-0.23-0.1-0.35-0.15c-0.15-0.04-0.3-0.07-0.45-0.09
						c-0.18,0-0.37,0.02-0.55,0.05c-0.12,0.04-0.23,0.08-0.35,0.13c-0.15,0.09-0.29,0.17-0.43,0.28c-0.03,0.02-0.06,0.05-0.08,0.07
						c-0.03,0.04-0.06,0.08-0.09,0.11c-0.06,0.07-0.12,0.15-0.18,0.23c-0.1,0.21-0.21,0.41-0.29,0.64c0.05-0.14,0.09-0.28,0.14-0.42
						c-0.18,0.56-0.4,1-0.88,1.36c-0.46,0.36-1.08,0.44-1.64,0.36c-0.52-0.07-1.08-0.45-1.38-0.88c-0.29-0.4-0.52-1.15-0.36-1.64
						c0.24-0.75,0.49-1.31,0.92-1.97c0.32-0.49,0.73-0.88,1.17-1.26c0.87-0.75,1.99-1.19,3.12-1.36c2.27-0.34,4.72,0.84,5.96,2.74
						C155.05,176.82,154.82,178.08,153.87,178.82z M266.33,169.02c-0.89,0.69-2.41,0.44-3.02-0.52c-0.12-0.19-0.25-0.37-0.39-0.55
						c-0.05-0.05-0.1-0.1-0.15-0.14c-0.15-0.13-0.31-0.25-0.47-0.38c-0.08-0.04-0.16-0.09-0.25-0.14c-0.18-0.09-0.36-0.16-0.54-0.24
						c-0.07-0.02-0.14-0.04-0.21-0.05c-0.19-0.04-0.39-0.06-0.58-0.09c-0.06,0-0.13,0-0.19,0c-0.19,0.01-0.4,0.06-0.59,0.07
						c-0.08,0.02-0.16,0.05-0.24,0.08c-0.07,0.02-0.44,0.2-0.53,0.22c0.1-0.04,0.35-0.21,0.1-0.06c-0.03,0.02-0.07,0.04-0.1,0.06
						c-0.01,0-0.03,0.01-0.04,0.01c0,0,0.02,0,0.04-0.01c-0.06,0.04-0.13,0.08-0.19,0.12c-0.16,0.11-0.32,0.23-0.47,0.35
						c-0.07,0.07-0.14,0.14-0.2,0.21c-0.11,0.13-0.21,0.27-0.32,0.41c-0.04,0.09-0.09,0.17-0.14,0.26c-0.54,1.08-1.78,1.5-2.89,1.03
						c-1.06-0.45-1.54-1.87-1.03-2.89c1.17-2.34,3.58-4.05,6.22-4.19c2.62-0.13,5.27,1.16,6.69,3.39
						C267.5,167.02,267.29,168.27,266.33,169.02z M259.17,167.3L259.17,167.3L259.17,167.3z" fill="#3a3636" class="color873c1e svgShape"></path>
          </g>
        </g>
        <g fill="#000000" class="color000000 svgShape">
          <g fill="#000000" class="color000000 svgShape">
            <path d="M262.39,199.56c-4.87,0.42-5.52-7.13-0.66-7.56C266.6,191.58,267.25,199.13,262.39,199.56z M154.52,201.32
						c-4.86,0.42-4.21,7.98,0.66,7.56C160.04,208.46,159.39,200.9,154.52,201.32z" fill="#ffffff" class="colorffffff svgShape"></path>
          </g>
        </g>
      </g>
    </g>
    <g id="garis_00000097463670567796307720000015073498429920926100_" fill="#000000" class="color000000 svgShape">
      <g fill="#000000" class="color000000 svgShape">
        <g fill="#000000" class="color000000 svgShape">
          <g fill="#000000" class="color000000 svgShape">
            <path d="M395.36,240.59c-0.71,0-1.37-0.38-1.73-0.99c-1.59-2.24-31.48-39.41-51.33-64.04
						c-0.69-0.86-0.56-2.12,0.3-2.81c0.86-0.69,2.12-0.56,2.81,0.3c51.62,64.03,51.74,64.47,51.88,65.04
						c0.28,1.07-0.37,2.16-1.44,2.44C395.69,240.57,395.53,240.59,395.36,240.59z" fill="#3a3636" class="color873c1e svgShape"></path>
          </g>
        </g>
        <g fill="#000000" class="color000000 svgShape">
          <g fill="#000000" class="color000000 svgShape">
            <path d="M340.44,229.35c-0.17,0-0.35-0.02-0.52-0.07c-1.07-0.29-1.7-1.38-1.41-2.45
						c0.73-2.73,35.86-43.9,56.73-68.2c0.72-0.84,1.98-0.93,2.82-0.21c0.84,0.72,0.93,1.98,0.21,2.82
						c-21.52,25.05-54.08,63.4-55.97,66.83C342.01,228.85,341.26,229.35,340.44,229.35z M342.37,227.87
						C342.37,227.87,342.37,227.87,342.37,227.87C342.37,227.87,342.37,227.87,342.37,227.87z" fill="#3a3636" class="color873c1e svgShape"></path>
          </g>
        </g>
        <g fill="#000000" class="color000000 svgShape">
          <g fill="#000000" class="color000000 svgShape">
            <path d="M231.83,372.37c-0.61,0-1.22-0.28-1.61-0.81c-0.66-0.89-0.47-2.14,0.42-2.8
						c15.11-11.2,31.62-23.9,37.09-28.83l-53.54-15.23c-1.06-0.3-1.68-1.41-1.38-2.47c0.3-1.06,1.41-1.68,2.47-1.38l56.57,16.1
						c0.71,0.2,1.24,0.77,1.4,1.49c0.36,1.63,0.55,2.44-20.31,18.49c-9.82,7.56-19.83,14.97-19.93,15.05
						C232.67,372.24,232.25,372.37,231.83,372.37z" fill="#3a3636" class="color873c1e svgShape"></path>
          </g>
        </g>
        <g fill="#000000" class="color000000 svgShape">
          <g fill="#000000" class="color000000 svgShape">
            <path d="M273.45,367.17c-0.21,0-0.43-0.04-0.65-0.11l-46.35-15.89c-0.69-0.23-1.19-0.82-1.32-1.54
						s0.14-1.44,0.7-1.9l46.35-38.06c0.85-0.7,2.11-0.58,2.81,0.28c0.7,0.85,0.58,2.11-0.28,2.82l-43.58,35.78l42.96,14.73
						c1.04,0.36,1.6,1.5,1.24,2.54C275.06,366.65,274.28,367.17,273.45,367.17z" fill="#3a3636" class="color873c1e svgShape"></path>
          </g>
        </g>
      </g>
      <g fill="#000000" class="color000000 svgShape">
        <g fill="#000000" class="color000000 svgShape">
          <g fill="#000000" class="color000000 svgShape">
            <path d="M271.14,37.51c-2.02,0-3.32-0.35-3.37-0.37c-1.06-0.31-1.67-1.41-1.37-2.47c0.3-1.06,1.41-1.67,2.46-1.37
						c0.44,0.12,10.2,2.6,16.77-10.38c0.5-0.99,1.7-1.38,2.69-0.88c0.99,0.5,1.38,1.7,0.88,2.69
						C283.61,35.77,275.62,37.51,271.14,37.51z" fill="#3a3636" class="color873c1e svgShape"></path>
          </g>
        </g>
        <g fill="#000000" class="color000000 svgShape">
          <g fill="#000000" class="color000000 svgShape">
            <path d="M273.97,53.5c-3.08,0-5-0.44-5.24-0.49c-1.07-0.26-1.74-1.34-1.48-2.41c0.26-1.07,1.33-1.73,2.41-1.48
						c0.65,0.15,15.84,3.46,31.4-12.14c0.78-0.78,2.05-0.79,2.83,0c0.78,0.78,0.78,2.05,0,2.83
						C292.19,51.53,280.49,53.5,273.97,53.5z" fill="#3a3636" class="color873c1e svgShape"></path>
          </g>
        </g>
        <g fill="#000000" class="color000000 svgShape">
          <g fill="#000000" class="color000000 svgShape">
            <path d="M293.57,69.86c-0.86,0-1.39-0.06-1.49-0.07c-1.1-0.13-1.88-1.12-1.76-2.22c0.13-1.1,1.12-1.88,2.21-1.76
						c0.49,0.05,11.59,1.1,19.11-10.52c0.6-0.93,1.84-1.19,2.77-0.59c0.93,0.6,1.19,1.84,0.59,2.77
						C307.71,68.73,297.41,69.86,293.57,69.86z" fill="#3a3636" class="color873c1e svgShape"></path>
          </g>
        </g>
        <g fill="#000000" class="color000000 svgShape">
          <g fill="#000000" class="color000000 svgShape">
            <path d="M88.63,54.45c-9.65,0-15.45-6.39-15.75-6.72c-0.73-0.83-0.66-2.09,0.17-2.82
						c0.82-0.73,2.09-0.66,2.82,0.16c0.3,0.34,7.28,7.89,18.49,4.5c1.06-0.32,2.17,0.28,2.49,1.34c0.32,1.06-0.28,2.17-1.34,2.49
						C93.05,54.14,90.74,54.45,88.63,54.45z" fill="#3a3636" class="color873c1e svgShape"></path>
          </g>
        </g>
        <g fill="#000000" class="color000000 svgShape">
          <g fill="#000000" class="color000000 svgShape">
            <path d="M82.15,73.1c-10.45,0-17.21-4.26-17.61-4.52c-0.93-0.6-1.19-1.84-0.59-2.77c0.6-0.93,1.84-1.19,2.76-0.6
						c0.54,0.34,12.92,8.03,30.16,0.79c1.02-0.43,2.19,0.05,2.62,1.07c0.43,1.02-0.05,2.19-1.07,2.62
						C92.4,72.23,86.89,73.1,82.15,73.1z" fill="#3a3636" class="color873c1e svgShape"></path>
          </g>
        </g>
        <g fill="#000000" class="color000000 svgShape">
          <g fill="#000000" class="color000000 svgShape">
            <path d="M81.55,96.84c-10.12,0-18.64-3.35-19.24-3.6c-1.02-0.41-1.52-1.58-1.11-2.6c0.41-1.02,1.58-1.52,2.6-1.11
						c0.23,0.09,23.43,9.19,37.31-3.5c0.81-0.75,2.08-0.69,2.83,0.13c0.75,0.82,0.69,2.08-0.13,2.83
						C97.16,95.06,88.93,96.84,81.55,96.84z" fill="#3a3636" class="color873c1e svgShape"></path>
          </g>
        </g>
      </g>
      <g fill="#000000" class="color000000 svgShape">
        <g fill="#000000" class="color000000 svgShape">
          <path d="M227.63,154.12c0,6.38-5.17,11.55-11.55,11.55c-6.38,0-11.55-5.17-11.55-11.55s5.17-11.55,11.55-11.55
					C222.45,142.57,227.63,147.74,227.63,154.12z M268.33,141.01c-5.45,0-9.86,4.41-9.86,9.86c0,5.45,4.41,9.86,9.86,9.86
					c5.45,0,9.86-4.41,9.86-9.86C278.19,145.43,273.77,141.01,268.33,141.01z M159.45,153.3c-5.45,0-9.86,4.41-9.86,9.86
					c0,5.45,4.41,9.86,9.86,9.86c5.45,0,9.86-4.41,9.86-9.86C169.31,157.71,164.9,153.3,159.45,153.3z M302.82,146.73
					c-4.08,0-7.39,3.31-7.39,7.39s3.31,7.39,7.39,7.39s7.39-3.31,7.39-7.39S306.9,146.73,302.82,146.73z M113.07,173.02
					c-4.08,0-7.39,3.31-7.39,7.39s3.31,7.39,7.39,7.39s7.39-3.31,7.39-7.39S117.15,173.02,113.07,173.02z" fill="#eaeaea" class="coloreaeaea svgShape"></path>
        </g>
        <g fill="#000000" class="color000000 svgShape">
          <path d="M113.07,189.81c-5.18,0-9.39-4.21-9.39-9.4s4.21-9.39,9.39-9.39c5.18,0,9.4,4.21,9.4,9.39
					S118.25,189.81,113.07,189.81z M113.07,175.02c-2.97,0-5.39,2.42-5.39,5.39s2.42,5.4,5.39,5.4s5.4-2.42,5.4-5.4
					S116.04,175.02,113.07,175.02z M159.45,175.02c-6.54,0-11.86-5.32-11.86-11.86s5.32-11.86,11.86-11.86
					c6.54,0,11.86,5.32,11.86,11.86S165.99,175.02,159.45,175.02z M159.45,155.3c-4.33,0-7.86,3.53-7.86,7.86s3.53,7.86,7.86,7.86
					c4.33,0,7.86-3.53,7.86-7.86S163.79,155.3,159.45,155.3z M216.07,167.68c-7.47,0-13.55-6.08-13.55-13.55s6.08-13.55,13.55-13.55
					s13.55,6.08,13.55,13.55S223.55,167.68,216.07,167.68z M216.07,144.57c-5.27,0-9.55,4.29-9.55,9.55s4.29,9.55,9.55,9.55
					s9.55-4.29,9.55-9.55S221.34,144.57,216.07,144.57z M302.82,163.52c-5.18,0-9.4-4.21-9.4-9.4c0-5.18,4.21-9.39,9.4-9.39
					c5.18,0,9.39,4.21,9.39,9.39C312.21,159.3,308,163.52,302.82,163.52z M302.82,148.73c-2.97,0-5.4,2.42-5.4,5.39
					s2.42,5.4,5.4,5.4s5.39-2.42,5.39-5.4S305.79,148.73,302.82,148.73z M268.33,162.73c-6.54,0-11.86-5.32-11.86-11.86
					s5.32-11.86,11.86-11.86c6.54,0,11.86,5.32,11.86,11.86S274.87,162.73,268.33,162.73z M268.33,143.01
					c-4.33,0-7.86,3.53-7.86,7.86s3.53,7.86,7.86,7.86c4.33,0,7.86-3.53,7.86-7.86S272.66,143.01,268.33,143.01z" fill="#3a3636" class="color873c1e svgShape"></path>
        </g>
      </g>
    </g>
  </g>
</svg>
