<svg xmlns="http://www.w3.org/2000/svg" xml:space="preserve" viewBox="0 0 512 512" enable-background="new 0 0 512 512" id="notebook">
  <g id="_x32_9_x2C__Notebook_x2C__Pages_x2C__Notes_x2C__Spiral_x2C__School_x2C__Writing" fill="#3a3636" class="color000000 svgShape">
    <g fill="#3a3636" class="color000000 svgShape">
      <path d="M494.588,167.34c11.89,11.9,11.89,31.19,0,43.09l-16.587,16.577L450.608,208.6l-15.622-24.758
			l16.502-16.502C463.388,155.44,482.688,155.44,494.588,167.34z" fill="#ff8066" class="color9dcafc svgShape"></path>
      <polygon points="418.802 200.027 400.658 218.17 416.008 245 443.748 261.26 461.946 243.062 444.675 218.17" fill="#ffbf66" class="colorffffff svgShape"></polygon>
      <path d="M28.508,46.23c0-7.03,5.7-12.73,12.73-12.73h44.54c7.03,0,12.73,5.7,12.73,12.73v419.54
			c0,7.03-5.7,12.73-12.73,12.73h-44.54c-7.03,0-12.73-5.7-12.73-12.73C28.508,412.033,28.508,98.281,28.508,46.23z" fill="#ff8066" class="color9dcafc svgShape"></path>
      <path d="M319.708,43.5h-221.2c0,18.813,0,406.852,0,425h221.2c15.91,0,28.8-12.89,28.8-28.8V72.3
			C348.508,56.39,335.618,43.5,319.708,43.5z" fill="#ffbf66" class="colorffffff svgShape"></path>
      <circle cx="58.508" cy="118.5" r="10" fill="#ffbf66" class="colorffffff svgShape"></circle>
      <circle cx="58.508" cy="193.5" r="10" fill="#ffbf66" class="colorffffff svgShape"></circle>
      <circle cx="58.508" cy="268.5" r="10" fill="#ffbf66" class="colorffffff svgShape"></circle>
      <circle cx="58.508" cy="343.5" r="10" fill="#ffbf66" class="colorffffff svgShape"></circle>
      <circle cx="58.508" cy="418.5" r="10" fill="#ffbf66" class="colorffffff svgShape"></circle>
      <path d="M308.508,109.9v37.2c0,6.3-5.1,11.4-11.4,11.4h-147.2c-6.3,0-11.4-5.1-11.4-11.4v-37.2
			c0-6.3,5.1-11.4,11.4-11.4h147.2C303.408,98.5,308.508,103.6,308.508,109.9z" fill="#ff8066" class="color9dcafc svgShape"></path>
      <polygon points="261.608 420.41 227.088 434.83 241.508 400.31 254.208 405.2" fill="#ffbf66" class="colorffffff svgShape"></polygon>
      <polygon points="415.018 232.53 342.808 296.69 272.349 375.21 286.708 389.57 365.228 316.2 429.388 246.9" fill="#ffbf66" class="colorffffff svgShape"></polygon>
      <path d="m429.388 246.9-142.68 142.67 14.37 14.36c8.469-8.469 134.849-134.849 142.67-142.67L429.388 246.9zM400.658 218.17c-4.286 4.286-138.912 138.912-142.67 142.67l14.36 14.37 142.67-142.68L400.658 218.17z" fill="#ff8066" class="color9dcafc svgShape"></path>
      <path d="M475.348 222.96c4.83 4.82 4.83 12.65 0 17.47-4.823 4.823-12.64 4.83-17.47 0l-36.39-36.39c-4.83-4.82-4.83-12.65 0-17.47 4.823-4.823 12.64-4.83 17.47 0L475.348 222.96zM286.708 389.57c9.12-1.18 15.55 5.25 14.37 14.36l-.01.01-39.46 16.47-20.1-20.1 16.47-39.46.01-.01c9.11-1.18 15.54 5.25 14.36 14.37C281.458 374.02 287.898 380.46 286.708 389.57z" fill="#ffbf66" class="colorffffff svgShape"></path>
      <path d="M300.434,408.894c-2.739-0.355-4.671-2.863-4.316-5.602c0.767-5.908-2.959-9.523-8.762-8.763
			c-2.737,0.35-5.246-1.578-5.602-4.316c-1.41-10.89,27.076-7.204,24.281,14.364C305.709,407.098,303.244,409.246,300.434,408.894z" fill="#a74242" class="color4269a7 svgShape"></path>
      <path d="M284.507,394.057c-1.92-0.944-3.026-3.006-2.752-5.129c0.762-5.866-2.921-9.529-8.763-8.763
			c-2.741,0.346-5.246-1.578-5.602-4.316c-0.354-2.739,1.578-5.246,4.316-5.602c7.607-0.988,14.88,2.19,18.267,8.992
			l135.878-135.878c1.951-1.953,5.119-1.953,7.07,0c1.953,1.952,1.953,5.118,0,7.07C285.939,396.63,289.726,396.623,284.507,394.057
			z" fill="#a74242" class="color4269a7 svgShape"></path>
      <path d="M267.39,374.563c0.763-5.877-2.932-9.526-8.763-8.763c-2.733,0.342-5.246-1.578-5.602-4.316
			c-0.354-2.739,1.578-5.246,4.316-5.602c7.643-0.987,14.891,2.212,18.267,8.992l135.879-135.878c1.951-1.953,5.119-1.953,7.07,0
			c1.953,1.952,1.953,5.118,0,7.07L275.884,378.741C272.523,382.106,266.78,379.286,267.39,374.563z" fill="#a74242" class="color4269a7 svgShape"></path>
      <path d="M222.478,432.899c32.735-78.064,30.638-74.259,31.962-75.583L414.6,197.157
			c1.951-1.953,5.119-1.953,7.07,0l43.092,43.092c1.953,1.952,1.953,5.118,0,7.07c-170.699,170.509-160.044,160.52-161.769,161.238
			l-73.976,30.883C224.909,441.156,220.759,437.017,222.478,432.899z M262.209,363.688l-25.814,61.837l61.836-25.815
			l155.926-155.926l-36.021-36.021L262.209,363.688z" fill="#a74242" class="color4269a7 svgShape"></path>
      <path d="m454.341 243.968-36.389-36.389c-3.279-3.278-5.084-7.637-5.084-12.273 0-15.275 18.615-23.291 29.63-12.273l36.39 36.389c6.767 6.768 6.767 17.779.001 24.547C472.107 250.749 461.125 250.754 454.341 243.968zM425.023 190.103c-2.869 2.869-2.869 7.537-.001 10.406l36.389 36.389c2.869 2.867 7.537 2.867 10.406 0 2.868-2.869 2.868-7.537-.001-10.406l-36.389-36.389h-.001C432.555 187.229 427.897 187.227 425.023 190.103zM258.081 423.951l-20.113-20.113c-1.953-1.952-1.953-5.118 0-7.07 1.951-1.953 5.119-1.953 7.07 0l20.113 20.113c1.953 1.952 1.953 5.118 0 7.07C263.2 425.904 260.032 425.904 258.081 423.951z" fill="#a74242" class="color4269a7 svgShape"></path>
      <path d="M475.169 229.843c-44.598-45.342-44.558-42.842-44.558-46.627 0-3.608 2.168-3.587 17.346-19.416 13.86-13.862 36.299-13.865 50.162 0 0 0 0 0 .001 0 13.829 13.83 13.829 36.334-.001 50.163l-15.88 15.88C480.288 231.796 477.12 231.796 475.169 229.843zM442.682 183.216l36.021 36.021 12.345-12.344c9.954-9.956 9.955-26.065 0-36.021v-.001c-9.956-9.954-26.065-9.955-36.021 0L442.682 183.216zM440.216 264.796l-43.092-43.093c-1.953-1.952-1.953-5.118 0-7.07 1.951-1.953 5.119-1.953 7.07 0l43.092 43.093c1.953 1.952 1.953 5.118 0 7.07C445.335 266.749 442.167 266.749 440.216 264.796zM85.775 483.5H41.242c-9.778 0-17.733-7.955-17.733-17.733V46.233c0-9.778 7.955-17.733 17.733-17.733h44.533c9.778 0 17.733 7.955 17.733 17.733v419.533C103.508 475.545 95.553 483.5 85.775 483.5zM41.242 38.5c-4.265 0-7.733 3.469-7.733 7.733v419.533c0 4.265 3.469 7.733 7.733 7.733h44.533c4.265 0 7.733-3.469 7.733-7.733V46.233c0-4.265-3.469-7.733-7.733-7.733H41.242z" fill="#a74242" class="color4269a7 svgShape"></path>
      <path d="M319.709,473.5h-221.2c-2.762,0-5-2.238-5-5v-425c0-2.762,2.238-5,5-5h221.2
			c18.638,0,33.8,15.162,33.8,33.8V270.32c0,2.762-2.238,5-5,5s-5-2.238-5-5V72.3c0-13.123-10.677-23.8-23.8-23.8h-216.2v415h216.2
			c13.123,0,23.8-10.677,23.8-23.8v-83.2c0-2.762,2.238-5,5-5s5,2.238,5,5v83.2C353.508,458.338,338.346,473.5,319.709,473.5z" fill="#a74242" class="color4269a7 svgShape"></path>
      <path d="M297.108 163.5H149.909c-9.043 0-16.4-7.357-16.4-16.4V109.9c0-9.043 7.357-16.4 16.4-16.4h147.199c9.043 0 16.4 7.357 16.4 16.4V147.1C313.508 156.143 306.151 163.5 297.108 163.5zM149.909 103.5c-3.529 0-6.4 2.871-6.4 6.4V147.1c0 3.529 2.871 6.4 6.4 6.4h147.199c3.529 0 6.4-2.871 6.4-6.4V109.9c0-3.529-2.871-6.4-6.4-6.4H149.909zM308.508 188.5h-170c-2.762 0-5-2.238-5-5s2.238-5 5-5h170c2.762 0 5 2.238 5 5S311.27 188.5 308.508 188.5zM308.508 263.5h-170c-2.762 0-5-2.238-5-5s2.238-5 5-5h170c2.762 0 5 2.238 5 5S311.27 263.5 308.508 263.5zM308.508 213.5h-115c-2.762 0-5-2.238-5-5s2.238-5 5-5h115c2.762 0 5 2.238 5 5S311.27 213.5 308.508 213.5zM168.508 213.5h-30c-2.762 0-5-2.238-5-5s2.238-5 5-5h30c2.762 0 5 2.238 5 5S171.27 213.5 168.508 213.5zM308.508 238.5h-50c-2.762 0-5-2.238-5-5s2.238-5 5-5h50c2.762 0 5 2.238 5 5S311.27 238.5 308.508 238.5zM233.508 238.5h-95c-2.762 0-5-2.238-5-5s2.238-5 5-5h95c2.762 0 5 2.238 5 5S236.27 238.5 233.508 238.5zM248.508 288.5h-110c-2.762 0-5-2.238-5-5s2.238-5 5-5h110c2.762 0 5 2.238 5 5S251.27 288.5 248.508 288.5zM27.512 137.899C13.603 135.071 3.508 122.707 3.508 108.5c0-16.268 13.211-30 30-30 16.542 0 30 13.458 30 30 0 2.762-2.238 5-5 5s-5-2.238-5-5c0-11.028-8.972-20-20-20-11.225 0-20 9.178-20 20 0 9.473 6.728 17.716 15.996 19.601 2.706.55 4.454 3.189 3.903 5.896C32.862 136.683 30.237 138.454 27.512 137.899zM27.512 212.899C13.603 210.071 3.508 197.707 3.508 183.5c0-16.268 13.211-30 30-30 16.542 0 30 13.458 30 30 0 2.762-2.238 5-5 5s-5-2.238-5-5c0-12.583-11.571-22.13-24.002-19.601-9.271 1.885-15.998 10.128-15.998 19.601s6.728 17.716 15.996 19.601c2.706.55 4.454 3.189 3.903 5.896C32.862 211.683 30.237 213.454 27.512 212.899zM27.512 287.899C13.603 285.071 3.508 272.707 3.508 258.5s10.095-26.571 24.004-29.399c18.635-3.8 35.996 10.526 35.996 29.399 0 2.762-2.238 5-5 5s-5-2.238-5-5c0-11.028-8.972-20-20-20-11.225 0-20 9.178-20 20 0 9.473 6.728 17.716 15.996 19.601 2.706.55 4.454 3.189 3.903 5.896C32.862 286.683 30.237 288.454 27.512 287.899zM27.512 362.899C13.603 360.071 3.508 347.707 3.508 333.5s10.095-26.571 24.004-29.399c18.635-3.8 35.996 10.526 35.996 29.399 0 2.762-2.238 5-5 5s-5-2.238-5-5c0-11.028-8.972-20-20-20-11.225 0-20 9.178-20 20 0 9.473 6.728 17.716 15.996 19.601 2.706.55 4.454 3.189 3.903 5.896C32.862 361.683 30.237 363.454 27.512 362.899zM27.512 437.899C13.603 435.071 3.508 422.707 3.508 408.5c0-16.268 13.211-30 30-30 16.542 0 30 13.458 30 30 0 2.762-2.238 5-5 5s-5-2.238-5-5c0-11.028-8.972-20-20-20-11.225 0-20 9.178-20 20 0 9.473 6.728 17.716 15.996 19.601 2.706.55 4.454 3.189 3.903 5.896C32.862 436.683 30.237 438.454 27.512 437.899zM203.508 443.5h-70c-2.762 0-5-2.238-5-5s2.238-5 5-5h70c2.762 0 5 2.238 5 5S206.27 443.5 203.508 443.5z" fill="#a74242" class="color4269a7 svgShape"></path>
      <path d="M58.508 433.5c-8.271 0-15-6.729-15-15s6.729-15 15-15 15 6.729 15 15S66.78 433.5 58.508 433.5zM58.508 413.5c-2.757 0-5 2.243-5 5s2.243 5 5 5 5-2.243 5-5S61.265 413.5 58.508 413.5zM58.508 358.5c-8.271 0-15-6.729-15-15s6.729-15 15-15 15 6.729 15 15S66.78 358.5 58.508 358.5zM58.508 338.5c-2.757 0-5 2.243-5 5s2.243 5 5 5 5-2.243 5-5S61.265 338.5 58.508 338.5zM58.508 283.5c-8.271 0-15-6.729-15-15s6.729-15 15-15 15 6.729 15 15S66.78 283.5 58.508 283.5zM58.508 263.5c-2.757 0-5 2.243-5 5s2.243 5 5 5 5-2.243 5-5S61.265 263.5 58.508 263.5zM58.508 208.5c-8.271 0-15-6.729-15-15s6.729-15 15-15 15 6.729 15 15S66.78 208.5 58.508 208.5zM58.508 188.5c-2.757 0-5 2.243-5 5s2.243 5 5 5 5-2.243 5-5S61.265 188.5 58.508 188.5zM58.508 133.5c-8.271 0-15-6.729-15-15s6.729-15 15-15 15 6.729 15 15S66.78 133.5 58.508 133.5zM58.508 113.5c-2.757 0-5 2.243-5 5s2.243 5 5 5 5-2.243 5-5S61.265 113.5 58.508 113.5z" fill="#a74242" class="color4269a7 svgShape"></path>
    </g>
  </g>
</svg>
