<svg xmlns="http://www.w3.org/2000/svg" viewBox="0 0 512 512" id="medieval-book">
  <path fill="#fed947" d="M22.29 445.5v-408a30 30 0 0 1 30-30h314a30 30 0 0 1 30 30v422"></path>
  <path fill="#fecc30" d="M366.29 7.5h-314a30 30 0 0 0-27.35 17.66 29.94 29.94 0 0 1 12.35-2.66h324a20 20 0 0 1 20 20v416.44l15 .56v-422a30 30 0 0 0-30-30Z"></path>
  <path fill="#e1e1e3" d="M59.79 407.5h336.5v75H59.79a37.5 37.5 0 0 1-37.5-37.5 37.5 37.5 0 0 1 37.5-37.5Z"></path>
  <path fill="#dadadc" d="M381.29 407.5h15v75h-15z"></path>
  <path fill="#eb304a" d="m144.79 504.5-30.5-20-30.5 20v-61h61v61z"></path>
  <path fill="#e4222e" d="M129.79 443.5v51.16l15 9.84v-61h-15z"></path>
  <path fill="#eb304a" d="m210.2 205.84 18.2-18.2v-37.32h36.41l18.19-18.2-18.19-18.2H228.4V76.6l-18.2-18.19-18.21 18.19v37.32h-38.22l-18.2 18.2 18.2 18.2h38.22v37.32l18.21 18.2z"></path>
  <path fill="#e4222e" d="M264.8 113.92h-36.4V76.6l-18.2-18.2-13.08 13.07 16.93 16.93v26.71a10.62 10.62 0 0 0 10.62 10.61h25.79l18.19 18.2-6.39 6.4h2.54l18.2-18.2Z"></path>
  <path fill="#aeadb3" d="M171.39 451H57.19a7.5 7.5 0 0 1 0-15h114.2a7.5 7.5 0 0 1 0 15Z"></path>
  <path fill="#e1e1e3" d="m467.18 148.51-1.6-3.48-3.69 1c-17.66 4.93-32 15.07-40.31 28.57L322.65 335c-11.53 18.7-9.09 43.05 6.54 65.14a25.22 25.22 0 0 0 2.56 3l1.33 1.36H335l12.89 7.15.81.12a26.57 26.57 0 0 0 3.85.29c.52 0 1 0 1.55-.05 27-1.7 47.5-15.08 54.81-35.8l3.15-8.94-11-24a3 3 0 0 1 1.93-4.15l21.1-5.82.79-2.21 36.26-102.67 10.07-28.52c5.47-15.64 4.06-33.9-4.03-51.39Z"></path>
  <path d="M121.79 332.18h175a7.5 7.5 0 0 0 0-15h-175a7.5 7.5 0 0 0 0 15Z"></path>
  <path d="M59.79 490h16.5v14.5a7.49 7.49 0 0 0 11.61 6.27l26.39-17.3 26.38 17.3a7.5 7.5 0 0 0 11.62-6.27V490h140.87l-5.39 11.26a7.5 7.5 0 0 0 13.53 6.48l8.49-17.74h86.5a7.5 7.5 0 0 0 7.5-7.5v-78.72a7.88 7.88 0 0 0-.09-1.09 58.24 58.24 0 0 0 15.09-23l3.56-10.09c0-.07 0-.15.07-.23l.13-.43c0-.11 0-.22.07-.33s.05-.26.07-.39 0-.23 0-.35v-1.85l-.06-.33c0-.13-.05-.26-.08-.39s-.07-.22-.1-.33-.07-.25-.11-.37l-.15-.36-.11-.27-7.85-17.1 14.1-3.89.25-.08.4-.14.37-.15.29-.13.39-.22.24-.13.38-.25.23-.17.32-.26.24-.21c.1-.09.18-.18.27-.27l.25-.26.22-.27.24-.31c.06-.09.13-.18.19-.28a3.62 3.62 0 0 0 .2-.33 2.68 2.68 0 0 0 .18-.33 3 3 0 0 0 .16-.31l.18-.44a1.67 1.67 0 0 0 .08-.2v-.1Q452.24 285 471 231.91l10.08-28.53c7.08-20.08 4.55-43.1-7.13-64.84a11 11 0 0 0-.57-1 7.5 7.5 0 0 0-7.82-3.19l-.91.19c-22.85 5-41.32 17.25-52 34.56l-8.85 14.35V37.5A37.55 37.55 0 0 0 366.29 0h-314a37.54 37.54 0 0 0-37.5 37.5v408.51a45 45 0 0 0 45 43.99Zm77.5.61-18.89-12.38a7.5 7.5 0 0 0-8.23 0l-18.88 12.38V451h46ZM388.79 475H317l25.74-53.8a37.71 37.71 0 0 0 9.87 1.36c.72 0 1.45 0 2.17-.07a84.28 84.28 0 0 0 34.05-9.2Zm36.62-298c7.8-12.64 21.07-22 37.69-26.61 7.61 16.49 9 33.36 3.82 48l-10.07 28.52-36.27 102.67-18.84 5.2a7.5 7.5 0 0 0-4.82 10.36l10.27 22.35-2.55 7.22c-6.69 19-25.7 31.23-50.84 32.81a21.57 21.57 0 0 1-4.46-.2l82-171.44a7.5 7.5 0 0 0-13.53-6.47L336.21 400H335a20 20 0 0 1-2.12-2.5c-14.55-20.57-16.93-43.07-6.38-60.18ZM29.79 37.5A22.52 22.52 0 0 1 52.29 15h314a22.53 22.53 0 0 1 22.5 22.5v170.28l-46 74.54a7.15 7.15 0 0 0-1.4-.14H77.19a7.5 7.5 0 0 0 0 15h256.43l-19.9 32.26c-12.52 20.3-11.28 46.79 2.89 70.56H59.79a44.8 44.8 0 0 0-30 11.49Zm30 377.5H329l-28.7 60h-148v-24h19.1a7.5 7.5 0 0 0 0-15H57.19a7.5 7.5 0 0 0 0 15h19.1v24h-16.5a30 30 0 0 1 0-60Z"></path>
  <path d="M148.46 155.62a7.51 7.51 0 0 0 5.31 2.2h30.72v29.82a7.47 7.47 0 0 0 2.2 5.3l18.21 18.2a7.52 7.52 0 0 0 10.61 0l18.19-18.2a7.47 7.47 0 0 0 2.2-5.3v-29.82h28.9a7.51 7.51 0 0 0 5.31-2.2l18.19-18.2a7.49 7.49 0 0 0 0-10.6l-18.19-18.2a7.51 7.51 0 0 0-5.31-2.2h-28.9V76.6a7.49 7.49 0 0 0-2.2-5.3l-18.19-18.2a7.5 7.5 0 0 0-10.61 0l-18.21 18.2a7.47 7.47 0 0 0-2.2 5.3v29.82h-30.72a7.51 7.51 0 0 0-5.31 2.2l-18.19 18.2a7.49 7.49 0 0 0 0 10.6zm8.41-34.2H192a7.49 7.49 0 0 0 7.5-7.5V79.71L210.2 69l10.7 10.7v34.21a7.5 7.5 0 0 0 7.5 7.5h33.3l10.69 10.7-10.69 10.7h-33.3a7.5 7.5 0 0 0-7.5 7.5v34.21l-10.7 10.7-10.71-10.7v-34.2a7.49 7.49 0 0 0-7.5-7.5h-35.12l-10.69-10.7zM77.19 262.18h264.2a7.5 7.5 0 0 0 0-15H77.19a7.5 7.5 0 0 0 0 15z"></path>
</svg>
