<svg xmlns="http://www.w3.org/2000/svg" xml:space="preserve" id="notebook" x="0" y="0" version="1.1" viewBox="0 0 512 512" enable-background="new 0 0 512 512">
  <g fill="#ff8066" class="color000000 svgShape">
    <path d="M397.5,47.4v434.5c0,4.8-3.8,8.5-8.5,8.5H90.8c-13.4,0-25.5-5.4-34.3-14.3c-1-1-2.1-2.2-3.1-3.5
		c-0.8-0.9-1.5-2-2.2-3c-2.9-4.1-5.2-8.6-6.7-13.4c-0.5-1.5-0.9-3-1.2-4.6l0,0c-0.3-1.6-0.6-3.1-0.7-4.8c-0.2-1.7-0.2-3.6-0.2-5.4
		v-353c0-36.8,29.8-66.6,66.6-66.6h263C386,21.8,397.5,33.2,397.5,47.4z" fill="#cdad80" class="color80cdc3 svgShape"></path>
    <path d="M124.8,21.8v468.6H90.6c-13.4,0-25.5-5.4-34.3-14.3c-1-1-2.1-2.2-3.1-3.5c-0.8-0.9-1.5-2-2.2-3
		c-2.9-4.1-5.2-8.6-6.7-13.4c-0.5-1.5-0.9-3-1.2-4.6l0,0c-0.3-1.6-0.6-3.1-0.7-4.8c-0.2-1.7-0.2-3.6-0.2-5.4v-353
		c0-36.8,29.8-66.6,66.6-66.6h16V21.8z" fill="#3a3636" class="color191919 svgShape"></path>
    <path d="M397.5,393.4v88.5c0,4.8-3.8,8.5-8.5,8.5H90.8c-13.4,0-25.5-5.4-34.3-14.3c-1-1-2.1-2.2-3.1-3.5
		c-0.8-0.9-1.5-2-2.2-3c-2.9-4.1-5.2-8.6-6.7-13.4c-0.5-1.5-0.9-3-1.2-4.6l0,0c-0.3-1.6-0.6-3.1-0.7-4.8c-0.2-1.7-0.2-3.6-0.2-5.4
		c0.2-26.8,22.9-48,49.7-48L397.5,393.4L397.5,393.4z" fill="#e6e6e5" class="colore6e6e5 svgShape"></path>
    <path d="M397.5,428.1v27.3H90.8c-5,0-8.2-2.5-9.7-4.1c-1.5-1.5-4.1-4.8-4.1-9.6c0-7.5,6.1-13.7,13.7-13.7L397.5,428.1
		L397.5,428.1z" fill="#f3f3f2" class="colorf3f2f3 svgShape"></path>
    <path d="M326.1,77.2H196.3c-4.9,0-8.7,3.9-8.7,8.7v45.4c0,4.9,3.9,8.7,8.7,8.7h129.8c4.9,0,8.7-3.9,8.7-8.7V85.8
		C334.8,81,330.8,77.2,326.1,77.2z" fill="#3a3636" class="color191919 svgShape"></path>
    <rect width="122.4" height="38" x="200" y="89.6" fill="#f3f3f2" class="colorf3f2f3 svgShape"></rect>
    <g fill="#ff8066" class="color000000 svgShape">
      <path d="M463.4,114.1c-4.2-4.2-9.8-6.3-15.3-6.3c-5.5,0-11.1,2.1-15.3,6.3L251,296l30.6,30.6l181.9-181.9
			C471.9,136.3,471.9,122.6,463.4,114.1z" fill="#ffbf66" class="colorfbb03a svgShape"></path>
      <path d="m238.9 335 12.1-39 30.6 30.6-39 12.1C240.3 339.4 238.2 337.3 238.9 335zM463.4 114.1c-4.2-4.2-9.8-6.3-15.3-6.3-5.5 0-11.1 2.1-15.3 6.3l-9 9 30.6 30.6 9-9C471.9 136.3 471.9 122.6 463.4 114.1z" fill="#3a3636" class="color191919 svgShape"></path>
    </g>
  </g>
</svg>
