<svg xmlns="http://www.w3.org/2000/svg" version="1" viewBox="0 0 32 32" id="DownArrow">
  <path fill="#ff8066" d="M29 18.984c0 .534-.208 1.036-.586 1.414l-7.967 7.967c-.342.388-.884.635-1.447.635s-1.105-.247-1.488-.678l-7.926-7.924C9.208 20.021 9 19.519 9 18.984s.208-1.036.586-1.414c.78-.78 2.048-.78 2.828 0L17 22.156V11.01c-.009-.658-.248-4.01-4-4.01H5c-1.103 0-2-.898-2-2s.897-2 2-2h8c6.286 0 7.981 5.225 8 7.986v11.17l4.586-4.586A2.001 2.001 0 0 1 29 18.984z" class="color26de81 svgShape"></path>
  <path fill="#3a3636" d="M19 30a2.995 2.995 0 0 1-2.235-1.013l-7.886-7.881A2.98 2.98 0 0 1 8 18.984c0-.801.312-1.555.879-2.121 1.131-1.133 3.11-1.133 4.243 0L16 19.742V11.01c-.014-.895-.333-3.01-3-3.01H5C3.346 8 2 6.654 2 5s1.346-3 3-3h8c7.071 0 8.979 5.873 9 8.979v8.763l2.879-2.879c1.131-1.133 3.11-1.133 4.243 0 .565.567.878 1.32.878 2.121 0 .801-.313 1.555-.879 2.121l-7.967 7.967C20.66 29.636 19.839 30 19 30zm-8-12.015a.989.989 0 0 0-.706.292c-.192.192-.294.436-.294.707s.102.515.293.707l7.926 7.924c.456.509 1.154.457 1.478.089l8.01-8.013c.191-.191.293-.436.293-.707s-.102-.515-.293-.707a1.025 1.025 0 0 0-1.413 0l-4.587 4.586A1.002 1.002 0 0 1 20 22.156v-11.17C19.998 10.708 19.874 4 13 4H5a1.001 1.001 0 0 0 0 2h8c3.636 0 4.966 2.691 5 4.995v11.161a1 1 0 0 1-1.707.707l-4.586-4.586a.993.993 0 0 0-.707-.292z" class="color4b6584 svgShape"></path>
</svg>
