<svg xmlns="http://www.w3.org/2000/svg" viewBox="0 0 512 512" id="magicball">
  <ellipse cx="256" cy="268.85" fill="#ff8066" rx="207.401" ry="206.147" class="colord9f0ff svgShape"></ellipse>
  <path fill="#ffdfb3" d="M256 62.703q-7.567 0-15 .541c107.541 7.64 192.4 96.769 192.4 205.606S348.542 466.816 241 474.456q7.432.528 15 .541c114.544 0 207.4-92.295 207.4-206.147 0-113.852-92.856-206.147-207.4-206.147Z" class="colorb3e0ff svgShape"></path>
  <path fill="#4d3b3b" d="M407.69 457.384H104.31v-32.932a15 15 0 0 1 15-15h273.38a15 15 0 0 1 15 15Z" class="color3b3f4d svgShape"></path>
  <path fill="#3a3636" d="M392.69 409.452h-30a15 15 0 0 1 15 15v32.932h30v-32.932a15 15 0 0 0-15-15Z" class="color313440 svgShape"></path>
  <path fill="#604a4a" d="M452.69 505.317H59.31l11.709-37.412a15 15 0 0 1 14.315-10.52h341.332a15 15 0 0 1 14.315 10.52Z" class="color4a4f60 svgShape"></path>
  <path fill="#4d3b3b" d="M440.981 467.904a15 15 0 0 0-14.315-10.52h-30a15 15 0 0 1 14.315 10.52l11.708 37.413h30Z" class="color3b3f4d svgShape"></path>
  <path fill="#ffbf66" d="M377.703 39.812c9.457 24.92 23.673 45.41 40.963 59.04-17.29 13.63-31.506 34.119-40.963 59.04-9.456-24.921-23.672-45.41-40.963-59.04 17.29-13.63 31.507-34.12 40.963-59.04Z" class="colorffe966 svgShape"></path>
  <path fill="#ffab36" d="M377.703 39.812a167.506 167.506 0 0 1-7.5 16.907c7.53 14.706 16.884 27.316 27.617 37.156a6.775 6.775 0 0 1 0 9.954c-10.733 9.84-20.088 22.45-27.617 37.156a167.501 167.501 0 0 1 7.5 16.906c9.457-24.92 23.673-45.41 40.963-59.04-17.29-13.629-31.506-34.118-40.963-59.04Z" class="colorffe236 svgShape"></path>
  <path fill="#ffbf66" d="M479.57 8.317c5.755 15.166 14.407 27.636 24.93 35.931-10.523 8.295-19.175 20.765-24.93 35.931-5.755-15.166-14.407-27.636-24.93-35.93 10.523-8.296 19.175-20.765 24.93-35.932Z" class="colorffe966 svgShape"></path>
  <path fill="#ffab36" d="M479.57 8.317a98.706 98.706 0 0 1-7.5 15.601 77.25 77.25 0 0 0 13.362 16.828 4.79 4.79 0 0 1 0 7.004 77.253 77.253 0 0 0-13.362 16.828 98.715 98.715 0 0 1 7.5 15.601c5.755-15.166 14.407-27.636 24.93-35.93-10.523-8.296-19.175-20.765-24.93-35.932Z" class="colorffe236 svgShape"></path>
  <path fill="#4d3b3b" d="M504.5 512.817H7.5a7.5 7.5 0 0 1 0-15h497a7.5 7.5 0 0 1 0 15Z" class="color3b3f4d svgShape"></path>
  <path fill="#332727" d="M285.878 123.802a147.992 147.992 0 0 1 14.856 3.834 7.5 7.5 0 1 0 4.498-14.31 163.468 163.468 0 0 0-16.366-4.223 7.5 7.5 0 0 0-2.988 14.699ZM256 120.809a7.5 7.5 0 1 0 0-15c-89.97 0-163.166 72.773-163.166 162.224a7.5 7.5 0 0 0 15 0c0-81.18 66.466-147.224 148.166-147.224Zm193.998-71.487c9.474 7.468 17.276 18.777 22.56 32.701a7.5 7.5 0 0 0 14.024 0c5.284-13.924 13.086-25.233 22.56-32.7a7.5 7.5 0 0 0 .001-11.781c-9.476-7.47-17.277-18.778-22.561-32.703a7.5 7.5 0 0 0-14.024 0c-5.284 13.925-13.085 25.232-22.561 32.703a7.5 7.5 0 0 0 0 11.78ZM479.57 25.14a87.037 87.037 0 0 0 13.704 18.292 87.039 87.039 0 0 0-13.704 18.29 87.038 87.038 0 0 0-13.704-18.29A87.036 87.036 0 0 0 479.57 25.14ZM504.5 497h-46.3l-10.06-32.151a22.403 22.403 0 0 0-21.474-15.782h-11.477v-25.432a22.362 22.362 0 0 0-2.205-9.708 212.596 212.596 0 0 0-4.114-296.036 102.932 102.932 0 0 1 14.44-13.965 7.5 7.5 0 0 0 0-11.78c-16.257-12.815-29.601-32.114-38.595-55.812a7.5 7.5 0 0 0-14.023 0 143.78 143.78 0 0 1-21.798 38.995 216.038 216.038 0 0 0-244.836 41.617 212.751 212.751 0 0 0-5.045 296.987 22.364 22.364 0 0 0-2.202 9.702v25.432H85.334a22.406 22.406 0 0 0-21.474 15.78L53.799 497h-46.3a7.5 7.5 0 0 0 0 15h445.164l.024.002.026-.002H504.5a7.5 7.5 0 0 0 0-15ZM377.704 57.722c7.931 15.926 17.902 29.587 29.447 40.313a125.455 125.455 0 0 0-13.868 15.271l-.012.011a7.52 7.52 0 0 0-.964 1.273 152.215 152.215 0 0 0-14.603 23.758c-7.933-15.927-17.904-29.587-29.449-40.313 11.545-10.726 21.516-24.387 29.449-40.313ZM56.099 268.033C56.1 158.5 145.774 69.386 256 69.386a198.73 198.73 0 0 1 82.19 17.524q-2.973 2.771-6.092 5.236a7.5 7.5 0 0 0 0 11.78c16.255 12.812 29.6 32.111 38.595 55.81a7.5 7.5 0 0 0 14.023 0 151.045 151.045 0 0 1 15.055-29.711 197.713 197.713 0 0 1 2.591 273.298 22.36 22.36 0 0 0-9.672-2.188H119.311a22.364 22.364 0 0 0-9.679 2.192 196.78 196.78 0 0 1-53.533-135.294Zm344.09 155.602v25.432H111.811v-25.432a7.508 7.508 0 0 1 7.5-7.5H392.69a7.508 7.508 0 0 1 7.5 7.5ZM69.517 497l8.658-27.672a7.47 7.47 0 0 1 7.159-5.26h341.332a7.467 7.467 0 0 1 7.158 5.26L442.483 497ZM202 189a7.5 7.5 0 1 0 7.5 7.5 7.5 7.5 0 0 0-7.5-7.5Zm97.5-22.5a7.5 7.5 0 1 0 7.5-7.5 7.5 7.5 0 0 0-7.5 7.5ZM382 234a7.5 7.5 0 1 0-7.5-7.5 7.5 7.5 0 0 0 7.5 7.5Zm-105 60a7.5 7.5 0 1 0-7.5-7.5 7.5 7.5 0 0 0 7.5 7.5Zm0 90a7.5 7.5 0 1 0-7.5-7.5 7.5 7.5 0 0 0 7.5 7.5Zm-120-75a7.5 7.5 0 1 0 7.5 7.5 7.5 7.5 0 0 0-7.5-7.5Zm240 45a7.5 7.5 0 1 0-7.5-7.5 7.5 7.5 0 0 0 7.5 7.5Z" class="color272a33 svgShape"></path>
</svg>
