<svg xmlns="http://www.w3.org/2000/svg" viewBox="0 0 32 32" id="Basket">
  <path fill="#ff8066" d="m26.5 16.5-.68 5.777L25.5 25c-.097.826-.669 1.5-1.5 1.5H7c-.831 0-1.403-.674-1.5-1.5l-.328-2.787L4.5 16.5" class="colorffc408 svgShape"></path>
  <path fill="#ffbf66" d="M10.5 20v2.5c0 .554-.446 1-1 1s-1-.446-1-1V22m7-2.5c.554 0 1 .446 1 1v2c0 .554-.446 1-1 1s-1-.446-1-1v-2c0-.554.446-1 1-1zm7 2.7v.3c0 .554-.446 1-1 1s-1-.446-1-1V20m-9.45-3.5H4c-.831 0-1.5-.669-1.5-1.5 0-.83.669-1.5 1.5-1.5h23c.831 0 1.5.67 1.5 1.5 0 .831-.669 1.5-1.5 1.5h-7.049m-2.876 0h-3.15" class="colorffd039 svgShape"></path>
  <path fill="#a35e5e" d="M14.21 14.79a.998.998 0 0 1 0 1.414l-8.503 8.503a.998.998 0 0 1-1.414 0 .998.998 0 0 1 0-1.414l8.503-8.503a.998.998 0 0 1 1.414 0zM16.79 14.79a.998.998 0 0 0 0 1.414l8.503 8.503a.998.998 0 0 0 1.414 0 .998.998 0 0 0 0-1.414l-8.503-8.503a.998.998 0 0 0-1.414 0z" class="color5e61a3 svgShape"></path>
  <path fill="#f0f0f0" d="M15.498 1025.263c-.673 0-1.275.34-1.789.854-.513.514-.948 1.207-1.303 1.953-.71 1.493-1.106 2.965-1.106 4.295 0 .534.051 1.038.155 1.497h8.09c.104-.459.155-.963.155-1.497 0-1.33-.397-2.802-1.106-4.295-.355-.746-.79-1.439-1.303-1.953-.514-.514-1.116-.854-1.789-.854h-.005z" color="#000" font-family="sans-serif" font-weight="400" overflow="visible" style="line-height:normal;text-indent:0;text-align:start;text-decoration-line:none;text-decoration-style:solid;text-decoration-color:#000;text-transform:none;block-progression:tb;isolation:auto;mix-blend-mode:normal" transform="translate(0 -1020.362)" class="colorf0f0f0 svgShape"></path>
  <path fill="#f0f0f0" d="M9.498 1027.72c-.48 0-.91.247-1.278.619-.367.372-.677.87-.93 1.41-.507 1.08-.79 2.148-.79 3.11 0 .361.046.692.112 1.003h4.85a6.674 6.674 0 0 1-.162-1.497c0-.806.163-1.669.436-2.553-.01-.02-.016-.042-.026-.062-.253-.54-.564-1.039-.93-1.41-.367-.373-.797-.62-1.278-.62h-.005zm12 0c-.48 0-.91.247-1.278.619-.367.372-.677.87-.93 1.41-.01.022-.016.043-.026.064.273.884.436 1.746.436 2.552 0 .536-.056 1.039-.162 1.498h4.852c.067-.311.11-.643.11-1.003 0-.963-.283-2.03-.79-3.11-.253-.54-.564-1.039-.93-1.41-.367-.373-.797-.62-1.278-.62h-.005z" color="#000" font-family="sans-serif" font-weight="400" overflow="visible" style="line-height:normal;text-indent:0;text-align:start;text-decoration-line:none;text-decoration-style:solid;text-decoration-color:#000;text-transform:none;block-progression:tb;isolation:auto;mix-blend-mode:normal" transform="translate(0 -1020.362)" class="colorf0f0f0 svgShape"></path>
  <path fill="#3a3636" d="M4.482 1036.355a.5.5 0 0 0-.478.565l.672 5.713a.5.5 0 1 0 .992-.117l-.672-5.711a.5.5 0 0 0-.514-.45zm22.02 0a.5.5 0 0 0-.498.45l-.68 5.775a.5.5 0 1 0 .992.117l.68-5.777a.5.5 0 0 0-.494-.565zm-21.02 8.5a.5.5 0 0 0-.478.565c.12 1.02.894 1.941 1.996 1.941h17c1.102 0 1.876-.92 1.996-1.941a.5.5 0 1 0-.992-.115c-.074.63-.444 1.056-1.004 1.056H7c-.56 0-.93-.426-1.004-1.056a.5.5 0 0 0-.514-.45zm5.01-5a.5.5 0 0 0-.492.506v2.5c0 .286-.214.5-.5.5a.488.488 0 0 1-.5-.5v-.5a.5.5 0 1 0-1 0v.5c0 .823.678 1.5 1.5 1.5s1.5-.677 1.5-1.5v-2.5a.5.5 0 0 0-.508-.506zm5.008-.494c-.822 0-1.5.678-1.5 1.5v2c0 .823.678 1.5 1.5 1.5s1.5-.677 1.5-1.5v-2c0-.822-.678-1.5-1.5-1.5zm0 1c.286 0 .5.215.5.5v2c0 .286-.214.5-.5.5a.488.488 0 0 1-.5-.5v-2c0-.285.214-.5.5-.5zm4.992-.506a.5.5 0 0 0-.492.506v2.5c0 .823.678 1.5 1.5 1.5s1.5-.677 1.5-1.5v-.299a.5.5 0 1 0-1 0v.3c0 .285-.214.5-.5.5a.488.488 0 0 1-.5-.5v-2.5a.5.5 0 0 0-.508-.507z" color="#000" font-family="sans-serif" font-weight="400" overflow="visible" style="line-height:normal;text-indent:0;text-align:start;text-decoration-line:none;text-decoration-style:solid;text-decoration-color:#000;text-transform:none;block-progression:tb;isolation:auto;mix-blend-mode:normal" transform="translate(0 -1020.362)" class="color242c88 svgShape"></path>
  <path fill="#3a3636" d="M4 1033.361c-1.1 0-2 .901-2 2 0 1.1.9 1.998 2 1.998h7.049a.5.5 0 1 0 0-1H4c-.563 0-1-.435-1-.998 0-.562.437-1 1-1h23c.563 0 1 .438 1 1a.985.985 0 0 1-1 .998h-7.049a.5.5 0 1 0 0 1H27c1.1 0 2-.898 2-1.998 0-1.099-.9-2-2-2H4zm9.924 3a.5.5 0 1 0 0 1h3.152a.5.5 0 1 0 0-1h-3.152z" color="#000" font-family="sans-serif" font-weight="400" overflow="visible" style="line-height:normal;text-indent:0;text-align:start;text-decoration-line:none;text-decoration-style:solid;text-decoration-color:#000;text-transform:none;block-progression:tb;isolation:auto;mix-blend-mode:normal" transform="translate(0 -1020.362)" class="color242c88 svgShape"></path>
  <path fill="#3a3636" d="M15.498 1024.764c-.84 0-1.569.425-2.143 1-.572.573-1.029 1.31-1.4 2.092-.733 1.542-1.154 3.08-1.154 4.51 0 .565.053 1.105.166 1.607a.5.5 0 0 0 .488.388h8.09a.5.5 0 0 0 .488-.388 7.318 7.318 0 0 0 .166-1.608c0-1.43-.42-2.967-1.154-4.51-.371-.78-.828-1.518-1.4-2.091-.574-.575-1.302-1-2.143-1h-.004zm0 1h.004c.504 0 .982.253 1.435.707.455.455.867 1.103 1.206 1.814.686 1.443 1.056 2.85 1.056 4.08 0 .36-.052.677-.101.996h-7.196c-.049-.319-.101-.635-.101-.996 0-1.23.37-2.637 1.056-4.08.339-.711.751-1.36 1.205-1.814.454-.454.932-.707 1.436-.707z" color="#000" font-family="sans-serif" font-weight="400" overflow="visible" style="line-height:normal;text-indent:0;text-align:start;text-decoration-line:none;text-decoration-style:solid;text-decoration-color:#000;text-transform:none;block-progression:tb;isolation:auto;mix-blend-mode:normal" transform="translate(0 -1020.362)" class="color242c88 svgShape"></path>
  <path fill="#3a3636" d="M9.498 1027.22a.5.5 0 0 0-.092.01s.053-.01.086-.01c-.648 0-1.202.336-1.627.766-.425.431-.757.974-1.027 1.55-.53 1.13-.838 2.263-.838 3.323 0 .404.05.771.123 1.108a.5.5 0 0 0 .49.394h4.848a.5.5 0 0 0 .488-.611 6.178 6.178 0 0 1-.148-1.385c0-.739.15-1.556.412-2.406a.5.5 0 0 0-.03-.371c.018.034.004 0-.02-.051h-.003c-.27-.574-.601-1.117-1.025-1.547-.426-.431-.98-.764-1.63-.766h.007a.5.5 0 0 0-.01 0 .5.5 0 0 0-.004 0zm.1.99-.096.01c.31 0 .615.158.922.47.294.298.562.737.793 1.213-.24.835-.416 1.666-.416 2.462 0 .354.063.67.107.997H7.057c-.022-.166-.057-.325-.057-.503 0-.864.259-1.866.742-2.896.237-.505.525-.96.834-1.273.307-.312.613-.47.922-.47h-.01c.017 0 .11-.01.11-.01zm11.904-.99c-.696 0-1.256.386-1.668.837-.413.45-.719.987-.979 1.445a.5.5 0 0 0-.017.033c-.031.065-.038.09-.03.07a.5.5 0 0 0-.02.355c.262.85.411 1.665.411 2.405 0 .5-.052.966-.148 1.384a.5.5 0 0 0 .488.614h4.852a.5.5 0 0 0 .488-.397c.073-.338.121-.706.121-1.107 0-1.06-.307-2.192-.838-3.322-.27-.575-.602-1.118-1.027-1.549-.427-.432-.981-.767-1.633-.767zm0 1c.31 0 .615.158.922.47.309.313.597.768.834 1.273.483 1.03.742 2.032.742 2.896 0 .18-.035.338-.057.504h-3.851c.045-.327.107-.644.107-.998 0-.795-.176-1.623-.416-2.457.241-.421.503-.862.79-1.176.307-.336.597-.511.929-.511zm-6.937 6.578a1.508 1.508 0 0 0-2.122 0l-8.503 8.503a1.508 1.508 0 0 0 0 2.122c.582.581 1.54.581 2.122 0l8.503-8.503a1.508 1.508 0 0 0 0-2.122zm-.707.707a.488.488 0 0 1 0 .707l-8.504 8.504a.488.488 0 0 1-.707 0 .488.488 0 0 1 0-.707l8.504-8.504a.488.488 0 0 1 .707 0zm2.578-.705a1.508 1.508 0 0 1 2.121 0l8.502 8.502c.582.581.582 1.54 0 2.12a1.508 1.508 0 0 1-2.121 0l-8.502-8.501a1.508 1.508 0 0 1 0-2.121zm.707.707a.488.488 0 0 0 0 .707l8.502 8.502a.488.488 0 0 0 .707 0 .488.488 0 0 0 0-.707l-8.502-8.502a.488.488 0 0 0-.707 0zm-2.2-8.345a.5.5 0 0 0-.347.145c-.326.313-.573.702-.774 1.107a7.138 7.138 0 0 0-.261.594.5.5 0 1 0 .933.361c.065-.168.14-.34.225-.512.166-.335.365-.632.57-.83a.5.5 0 0 0-.346-.865zm-1.244 3.035a.5.5 0 0 0-.498.5l-.002.07a.5.5 0 1 0 1 0l.002-.057a.5.5 0 0 0-.502-.513z" color="#000" font-family="sans-serif" font-weight="400" overflow="visible" style="line-height:normal;text-indent:0;text-align:start;text-decoration-line:none;text-decoration-style:solid;text-decoration-color:#000;text-transform:none;block-progression:tb;isolation:auto;mix-blend-mode:normal" transform="translate(0 -1020.362)" class="color242c88 svgShape"></path>
</svg>
