<svg xmlns="http://www.w3.org/2000/svg" xmlns:xlink="http://www.w3.org/1999/xlink" viewBox="0 0 64 64" id="Pot,Broom,Magic,Witch,Scary,Halloween">
  <defs>
    <path id="a" d="M36.939 39.696V.271H.207v39.425h36.732z" fill="#ff8066" class="color000000 svgShape"></path>
    <path id="c" d="M0 .638v25.064h31.958V.638H0z" fill="#ff8066" class="color000000 svgShape"></path>
  </defs>
  <g fill="none" fill-rule="evenodd">
    <path fill="#daa459" d="M54.417 36.232a3.218 3.218 0 0 1-3.211 3.224 3.219 3.219 0 0 1-3.213-3.224 3.219 3.219 0 0 1 3.213-3.225 3.218 3.218 0 0 1 3.211 3.225" class="colorc5da59 svgShape"></path>
    <path fill="#3a3636" d="M51.205 34.292c-1.066 0-1.933.87-1.933 1.94 0 1.07.867 1.94 1.933 1.94s1.933-.87 1.933-1.94c0-1.07-.867-1.94-1.933-1.94m0 6.45c-2.477 0-4.493-2.023-4.493-4.51 0-2.487 2.016-4.51 4.493-4.51 2.477 0 4.493 2.023 4.493 4.51 0 2.487-2.016 4.51-4.493 4.51" class="color2e2e30 svgShape"></path>
    <path fill="#603e3e" d="m38.743 34.132 5.541-7.867L61.142 9.339a3.35 3.35 0 0 0 0-4.712 3.32 3.32 0 0 0-4.694 0L39.59 21.553a3.275 3.275 0 0 0-.585.83l-5.54 7.867-4.555 4.572a3.353 3.353 0 0 0 0 4.713 3.32 3.32 0 0 0 4.695 0l4.553-4.573c.247-.248.433-.533.585-.83" class="color60413e svgShape"></path>
    <g transform="translate(26.453 2.098)" fill="#ff8066" class="color000000 svgShape">
      <mask id="b" fill="#fff">
        <use xlink:href="#a"></use>
      </mask>
      <path fill="#3a3636" d="M32.343 2.84c-.523 0-1.046.199-1.442.598L14.042 20.364a1.96 1.96 0 0 0-.351.51 1.35 1.35 0 0 1-.094.154l-5.541 7.867c-.042.06-.088.115-.14.166l-4.553 4.572a2.056 2.056 0 0 0 0 2.895 2.036 2.036 0 0 0 2.883 0l4.554-4.571c.127-.128.238-.29.353-.512.026-.052.058-.103.092-.153l5.541-7.866a1.18 1.18 0 0 1 .14-.167L33.784 6.334c.795-.8.795-2.097 0-2.896-.397-.4-.92-.599-1.441-.599M4.805 39.696a4.575 4.575 0 0 1-3.252-1.35 4.635 4.635 0 0 1 0-6.53l4.475-4.495 5.43-7.708c.224-.42.478-.77.774-1.067L29.09 1.62a4.593 4.593 0 0 1 6.505 0 4.636 4.636 0 0 1 0 6.53L18.814 24.999l-5.43 7.71c-.224.42-.478.769-.774 1.065l-4.554 4.572a4.575 4.575 0 0 1-3.251 1.35" mask="url(#b)" class="color2e2e30 svgShape"></path>
    </g>
    <path fill="#020101" d="M61.142 4.627a3.289 3.289 0 0 0-1.665-.898 3.341 3.341 0 0 1-.895 3.04L41.724 23.696l-5.54 7.867a3.282 3.282 0 0 1-.586.83l-4.553 4.572a3.31 3.31 0 0 1-3.028.898c.126.614.421 1.199.893 1.672a3.32 3.32 0 0 0 4.695 0l4.553-4.571c.247-.248.433-.534.585-.831l5.541-7.867L61.142 9.34a3.351 3.351 0 0 0 0-4.713" opacity=".3" class="color010202 svgShape"></path>
    <path fill="#ffbf66" d="m30.539 43.781-6.058-6.083 3.753-4.691 6.978 7.005z" class="colorf5b956 svgShape"></path>
    <path fill="#3a3636" d="m26.197 37.604 4.436 4.454 2.665-2.15-4.96-4.98-2.141 2.676Zm4.343 7.462c-.33 0-.658-.126-.906-.376l-6.059-6.083a1.29 1.29 0 0 1-.093-1.714l3.755-4.691c.227-.285.565-.459.929-.478.346-.011.715.115.973.374l6.979 7.006a1.286 1.286 0 0 1-.103 1.91l-4.674 3.769a1.27 1.27 0 0 1-.801.283Z" class="color2e2e30 svgShape"></path>
    <path fill="#ffbf66" d="m1.28 54.885 6.579-9.661c6.679-9.81 13.212-10.154 18.508-6.519 5.296 3.634 5.47 10.079 1.85 15.395-4.939 7.254-19.712 5.744-26.937.785" class="colorf5b956 svgShape"></path>
    <g transform="translate(0 34.653)" fill="#ff8066" class="color000000 svgShape">
      <mask id="d" fill="#fff">
        <use xlink:href="#c"></use>
      </mask>
      <path fill="#3a3636" d="M3.088 19.855c3.395 1.964 8.07 3.201 12.54 3.28l.44.003c5.146 0 9.174-1.598 11.092-4.416 1.644-2.413 2.425-5.071 2.201-7.484-.23-2.498-1.516-4.616-3.716-6.126-2.561-1.758-5.145-2.298-7.677-1.603-3.06.838-6.106 3.458-9.053 7.787l-5.827 8.559Zm13.017 5.847c-5.686 0-11.699-1.769-15.547-4.409a1.29 1.29 0 0 1-.334-1.786l6.578-9.662c3.3-4.846 6.829-7.812 10.492-8.816 3.291-.902 6.586-.243 9.795 1.96 2.85 1.958 4.517 4.727 4.82 8.01.28 3.01-.656 6.267-2.635 9.173-2.683 3.941-7.78 5.53-13.169 5.53Z" mask="url(#d)" class="color2e2e30 svgShape"></path>
    </g>
    <path fill="#fefefe" d="M4.28 56.559s4.807-1.836 7.682-4.722" class="colorfefefe svgShape"></path>
    <path fill="#3a3636" d="M4.28 57.844a1.286 1.286 0 0 1-.456-2.485c.046-.019 4.59-1.78 7.233-4.43.5-.503 1.31-.503 1.81 0 .5.501.5 1.315 0 1.816-3.035 3.046-7.926 4.936-8.133 5.015-.15.057-.303.084-.455.084" class="color2e2e30 svgShape"></path>
    <path fill="#fefefe" d="M9.205 58.234s4.158-.084 8.084-3.358" class="colorfefefe svgShape"></path>
    <path fill="#3a3636" d="M9.204 59.52a1.283 1.283 0 0 1-1.279-1.26 1.283 1.283 0 0 1 1.25-1.31c.056-.002 3.8-.146 7.296-3.063a1.276 1.276 0 0 1 1.802.167 1.289 1.289 0 0 1-.166 1.809c-4.222 3.524-8.688 3.652-8.876 3.657h-.027Z" class="color2e2e30 svgShape"></path>
    <path fill="#daa459" d="M12.417 29.915a3.218 3.218 0 0 1-3.211 3.225 3.219 3.219 0 0 1-3.213-3.225 3.219 3.219 0 0 1 3.213-3.225 3.218 3.218 0 0 1 3.211 3.225" class="colorc5da59 svgShape"></path>
    <path fill="#3a3636" d="M9.205 27.975c-1.066 0-1.933.87-1.933 1.94 0 1.07.867 1.94 1.933 1.94s1.933-.87 1.933-1.94c0-1.07-.867-1.94-1.933-1.94m0 6.45c-2.477 0-4.493-2.023-4.493-4.51 0-2.488 2.016-4.51 4.493-4.51 2.477 0 4.493 2.022 4.493 4.51 0 2.487-2.016 4.51-4.493 4.51" class="color2e2e30 svgShape"></path>
    <path fill="#daa459" d="M37.571 12.363a3.218 3.218 0 0 1-3.212 3.224 3.219 3.219 0 0 1-3.213-3.224 3.219 3.219 0 0 1 3.213-3.225 3.218 3.218 0 0 1 3.212 3.225" class="colorc5da59 svgShape"></path>
    <path fill="#3a3636" d="M34.36 10.423c-1.066 0-1.933.87-1.933 1.94 0 1.07.867 1.939 1.932 1.939s1.932-.87 1.932-1.94c0-1.069-.867-1.94-1.932-1.94m0 6.45c-2.477 0-4.492-2.023-4.492-4.51 0-2.487 2.015-4.51 4.492-4.51s4.492 2.023 4.492 4.51c0 2.487-2.015 4.51-4.492 4.51" class="color2e2e30 svgShape"></path>
    <path fill="#daa459" d="M19.64 13.31c0 2.485-2.007 4.5-4.483 4.5-2.475 0-4.482-2.015-4.482-4.5 0-2.486 2.007-4.5 4.482-4.5 2.476 0 4.483 2.014 4.483 4.5" class="colorc5da59 svgShape"></path>
    <path fill="#3a3636" d="M15.158 10.094a3.213 3.213 0 0 0-3.203 3.216 3.213 3.213 0 0 0 3.203 3.215 3.213 3.213 0 0 0 3.202-3.215 3.213 3.213 0 0 0-3.202-3.216m0 9.001c-3.178 0-5.763-2.595-5.763-5.785s2.585-5.786 5.763-5.786 5.762 2.595 5.762 5.786c0 3.19-2.584 5.785-5.762 5.785" class="color2e2e30 svgShape"></path>
    <path fill="#daa459" d="M49.256 50.803c0 2.486-2.007 4.5-4.483 4.5-2.475 0-4.482-2.014-4.482-4.5 0-2.485 2.007-4.5 4.482-4.5 2.476 0 4.483 2.015 4.483 4.5" class="colorc5da59 svgShape"></path>
    <path fill="#3a3636" d="M44.774 47.588a3.213 3.213 0 0 0-3.203 3.215 3.213 3.213 0 0 0 3.203 3.216 3.213 3.213 0 0 0 3.202-3.216 3.213 3.213 0 0 0-3.202-3.215m0 9c-3.178 0-5.763-2.594-5.763-5.785 0-3.19 2.585-5.785 5.763-5.785 3.177 0 5.762 2.595 5.762 5.785s-2.585 5.786-5.762 5.786" class="color2e2e30 svgShape"></path>
    <path fill="#020101" d="m30.54 43.781 4.395-3.545-4.107-4.529-4.039 3.42c1.268 3.348-1.997 9.22-4.373 12.71-3.754 5.514-11.655 6.511-19.14 4.23 7.67 3.967 20.421 4.671 24.942-1.967 2.375-3.489 3.103-7.46 1.835-10.807l.486.488Z" opacity=".3" class="color010202 svgShape"></path>
  </g>
</svg>
