<svg width="34" height="35" viewBox="0 0 34 35" fill="none" xmlns="http://www.w3.org/2000/svg">
  <path
    d="M8.2 4.9L17 13.7L25.8 4.9L29.1 8.2L20.3 17L29.1 25.8L25.8 29.1L17 20.3L8.2 29.1L4.9 25.8L13.7 17L4.9 8.2L8.2 4.9Z"
    fill="#120C09"
  />
  <path
    d="M8.9 6.5L17 14.6L25.1 6.5L27.5 8.9L19.4 17L27.5 25.1L25.1 27.5L17 19.4L8.9 27.5L6.5 25.1L14.6 17L6.5 8.9L8.9 6.5Z"
    fill="#76805B"
  />
  <path
    d="M9.6 8.1L17 15.5L24.4 8.1L25.9 9.6L18.5 17L25.9 24.4L24.4 25.9L17 18.5L9.6 25.9L8.1 24.4L15.5 17L8.1 9.6L9.6 8.1Z"
    fill="#D6D8B4"
    opacity="0.96"
  />
</svg>
