<svg id="SvgjsSvg1001" width="288" height="288" xmlns="http://www.w3.org/2000/svg" version="1.1" xmlns:xlink="http://www.w3.org/1999/xlink" xmlns:svgjs="http://svgjs.com/svgjs"><defs id="SvgjsDefs1002"></defs><g id="SvgjsG1008"><svg xmlns="http://www.w3.org/2000/svg" viewBox="0 0 24 24" width="288" height="288"><g id="Duotone"><path fill="#ffbf66" d="M6.3 21.5l-5.8-10 5.8-10h11.5l5.7 10-5.7 10z" class="svgShape colorffffff-1 selectable"></path><path fill="#ff8066" d="M6.3 21.5l11.5-20 5.7 10-5.7 10z" class="svgShape colorcce7ff-2 selectable"></path><path fill="none" stroke="#3a3636" stroke-linecap="round" stroke-linejoin="round" stroke-miterlimit="10" d="M6.3 21.5l-5.8-10 5.8-10h11.5l5.7 10-5.7 10z" class="svgStroke colorStroke1078ff-3 selectable"></path><path fill="none" stroke="#3a3636" stroke-linecap="round" stroke-linejoin="round" stroke-miterlimit="10" d="M23.5 11.5L6.3 1.5 5.5 13l.8 8.5 9.2-2.5z" class="svgStroke colorStroke1078ff-4 selectable"></path><path fill="none" stroke="#3a3636" stroke-linecap="round" stroke-linejoin="round" stroke-miterlimit="10" d="M17.8 21.5L15.5 19l-10-6-5-1.5M5.5 13l10.1-6.1 2.2-5.4M15.5 19l.1-12.1" class="svgStroke colorStroke1078ff-5 selectable"></path></g><path id="Frames-24px" fill="none" d="M0 0h24v24H0z" class="selectable"></path></svg></g></svg>