<svg id="SvgjsSvg1001" width="288" height="288" xmlns="http://www.w3.org/2000/svg" version="1.1" xmlns:xlink="http://www.w3.org/1999/xlink" xmlns:svgjs="http://svgjs.com/svgjs"><defs id="SvgjsDefs1002"></defs><g id="SvgjsG1008"><svg xmlns="http://www.w3.org/2000/svg" enable-background="new 0 0 512 512" viewBox="0 0 512 512" width="288" height="288"><ellipse cx="256" cy="448" fill="#a84343" rx="200" ry="40" class="svgShape color437ca8-0 selectable"></ellipse><path fill="#000000" d="M424,192c0,92.784-168,272-168,272S88,284.784,88,192S163.216,24,256,24S424,99.216,424,192z" class="svgShape color5ca9e6-1 selectable"></path><circle cx="256" cy="192" r="136" fill="#ffbf66" class="svgShape colorffdf66-2 selectable"></circle><rect width="112" height="32" x="200" y="176" fill="#3a3636" transform="rotate(-45.001 255.999 192.004)" class="svgShape color223f55-3 selectable"></rect><path fill="#ff8066" d="M261.657,276.853L261.657,276.853c-6.248,6.248-16.379,6.248-22.627,0l-67.882-67.882	c-6.248-6.248-6.248-16.379,0-22.627l0,0c6.248-6.248,16.379-6.248,22.627,0l67.882,67.882
	C267.905,260.474,267.905,270.604,261.657,276.853z" class="svgShape colore6625b-4 selectable"></path><path fill="#c96550" d="M227.716,288.167L227.716,288.167c-6.248,6.248-16.379,6.248-22.627,0l-45.255-45.255
	c-6.248-6.248-6.248-16.379,0-22.627l0,0c6.248-6.248,16.379-6.248,22.627,0l45.255,45.255
	C233.964,271.788,233.964,281.918,227.716,288.167z" class="svgShape colorc95650-5 selectable"></path><path fill="#ff8066" d="M340.853,197.657L340.853,197.657c6.248-6.248,6.248-16.379,0-22.627l-67.882-67.882
	c-6.248-6.248-16.379-6.248-22.627,0l0,0c-6.248,6.248-6.248,16.379,0,22.627l67.882,67.882
	C324.474,203.905,334.604,203.905,340.853,197.657z" class="svgShape colore6625b-6 selectable"></path><path fill="#c96550" d="M352.167,163.716L352.167,163.716c6.248-6.248,6.248-16.379,0-22.627l-45.255-45.255
	c-6.248-6.248-16.379-6.248-22.627,0v0c-6.248,6.248-6.248,16.379,0,22.627l45.255,45.255
	C335.788,169.964,345.918,169.964,352.167,163.716z" class="svgShape colorc95650-7 selectable"></path></svg></g></svg>