<svg xmlns="http://www.w3.org/2000/svg" viewBox="0 0 512 512" id="Backpack">
  <g fill="none" fill-rule="evenodd">
    <path fill="#ffbf66" d="M409.783 307.299h37.689v-43.322h-37.689z" class="colorfbae3a svgShape"></path>
    <path fill="#f8e2c4" d="M447.472 307.299h32.838v-62.764h-32.838z" class="colorf8e6c4 svgShape"></path>
    <path fill="#a48151" d="M360.857 490.843H148.896c-27.015 0-48.92-22.009-48.92-49.152V171.485h309.802V441.69c0 27.143-21.905 49.152-48.92 49.152Z" class="color88a451 svgShape"></path>
    <path fill="#020101" d="M362.216 171.483V441.69c0 27.15-21.905 49.152-48.92 49.152h47.561c27.016 0 48.921-22.003 48.921-49.152V171.483h-47.562Z" opacity=".2" class="color010202 svgShape"></path>
    <path fill="#a48151" d="M409.778 307.3v134.39c0 27.149-21.905 49.151-48.92 49.151h79.788c27.015 0 48.92-22.002 48.92-49.152V307.3h-79.788Z" class="color88a451 svgShape"></path>
    <path fill="#020101" d="M448.796 307.3v134.39c0 27.149-21.906 49.151-48.921 49.151h40.767c27.015 0 48.92-22.002 48.92-49.152V307.3h-40.766Z" opacity=".2" class="color010202 svgShape"></path>
    <path fill="#a48151" d="M99.978 441.691v-134.39H20.19v134.39c0 27.15 21.905 49.152 48.92 49.152h79.788c-27.015 0-48.92-22.002-48.92-49.152" class="color88a451 svgShape"></path>
    <path fill="#ffbf66" d="M419.985 171.483H89.77c-27.015 0-48.92-22.009-48.92-49.152V95.714c0-27.15 21.905-49.152 48.92-49.152h330.214c27.015 0 48.92 22.003 48.92 49.152v26.617c0 27.143-21.905 49.152-48.92 49.152" class="colorfbae3a svgShape"></path>
    <path fill="#f8e2c4" d="M134.843 171.483h36.235V46.562h-36.235zM338.678 171.483h36.235V46.562h-36.235z" class="colorf8e6c4 svgShape"></path>
    <path fill="#ff8066" d="M168.251 401.535h36.235v-120.73h-36.235zM305.276 401.535h36.235v-120.73h-36.235z" class="colorb4814a svgShape"></path>
    <path fill="#f8e2c4" d="M74.795 244.533H53.094c-13.909 0-25.188 11.325-25.188 25.3v37.464h72.07v-37.464c0-13.975-11.272-25.3-25.18-25.3" class="colorf8e6c4 svgShape"></path>
    <path fill="#a48151" d="M99.978 171.483v120.532c0 27.15 21.905 49.152 48.92 49.152h19.351v-60.361h36.235v60.361h100.783v-60.361h36.242v60.361h19.351c27.015 0 48.92-22.002 48.92-49.152V171.483H99.979Z" class="color88a451 svgShape"></path>
    <path fill="#020101" d="M369.01 171.483v120.532c0 19.422-11.23 36.154-27.503 44.141v5.011h19.35c27.016 0 48.921-22.002 48.921-49.152V171.483h-40.767zm50.975-47.786H89.77c-23.4 0-42.928-16.514-47.752-38.57a49.416 49.416 0 0 0-1.168 10.587v26.617c0 27.143 21.905 49.152 48.92 49.152h330.214c27.015 0 48.92-22.009 48.92-49.152V95.714c0-3.638-.42-7.175-1.168-10.588-4.824 22.057-24.352 38.57-47.752 38.57M99.978 441.692v-195.83H59.21v195.83c0 27.15 21.905 49.152 48.92 49.152h40.767c-27.015 0-48.92-22.002-48.92-49.152" opacity=".2" class="color010202 svgShape"></path>
    <path fill="#302e2e" d="M479.373 448.46c0 21.456-17.374 38.905-38.729 38.905h-35.161c.176-.205.332-.43.502-.635.483-.573.931-1.16 1.386-1.748a65.65 65.65 0 0 0 1.93-2.594c.442-.635.856-1.283 1.277-1.932a63.616 63.616 0 0 0 1.638-2.71c.387-.682.76-1.379 1.128-2.082.482-.935.93-1.884 1.366-2.847.326-.723.645-1.447.944-2.184.4-.997.754-2.007 1.1-3.031.259-.738.517-1.475.741-2.233.32-1.078.578-2.177.836-3.276.177-.73.367-1.448.51-2.185.244-1.236.407-2.492.57-3.748.082-.635.204-1.256.265-1.898.184-1.911.292-3.843.292-5.802V324.303h59.405V448.46Zm-369.2 0V343.554c10.381 9.08 23.91 14.623 38.721 14.623h9.16V408.3c0 5.652 4.565 10.24 10.191 10.24h36.242c5.626 0 10.192-4.588 10.192-10.24v-50.122h80.4V408.3c0 5.652 4.565 10.24 10.191 10.24h36.235c5.626 0 10.192-4.588 10.192-10.24v-50.122h9.166c14.812 0 28.34-5.543 38.722-14.623V448.46c0 21.456-17.374 38.905-38.722 38.905H148.894c-21.348 0-38.722-17.449-38.722-38.905Zm-41.06 38.905c-21.355 0-38.729-17.449-38.729-38.905V324.303H89.79V448.46c0 1.959.108 3.891.292 5.802.061.642.183 1.263.265 1.898.163 1.256.326 2.512.57 3.748.143.737.334 1.454.503 2.185.265 1.099.524 2.198.843 3.276.224.758.482 1.495.74 2.233.347 1.024.7 2.034 1.101 3.03.3.738.619 1.462.945 2.185.435.963.883 1.912 1.365 2.847.367.703.741 1.4 1.128 2.082a63.616 63.616 0 0 0 1.638 2.71c.421.649.835 1.297 1.277 1.932.618.888 1.264 1.741 1.93 2.594.455.588.903 1.175 1.386 1.748.17.205.326.43.503.635H69.113Zm-31.01-210.767c0-8.308 6.72-15.06 14.989-15.06h21.701c8.27 0 14.996 6.752 14.996 15.06v27.225H38.103v-27.225Zm140.334 71.34v-50.122h15.858v100.243h-15.858v-50.122Zm137.025 0v-50.122h15.852v100.243h-15.852v-50.122ZM134.843 188.493h264.741v110.291c0 21.463-17.373 38.912-38.721 38.912h-9.166v-50.121c0-5.66-4.566-10.24-10.192-10.24H305.27c-5.626 0-10.192 4.58-10.192 10.24v50.121h-80.4v-50.121c0-5.66-4.565-10.24-10.191-10.24h-36.242c-5.626 0-10.192 4.58-10.192 10.24v50.121h-9.159c-21.348 0-38.722-17.449-38.722-38.912V188.494h24.671ZM51.04 129.102v-26.624c0-21.457 17.373-38.912 38.728-38.912h34.883v104.448H89.768c-21.355 0-38.728-17.456-38.728-38.912Zm93.995 38.912h15.852V63.566h-15.852v104.448Zm91.026-144.705h37.635c12.896 0 23.91 8.253 28.082 19.777h-93.799c4.172-11.524 15.186-19.777 28.082-19.777Zm-54.79 144.705V63.566h147.216v104.448H181.27Zm167.6 0h15.851V63.566h-15.851v104.448Zm109.84-65.536v26.624c0 21.456-17.374 38.912-38.722 38.912H385.106V63.566h34.883c21.348 0 38.722 17.455 38.722 38.912Zm-21.43 178.51v22.835h-17.313v-22.835h17.313Zm20.383-19.45h12.455v42.285h-12.455V261.538Zm32.838 42.38v-52.62c0-5.652-4.566-10.24-10.191-10.24h-32.838c-5.626 0-10.192 4.588-10.192 10.24v9.21h-17.313v-72.014h.02c32.594 0 59.106-26.645 59.106-59.392v-26.624c0-32.748-26.512-59.392-59.105-59.392H322.916c-4.73-22.952-24.998-40.257-49.22-40.257h-37.635c-24.222 0-44.49 17.305-49.22 40.257H89.769c-32.593 0-59.112 26.644-59.112 59.392v26.624c0 32.747 26.519 59.392 59.112 59.392h.02v56.04c-4.565-2.171-9.614-3.475-14.995-3.475H53.092c-19.508 0-35.373 15.94-35.373 35.54v27.566c-4.423 1.12-7.718 5.113-7.718 9.898V448.46c0 32.747 26.519 59.385 59.112 59.385h371.531c32.594 0 59.113-26.638 59.113-59.385V314.063c0-5.325-4.077-9.66-9.255-10.144Z" class="color2e2e30 svgShape"></path>
  </g>
</svg>
