<svg xmlns="http://www.w3.org/2000/svg" enable-background="new 0 0 512 512" viewBox="0 0 512 512" id="moneybag">
  <g fill="#000000" class="color000000 svgShape">
    <g fill="#000000" class="color000000 svgShape">
      <linearGradient id="a" x1="284.966" x2="226.578" y1="-205.851" y2="880.166" gradientUnits="userSpaceOnUse">
        <stop offset="0" stop-color="#fef5e9" class="stopColoreae9fe svgShape"></stop>
        <stop offset=".424" stop-color="#fef7ee" class="stopColoreeeefe svgShape"></stop>
        <stop offset=".897" stop-color="#fffdfb" class="stopColorfbfbff svgShape"></stop>
        <stop offset="1" stop-color="#ffffff" class="stopColorffffff svgShape"></stop>
      </linearGradient>
      <path fill="url(#a)" d="M468.836,264.275c-9.502-7.393-20.977-13.763-25.396-24.961
			c-6.009-15.229,3.597-31.571,9.261-46.931c17.296-46.9-4.903-102.439-44.732-132.645
			c-75.982-57.623-224.302-37.425-245.028,42.219c-8.768,33.692,6.94,72.131-9.131,103.013
			c-20.278,38.966-74.073,41.594-108.719,58.921C2.169,285.358-6.419,332.1,24.365,367.686
			c11.304,13.068,25.769,22.07,36.136,36.348c15.001,20.659,23.415,43.504,43.486,60.545c28.263,23.996,75.517,29.946,100.538,2.586
			c14.09-15.407,18.675-38.106,34.054-52.225c20.245-18.586,52.242-16.086,78.004-6.514c25.762,9.571,49.655,25.026,76.789,29.381
			c42.426,6.81,87.917-18.085,105.053-57.489C515.561,340.912,502.748,290.664,468.836,264.275z"></path>
      <g fill="#000000" class="color000000 svgShape">
        <path fill="#ff8066" d="M359.026 443.494H235.187c-67.392 0-104.137-71.38-73.256-131.423 23.064-44.719 47.456-88.266 83.185-124.308l51.991-.078 51.99.078c35.807 36.041 60.2 79.588 83.185 124.308C463.164 372.114 426.419 443.494 359.026 443.494zM369.343 108.739c0 11.814-3.804 23.627-11.413 33.639l-19.021 24.828h-83.096l-19.022-24.828c-16.274-21.308-14.694-50.346 1.912-69.684 5.255-6.119 15.065-5.313 20.108.982l5.596 6.985c5.665 7.07 16.563 6.608 21.61-.915l.25-.373c5.328-7.943 17.02-7.918 22.314.048l.142.213c5.028 7.565 15.963 8.052 21.642.963l5.507-6.874c5.069-6.327 14.932-7.083 20.201-.921C364.765 82.963 369.343 95.745 369.343 108.739z" class="colorff5859 svgShape"></path>
        <path fill="#933838" d="M330.645 240.115L330.645 240.115c-6.713 0-12.155-5.442-12.155-12.155l0-52.648c0-6.713 5.442-12.155 12.155-12.155h0c6.713 0 12.155 5.442 12.155 12.155l0 52.648C342.8 234.672 337.358 240.115 330.645 240.115zM281.984 220.569L281.984 220.569c-6.713 0-12.155-5.442-12.155-12.155l0-33.103c0-6.713 5.442-12.155 12.155-12.155l0 0c6.713 0 12.155 5.442 12.155 12.155l0 33.103C294.14 215.127 288.697 220.569 281.984 220.569z" class="color386e93 svgShape"></path>
        <circle cx="148.452" cy="363.642" r="79.851" fill="#ffbf66" class="colorf9bb40 svgShape"></circle>
        <circle cx="148.452" cy="363.642" r="56.37" fill="#ffbf66" class="colorf9bb40 svgShape"></circle>
        <path fill="#933838" d="M363.631,171.114L363.631,171.114c0,9.098-7.375,16.474-16.474,16.474h-99.59
				c-9.098,0-16.474-7.375-16.474-16.474v0c0-9.098,7.375-16.474,16.474-16.474h99.59
				C356.256,154.64,363.631,162.016,363.631,171.114z" class="color386e93 svgShape"></path>
        <path fill="#3a3636" d="M355.829,189.356c6.817-3.255,11.551-10.197,11.551-18.242c0-8.395-5.144-15.609-12.444-18.663
				l5.979-7.804c7.966-10.481,12.178-22.897,12.178-35.907c0-14.064-5.032-27.693-14.17-38.375
				c-6.605-7.727-19.25-7.384-25.977,1.012l-5.508,6.874c-4.031,5.033-11.917,4.832-15.591-0.688l-0.144-0.217
				c-6.788-10.214-21.749-10.199-28.545-0.067l-0.256,0.38c-3.5,5.222-11.325,5.957-15.569,0.658l-5.596-6.985
				c-6.487-8.091-19.068-9.016-25.879-1.079c-18.057,21.025-18.916,52.317-2.043,74.407l5.971,7.794
				c-7.299,3.055-12.443,10.267-12.443,18.662c0,7.903,4.568,14.744,11.193,18.069c-27.426,28.737-47.951,61.622-65.828,94.459
				c-7.681-2.334-15.822-3.601-24.256-3.601c-46.099,0-83.601,37.504-83.601,83.601s37.502,83.601,83.601,83.601
				c15.514,0,30.044-4.262,42.509-11.655c12.987,7.521,28.004,11.655,44.227,11.655h123.838c69.945,0,108.96-73.955,76.592-136.886
				C414.434,269.146,390.81,225.984,355.829,189.356z M322.239,191.473l16.812,0.025v36.462c0,4.634-3.772,8.405-8.406,8.405
				s-8.406-3.771-8.406-8.405V191.473z M290.39,208.414c0,4.635-3.772,8.406-8.406,8.406s-8.406-3.771-8.406-8.406V191.47
				l16.81-0.025L290.39,208.414z M241.548,75.136c3.713-4.323,10.758-3.58,14.336,0.884l5.596,6.985
				c7.336,9.149,21.248,8.379,27.649-1.165l0.256-0.38c3.801-5.671,12.219-5.762,16.072,0.031l0.144,0.219
				c6.459,9.717,20.446,10.275,27.693,1.23l5.508-6.874c3.69-4.61,10.79-5.07,14.424-0.828c7.976,9.326,12.368,21.223,12.368,33.501
				c0,11.356-3.682,22.203-10.64,31.357l-8.269,10.793h-98.647l-8.265-10.79C225.039,120.813,225.786,93.491,241.548,75.136z
				 M247.568,158.391h99.59c7.014,0,12.722,5.708,12.722,12.723s-5.708,12.723-12.722,12.723h-99.59
				c-7.017,0-12.725-5.708-12.725-12.723S240.552,158.391,247.568,158.391z M72.351,363.642c0-41.962,34.138-76.101,76.101-76.101
				s76.101,34.139,76.101,76.101s-34.138,76.101-76.101,76.101S72.351,405.604,72.351,363.642z M359.026,439.743H235.188
				c-13.492,0-26.078-3.106-37.18-8.823c20.633-15.238,34.045-39.718,34.045-67.278c0-34.992-21.619-65.013-52.194-77.457
				c18.09-33.116,38.902-66.197,66.83-94.675l19.39-0.029v16.932c0,8.771,7.136,15.906,15.906,15.906s15.906-7.135,15.906-15.906
				l-0.001-16.978l16.849,0.025v36.498c0,8.77,7.136,15.905,15.906,15.905s15.906-7.135,15.906-15.905v-36.451l0.977,0.002
				c35.901,36.526,59.905,80.416,81.421,122.275C458.672,371.579,423.427,439.743,359.026,439.743z" class="color332e8e svgShape"></path>
        <path fill="#3a3636" d="M148.452 303.522c-33.149 0-60.12 26.969-60.12 60.12s26.97 60.12 60.12 60.12 60.12-26.969 60.12-60.12S181.601 303.522 148.452 303.522zM148.452 416.262c-29.014 0-52.62-23.605-52.62-52.62s23.606-52.62 52.62-52.62 52.62 23.605 52.62 52.62S177.466 416.262 148.452 416.262zM297.092 283.53c.008 0 .016.002.025.002.025 0 .048-.007.072-.007 11.384.001 20.643 9.333 20.643 20.804 0 2.072 1.68 3.75 3.75 3.75s3.75-1.678 3.75-3.75c0-14.35-10.682-26.212-24.465-28.034v-7.613c0-2.072-1.68-3.75-3.75-3.75s-3.75 1.678-3.75 3.75v7.631c-13.803 1.875-24.485 13.708-24.485 28.016 0 15.286 12.325 27.739 27.609 28.112.205.034.412.062.626.062.068 0 .131-.017.198-.02 11.325.07 20.517 9.37 20.517 20.799 0 11.381-9.255 20.641-20.635 20.647-.027-.001-.052-.008-.08-.008-.011 0-.022.003-.033.003-11.424-.056-20.702-9.292-20.702-20.642 0-2.072-1.68-3.75-3.75-3.75s-3.75 1.678-3.75 3.75c0 14.228 10.682 25.995 24.485 27.86v5.889c0 2.072 1.68 3.75 3.75 3.75s3.75-1.678 3.75-3.75v-5.871c13.783-1.812 24.465-13.608 24.465-27.878 0-15.598-12.609-28.289-28.116-28.304-.034-.001-.065-.01-.099-.01-.011 0-.022.003-.033.003-11.424-.056-20.702-9.292-20.702-20.642C276.382 292.889 285.664 283.582 297.092 283.53z" class="color332e8e svgShape"></path>
        <path fill="#3a3636" d="M148.452,340.585c0.002,0,0.003,0,0.005,0c0.015,0,0.029-0.004,0.044-0.004
				c5.43,0.003,9.849,4.462,9.849,9.942c0,2.072,1.68,3.75,3.75,3.75s3.75-1.678,3.75-3.75c0-8.337-5.853-15.317-13.643-17.031
				v-2.847c0-2.072-1.68-3.75-3.75-3.75s-3.75,1.678-3.75,3.75v2.862c-7.799,1.737-13.652,8.7-13.652,17.016
				c0,9.451,7.637,17.149,17.09,17.337c0.105,0.009,0.205,0.031,0.312,0.031c0.029,0,0.056-0.008,0.085-0.009
				c5.41,0.026,9.807,4.472,9.807,9.938c0,5.433-4.421,9.854-9.854,9.854c-5.481,0-9.941-4.42-9.941-9.854
				c0-2.072-1.68-3.75-3.75-3.75s-3.75,1.678-3.75,3.75c0,8.273,5.853,15.201,13.652,16.929v1.889c0,2.072,1.68,3.75,3.75,3.75
				s3.75-1.678,3.75-3.75v-1.874c7.789-1.705,13.643-8.65,13.643-16.944c0-9.612-7.776-17.431-17.335-17.442
				c-0.02,0-0.038-0.006-0.058-0.006c-0.002,0-0.003,0-0.005,0c-5.46-0.024-9.897-4.432-9.897-9.85
				C138.554,345.056,142.992,340.609,148.452,340.585z" class="color332e8e svgShape"></path>
      </g>
    </g>
  </g>
</svg>
