<svg xmlns="http://www.w3.org/2000/svg" viewBox="0 0 32 32" id="trash">
  <path fill="#ffbf66" d="M5,10h2V27c0,1.105,.895,2,2,2h14c1.105,0,2-.895,2-2V10h2c.552,0,1-.448,1-1v-2c0-.552-.448-1-1-1H5c-.552,0-1,.448-1,1v2c0,.552,.448,1,1,1Z" class="color97d8e8 svgShape"></path>
  <path fill="#3a3636" d="M27,5h-6v-1c0-1.654-1.346-3-3-3h-4c-1.654,0-3,1.346-3,3v1H5c-1.103,0-2,.897-2,2v2c0,1.103,.897,2,2,2h1V27c0,1.654,1.346,3,3,3h14c1.654,0,3-1.346,3-3V11h1c1.103,0,2-.897,2-2v-2c0-1.103-.897-2-2-2Zm-14-1c0-.551,.449-1,1-1h4c.551,0,1,.449,1,1v1h-6v-1Zm11,23c0,.551-.449,1-1,1H9c-.551,0-1-.449-1-1V11H24V27Zm3-20v2s-22,0-22,0v-2H27ZM11,24V15c0-.552,.448-1,1-1s1,.448,1,1v9c0,.552-.448,1-1,1s-1-.448-1-1Zm4,0V15c0-.552,.448-1,1-1s1,.448,1,1v9c0,.552-.448,1-1,1s-1-.448-1-1Zm4,0V15c0-.552,.448-1,1-1s1,.448,1,1v9c0,.552-.448,1-1,1s-1-.448-1-1Z" class="color1390a7 svgShape"></path>
</svg>
