<svg xmlns="http://www.w3.org/2000/svg" viewBox="0 0 512 512" id="settings">
  <path fill="#00efd1" d="M472.11,241.35l2.83,46.04-47.7,4.49A177.368,177.368,0,0,1,403.18,351l30.58,37.1L388.1,433.76,351,403.18a172.485,172.485,0,0,1-59.13,24.06l-4.48,47.7H222.97l-4.49-47.7a177.368,177.368,0,0,1-59.12-24.06l-37.1,30.58L78.24,389.74l30.58-37.1a177.334,177.334,0,0,1-24.06-59.13l-47.7-4.48V224.61l47.7-4.48a172.435,172.435,0,0,1,24.06-59.12l-30.58-37.1,45.67-45.67,37.1,30.58a177.368,177.368,0,0,1,59.12-24.06l4.48-47.7,46.04,2.84-14.03,86.72a130,130,0,1,0,130,130Z"></path>
  <polygon fill="#f4b844" points="460.09 51.92 433.93 95.43 342.11 187.24 324.7 169.95 324.72 169.93 416.57 78.08 460.09 51.92"></polygon>
  <path fill="#fedb41" d="M342.11,187.24l19.84,19.69L346.4,222.48a12.261,12.261,0,0,1-17.38-.04l-1.48-1.49-36.35-36.62-1.55-1.56a12.27,12.27,0,0,1,.04-17.32l15.18-15.19,19.84,19.69Z"></path>
  <path fill="#00acea" d="M291.19,184.33l36.35,36.62-.26.26-14.35,24.02A163.487,163.487,0,0,1,288.17,277l-51.85,51.85a37.587,37.587,0,0,1-53.27-.1l-.01-.01a37.593,37.593,0,0,1,.11-53.05l51.76-51.77a163.352,163.352,0,0,1,31.99-24.88l23.68-14.1Z"></path>
  <path fill="#083863" d="M479.1,240.92a7,7,0,0,0-8.218-6.461l-85.49,15.27a7,7,0,0,0-5.77,6.891,123,123,0,1,1-123-123,7,7,0,0,0,6.91-5.882l14.031-86.72a7,7,0,0,0-6.48-8.105l-46.04-2.84a6.988,6.988,0,0,0-7.4,6.332l-4,42.632a183.58,183.58,0,0,0-52.043,21.192l-33.232-27.39a7,7,0,0,0-9.4.452L73.29,118.96a7,7,0,0,0-.451,9.4l27.375,33.212a178.538,178.538,0,0,0-21.2,52.065l-42.637,4A7.026,7.026,0,0,0,30,224.61v64.42A7.026,7.026,0,0,0,36.375,296l42.646,4a183.549,183.549,0,0,0,21.2,52.053L72.835,385.288a7,7,0,0,0,.453,9.4l44.021,44.019a7,7,0,0,0,9.4.453l33.233-27.392a183.577,183.577,0,0,0,52.044,21.193L216,475.626A7.025,7.025,0,0,0,222.97,482h64.42a7.026,7.026,0,0,0,6.969-6.375l4-42.621a178.581,178.581,0,0,0,52.075-21.21l33.211,27.371a7,7,0,0,0,9.4-.454l45.661-45.66a7,7,0,0,0,.451-9.4L411.77,350.416a183.531,183.531,0,0,0,21.193-52.044l42.634-4.013a7,7,0,0,0,6.331-7.4Zm-52.514,43.991a7,7,0,0,0-6.2,5.54,169.755,169.755,0,0,1-23.112,56.787,7,7,0,0,0,.5,8.214l26.536,32.194-36.668,36.668-32.194-26.536a7,7,0,0,0-8.245-.481,164.8,164.8,0,0,1-56.729,23.083,7.035,7.035,0,0,0-5.578,6.235L281.017,468H229.342l-3.893-41.385a7.015,7.015,0,0,0-5.539-6.212,169.8,169.8,0,0,1-56.787-23.118,7,7,0,0,0-8.215.5l-32.194,26.534L87.686,389.287l26.536-32.194a7,7,0,0,0,.5-8.215,169.738,169.738,0,0,1-23.112-56.8,7.033,7.033,0,0,0-6.228-5.54L44,282.656V230.983L85.384,227.1a7.016,7.016,0,0,0,6.221-5.576A164.8,164.8,0,0,1,114.7,164.8a7,7,0,0,0-.479-8.245L87.684,124.364l36.679-36.678,32.194,26.536a7,7,0,0,0,8.215.5,169.769,169.769,0,0,1,56.787-23.111,7,7,0,0,0,5.541-6.2l3.845-40.951,31.561,1.947-11.865,73.338c-72.783,3.137-131.021,63.33-131.021,136.871,0,75.542,61.458,137,137,137,73.573,0,133.787-58.29,136.875-131.117l72.11-12.88,1.933,31.433Z"></path>
  <path fill="#083863" d="M263.321,193.024a170.5,170.5,0,0,0-33.361,25.947L178.2,270.74a44.762,44.762,0,0,0-.121,63.007A44.257,44.257,0,0,0,209.652,347h.086a44.35,44.35,0,0,0,31.533-13.133l51.848-51.884a170.629,170.629,0,0,0,25.819-33.146l10.53-17.668A19.012,19.012,0,0,0,337.676,233h.052a19.108,19.108,0,0,0,13.623-5.606L366.9,211.862a6.984,6.984,0,0,0-.019-9.905L352.03,187.218l86.849-86.839a7.028,7.028,0,0,0,1.05-1.342l26.16-43.51a7,7,0,0,0-9.606-9.607L412.964,72.081a6.965,6.965,0,0,0-1.344,1.049l-86.94,86.941-14.889-14.78a7,7,0,0,0-9.882.021L284.729,160.5a19.311,19.311,0,0,0-3.718,21.991Zm19.9,79.026-51.851,51.919A30.441,30.441,0,0,1,209.737,333h-.058A30.679,30.679,0,0,1,188.1,280.673l51.759-51.787a156.482,156.482,0,0,1,30.621-23.823L290.227,193.3l28.452,28.659L306.92,241.642A156.606,156.606,0,0,1,283.22,272.05ZM420.913,83.637l18.7-11.239L428.373,91.087,342.1,177.358l-7.479-7.424ZM294.631,170.4l10.25-10.256,32.3,32.065h0l14.852,14.741-10.581,10.545A5.2,5.2,0,0,1,337.727,219h-.014a5.175,5.175,0,0,1-3.727-1.528l-39.381-39.654A5.255,5.255,0,0,1,294.631,170.4Z"></path>
  <path fill="#083863" d="M288.26 229.4L212.6 305.06a7 7 0 1 0 9.9 9.9L298.16 239.3a7 7 0 1 0-9.9-9.9zM282.6 213.85a7 7 0 0 0-9.9 0l-75.66 75.66a7 7 0 0 0 9.9 9.9L282.6 223.75A7 7 0 0 0 282.6 213.85z"></path>
</svg>
