<svg xmlns="http://www.w3.org/2000/svg" enable-background="new 0 0 512 512" viewBox="0 0 512 512" id="ToolBox">
  <path fill="#ffbf66" d="M323.986 319.425c0 14.134-8.671 26.314-20.952 31.376v-17.894c0-5.514-4.511-10.024-10.024-10.024h-5.764c-5.514 0-10.024 4.511-10.024 10.024v17.894c-12.281-5.112-20.952-17.242-20.952-31.376 0-12.122 6.423-22.759 16.041-28.715 3.002-1.859 4.91-5.05 4.91-8.581v-64.016c0-3.522-1.898-6.708-4.889-8.567-9.631-5.986-16.063-16.636-16.063-28.81 0-14.085 8.671-26.164 20.952-31.227v17.843c0 5.564 4.511 10.024 10.024 10.024h5.764c5.514 0 10.024-4.461 10.024-10.024V149.51c12.281 5.062 20.952 17.142 20.952 31.227 0 12.168-6.426 22.849-16.047 28.816-2.998 1.86-4.903 5.048-4.903 8.576v64.001c0 3.531 1.908 6.722 4.91 8.581C317.563 296.666 323.986 307.303 323.986 319.425zM421.779 319.425c0 14.134-8.671 26.314-20.952 31.376v-17.894c0-5.514-4.511-10.024-10.024-10.024h-5.764c-5.514 0-10.024 4.511-10.024 10.024v17.894c-12.281-5.112-20.952-17.242-20.952-31.376 0-12.122 6.423-22.759 16.041-28.715 3.002-1.859 4.91-5.05 4.91-8.581v-64.016c0-3.522-1.898-6.708-4.889-8.567-9.631-5.986-16.063-16.636-16.063-28.81 0-14.085 8.671-26.164 20.952-31.227v17.843c0 5.564 4.511 10.024 10.024 10.024h5.764c5.514 0 10.024-4.461 10.024-10.024V149.51c12.281 5.062 20.952 17.142 20.952 31.227 0 12.168-6.426 22.849-16.047 28.816-2.998 1.86-4.903 5.048-4.903 8.576v64.001c0 3.531 1.908 6.722 4.91 8.581C415.356 296.666 421.779 307.303 421.779 319.425zM178.737 190.83L125.9 299.947c-2.96 6.115-10.36 8.685-16.475 5.725-3.104-1.503-5.287-4.07-6.33-7.071-.996-2.979-.922-6.368.559-9.426l52.859-109.163" class="colord7e9ff svgShape"></path>
  <path fill="#ff8066" d="M153.291 169.162l-14.362.884c-1.798.116-3.583-.516-4.906-1.737l-29.559-27.087c-2.175-1.982-2.777-5.176-1.501-7.811l.204-.423c1.275-2.633 4.154-4.143 7.059-3.665l39.579 6.392c1.78.282 3.381 1.29 4.428 2.725l8.214 11.815M187.648 187.656l8.063 14.645c1.124 1.995 2.828 3.633 4.897 4.636l10.817 5.238c3.339 1.617 7.319.234 8.935-3.105l14.962-30.901c1.617-3.339.234-7.319-3.105-8.935l-10.817-5.238c-2.069-1.002-4.411-1.323-6.674-.967l-16.489 2.757" class="color94c1ff svgShape"></path>
  <circle cx="175.848" cy="168.423" r="22.531" fill="#ff8066" class="color94c1ff svgShape"></circle>
  <rect width="378.667" height="34.104" x="66.666" y="60.65" fill="#ffbf66" class="colord7e9ff svgShape"></rect>
  <path fill="#ffbf66" d="M66.667 405.71V45.118c0-10.355-8.395-18.75-18.75-18.75s-18.75 8.395-18.75 18.75V405.71H66.667zM482.833 405.71V45.118c0-10.355-8.395-18.75-18.75-18.75-10.355 0-18.75 8.395-18.75 18.75V405.71H482.833z" class="colord7e9ff svgShape"></path>
  <path fill="#ff8066" d="M506.666,262.458v206.133c0,9.441-7.627,17.067-17.013,17.067H22.347c-9.387,0-17.013-7.627-17.013-17.067V262.458c0-9.44,7.627-17.067,17.013-17.067h467.306C499.04,245.391,506.666,253.018,506.666,262.458z" class="color94c1ff svgShape"></path>
  <path fill="#3a3636" d="M489.632,240.073h-1.466V45.118c0-13.278-10.805-24.083-24.083-24.083c-13.278,0-24.083,10.805-24.083,24.083v10.198H72V45.118c0-13.278-10.805-24.083-24.083-24.083S23.834,31.839,23.834,45.118v194.955h-1.466c-12.333,0-22.367,10.033-22.367,22.367c0,117.097,0,92.194,0,206.156c0,12.336,10.033,22.37,22.367,22.37h467.265c12.333,0,22.367-10.033,22.367-22.37c0-115.516,0-90.638,0-206.156C511.999,250.106,501.966,240.073,489.632,240.073z M10.667,330.815h490.666v69.409H10.667V330.815z M450.666,45.118c0-7.398,6.018-13.417,13.417-13.417c7.398,0,13.417,6.018,13.417,13.417v194.955h-26.833C450.666,226.802,450.666,33.84,450.666,45.118z M372.94,205.016c-8.482-5.271-13.544-14.349-13.544-24.282c0-8.628,3.864-16.567,10.286-21.877v8.495c0,8.469,6.888,15.359,15.357,15.359h5.763c8.469,0,15.359-6.89,15.359-15.359v-8.495c6.422,5.31,10.284,13.25,10.284,21.877c0,9.955-5.054,19.034-13.524,24.284c-4.651,2.883-7.427,7.784-7.427,13.11v21.945h-15.146v-21.961C380.349,212.794,377.578,207.899,372.94,205.016z M406.162,218.128c0-1.607,0.891-3.119,2.381-4.042c11.627-7.211,18.57-19.677,18.57-33.351c0-15.89-9.519-30.083-24.25-36.156c-3.549-1.462-7.367,1.172-7.367,4.93v17.843c0,2.588-2.104,4.693-4.693,4.693h-5.763c-2.586,0-4.69-2.104-4.69-4.693v-17.843c0-3.792-3.854-6.372-7.367-4.93c-14.732,6.072-24.253,20.265-24.253,36.156c0,13.646,6.945,26.11,18.581,33.341c1.485,0.922,2.372,2.432,2.372,4.036v21.961h-61.315v-21.945c0-1.607,0.891-3.117,2.381-4.042c11.63-7.211,18.573-19.68,18.573-33.351c0-15.89-9.521-30.083-24.253-36.156c-3.549-1.462-7.367,1.172-7.367,4.93v17.843c0,2.588-2.104,4.693-4.69,4.693h-5.763c-2.588,0-4.693-2.104-4.693-4.693v-17.843c0-3.796-3.85-6.37-7.367-4.93c-14.732,6.072-24.25,20.265-24.25,36.156c0,13.646,6.945,26.11,18.581,33.341c1.485,0.922,2.369,2.43,2.369,4.036v21.961H160.818l21.623-44.656c2.492-0.612,1.209-0.205,2.933-0.831l5.687,10.33c1.682,2.99,4.18,5.349,7.221,6.82l10.815,5.237c5.991,2.902,13.153,0.419,16.06-5.578l14.963-30.901c2.902-5.991,0.419-13.153-5.578-16.06l-10.823-5.242c-3.044-1.468-6.445-1.964-9.875-1.424l-11.588,1.938c-2.284-6.91-7.214-12.935-14.267-16.349c-7.834-3.799-16.54-3.464-23.877-0.045l-5.576-8.018c-1.885-2.586-4.766-4.351-7.883-4.847l-39.568-6.391c-11.405-1.875-19.245,12.873-10.229,21.096l29.547,27.075c2.206,2.033,5.125,3.164,8.091,3.164c0.602,0,0.485-0.014,10.353-0.615c0.955,4.035,0.454,2.283,1.767,5.169l-29.115,60.127H72V100.086h367.999v139.986h-33.838v-21.945H406.162z M275.148,205.016c-8.482-5.271-13.544-14.349-13.544-24.282c0-8.628,3.862-16.567,10.284-21.877v8.495c0,8.469,6.89,15.359,15.359,15.359h5.763c8.469,0,15.357-6.89,15.357-15.359v-8.495c6.422,5.31,10.286,13.25,10.286,21.877c0,9.955-5.057,19.034-13.529,24.287c-4.648,2.883-7.425,7.784-7.425,13.107v21.945h-15.146v-21.961C282.554,212.792,279.786,207.896,275.148,205.016z M138.581,164.722c-0.367,0.034-0.696-0.104-0.956-0.346l-29.568-27.096c-0.901-0.818-0.083-2.95,1.315-2.693l39.598,6.396c0.36,0.058,0.724,0.287,0.881,0.5l5.642,8.116c-4.085,4.407-6.09,8.461-7.052,14.517L138.581,164.722z M215.557,168.297c1.219-0.19,2.464-0.013,3.518,0.497l10.817,5.239c0.682,0.329,0.967,1.116,0.63,1.809l-14.963,30.901c-0.323,0.67-1.093,0.968-1.813,0.63l-10.815-5.237c-1.06-0.513-1.972-1.383-2.549-2.408l-5.85-10.626c5.201-4.707,8.584-11.26,9.08-18.808L215.557,168.297z M191.329,175.93c-4.125,8.52-14.352,12.15-22.977,7.985c-8.53-4.131-12.134-14.399-7.982-22.974c4.11-8.491,14.397-12.134,22.974-7.985C191.88,157.089,195.461,167.396,191.329,175.93z M157.82,189.55c3.586,3.054,7.248,5.124,12.611,6.198l-21.463,44.325h-15.613L157.82,189.55z M440,65.982v23.437H72V65.982H440z M34.501,45.118c0-7.398,6.018-13.417,13.417-13.417s13.417,6.018,13.417,13.417c0,39.737,0,133.039,0,194.955H34.501V45.118z M10.667,262.44c0-6.451,5.25-11.7,11.7-11.7h467.265c6.451,0,11.7,5.25,11.7,11.7v57.708H10.667V262.44z M501.333,468.596c0,6.453-5.25,11.703-11.7,11.703H22.368c-6.451,0-11.7-5.25-11.7-11.703V410.89h490.666v57.706H501.333z" class="color116fff svgShape"></path>
  <path fill="#3a3636" d="M52.437 264.355h-9.042c-2.946 0-5.334 2.388-5.334 5.334s2.388 5.334 5.334 5.334h9.042c2.946 0 5.334-2.388 5.334-5.334S55.383 264.355 52.437 264.355zM52.437 296.557h-9.042c-2.946 0-5.334 2.388-5.334 5.334 0 2.945 2.388 5.334 5.334 5.334h9.042c2.946 0 5.334-2.388 5.334-5.334C57.771 298.945 55.383 296.557 52.437 296.557zM468.603 264.355h-9.042c-2.946 0-5.334 2.388-5.334 5.334s2.388 5.334 5.334 5.334h9.042c2.946 0 5.334-2.388 5.334-5.334S471.549 264.355 468.603 264.355zM468.603 296.557h-9.042c-2.946 0-5.334 2.388-5.334 5.334 0 2.945 2.388 5.334 5.334 5.334h9.042c2.946 0 5.334-2.388 5.334-5.334C473.937 298.945 471.549 296.557 468.603 296.557zM52.437 344.083h-9.042c-2.946 0-5.334 2.388-5.334 5.334 0 2.945 2.388 5.334 5.334 5.334h9.042c2.946 0 5.334-2.388 5.334-5.334C57.771 346.472 55.383 344.083 52.437 344.083zM52.437 376.286h-9.042c-2.946 0-5.334 2.388-5.334 5.334 0 2.946 2.388 5.334 5.334 5.334h9.042c2.946 0 5.334-2.388 5.334-5.334C57.771 378.674 55.383 376.286 52.437 376.286zM468.603 344.083h-9.042c-2.946 0-5.334 2.388-5.334 5.334 0 2.945 2.388 5.334 5.334 5.334h9.042c2.946 0 5.334-2.388 5.334-5.334C473.937 346.472 471.549 344.083 468.603 344.083zM468.603 376.286h-9.042c-2.946 0-5.334 2.388-5.334 5.334 0 2.946 2.388 5.334 5.334 5.334h9.042c2.946 0 5.334-2.388 5.334-5.334C473.937 378.674 471.549 376.286 468.603 376.286zM43.397 434.826h9.042c2.946 0 5.334-2.388 5.334-5.334 0-2.946-2.388-5.334-5.334-5.334h-9.042c-2.946 0-5.334 2.388-5.334 5.334C38.063 432.438 40.451 434.826 43.397 434.826zM43.397 467.028h9.042c2.946 0 5.334-2.388 5.334-5.334 0-2.946-2.388-5.334-5.334-5.334h-9.042c-2.946 0-5.334 2.388-5.334 5.334C38.063 464.64 40.451 467.028 43.397 467.028zM459.562 434.826h9.042c2.946 0 5.334-2.388 5.334-5.334 0-2.946-2.388-5.334-5.334-5.334h-9.042c-2.946 0-5.334 2.388-5.334 5.334C454.229 432.438 456.617 434.826 459.562 434.826zM459.562 467.028h9.042c2.946 0 5.334-2.388 5.334-5.334 0-2.946-2.388-5.334-5.334-5.334h-9.042c-2.946 0-5.334 2.388-5.334 5.334C454.229 464.64 456.617 467.028 459.562 467.028z" class="color116fff svgShape"></path>
</svg>
