<svg xmlns="http://www.w3.org/2000/svg" fill-rule="evenodd" clip-rule="evenodd" image-rendering="optimizeQuality" shape-rendering="geometricPrecision" text-rendering="geometricPrecision" viewBox="0 0 4335 4335" id="Alert">
  <path fill="#301313" fill-rule="nonzero" d="M2168 1004l0 0c67,0 128,28 173,72l0 0 0 1 0 0c44,44 72,105 72,173l0 1619c0,29 -23,51 -51,51l-389 0c-28,0 -51,-22 -51,-51l0 -1619c0,-68 28,-129 72,-173l0 -1 0 0 0 0c45,-44 106,-72 174,-72zm1514 2771l0 0c1,0 2,0 3,0 57,-2 112,-19 158,-49 46,-29 84,-72 109,-124 20,-44 29,-90 27,-136 -2,-47 -16,-93 -40,-136l-1515 -2623c-27,-47 -64,-83 -107,-107 -45,-27 -97,-40 -150,-40 -52,0 -104,13 -150,40 -42,24 -79,60 -107,107l-1514 2624c-24,41 -38,87 -40,133 -2,46 6,93 26,136 25,53 63,96 109,126 47,30 103,47 162,49l0 0 0 0 3029 0zm0 101l0 0 -3029 0 0 0 0 0 -1 0c-79,-2 -153,-24 -216,-65 -62,-40 -113,-98 -146,-169 -27,-58 -38,-120 -35,-182 3,-63 21,-124 53,-180l1515 -2624c36,-63 86,-111 143,-144 62,-36 132,-53 201,-53 70,0 139,17 201,53 57,33 107,81 144,145l1515 2623c32,57 50,119 53,181 3,63 -9,125 -37,184 -33,70 -84,127 -146,167 -61,39 -133,62 -209,64 -2,0 -4,0 -6,0zm3 254l-3035 0c-2,0 -4,0 -5,0 -127,-3 -247,-41 -348,-107 -101,-66 -184,-159 -237,-274 -45,-96 -64,-199 -59,-301 5,-102 34,-203 87,-295l0 0 0 0 1515 -2624c0,-1 1,-2 2,-2 60,-103 141,-181 234,-235 101,-58 215,-87 328,-87 114,0 228,29 329,87 1,1 2,1 3,2 92,54 173,133 233,236l1514 2623 1 0c53,93 83,195 87,298 5,102 -15,206 -61,303 -54,113 -137,206 -237,271 -102,65 -222,102 -348,105l-2 0 -1 0 0 0zm-3035 -101l3035 0 0 0 1 0c107,-3 209,-34 295,-90 85,-55 155,-133 200,-229 39,-81 56,-168 52,-255 -4,-87 -29,-173 -74,-251l0 0 0 -1 -1515 -2623c-50,-87 -118,-153 -196,-199l-3 -1c-85,-49 -181,-74 -278,-74 -96,0 -193,25 -278,74 -78,45 -147,111 -197,197 -1,1 -1,2 -2,3l-1514 2624 0 0c-45,77 -70,163 -74,249 -4,86 12,173 50,254 45,97 115,176 200,231 86,56 188,88 295,91 1,0 2,0 3,0zm1389 -631l257 0c4,0 8,-2 11,-4 3,-3 4,-7 4,-12l0 -218c0,-4 -1,-8 -4,-11 -3,-3 -7,-5 -11,-5l-257 0c-4,0 -8,2 -11,5 -3,3 -4,7 -4,11l0 218c0,5 1,9 4,12 3,2 7,4 11,4zm257 102l-257 0c-32,0 -61,-13 -83,-35 -21,-21 -34,-50 -34,-83l0 -218c0,-32 13,-62 34,-83 22,-21 51,-34 83,-34l257 0c32,0 61,13 83,34 21,21 34,51 34,83l0 218c0,33 -13,62 -34,83 -22,22 -51,35 -83,35zm-128 -2394l0 0c-40,0 -76,16 -102,42l0 0c-26,26 -42,62 -42,102l0 1569 287 0 0 -1569c0,-40 -16,-76 -42,-102l0 0c-26,-26 -62,-42 -101,-42z" class="color2b1330 svgShape"></path>
  <path fill="#ffbf66" d="M2168 1004c134,0 245,111 245,246l0 1619c0,29 -23,51 -51,51l-389 0c-28,0 -51,-22 -51,-51l0 -1619c0,-135 111,-246 246,-246zm1514 2771c218,0 376,-239 257,-445l-1515 -2623c-113,-196 -400,-196 -514,0l-1514 2624c-114,196 26,439 257,444l0 0 3029 0zm-1386 -728c64,0 117,52 117,117l0 218c0,65 -53,118 -117,118l-257 0c-64,0 -117,-53 -117,-118l0 -218c0,-65 53,-117 117,-117l257 0z" class="colorf8f8f8 svgShape"></path>
  <path fill="#3a3636" d="M2311 1250c0,-80 -64,-144 -143,-144 -80,0 -144,64 -144,144l0 1569 287 0 0 -1569z" class="color333333 svgShape"></path>
  <polygon fill="#3a3636" points="2296 3148 2039 3148 2024 3164 2024 3382 2039 3398 2296 3398 2311 3382 2311 3164" class="color333333 svgShape"></polygon>
  <path fill="#ff8066" d="M2512 657l1515 2623c107,186 49,418 -130,532 -60,38 -140,64 -215,64l-3029 0 0 0c-305,-3 -499,-329 -345,-596l1515 -2624c152,-263 536,-264 689,1zm1647 2547l0 0zm-3983 0l0 0zm474 825l3035 0 0 0c424,-8 686,-459 474,-825l-1515 -2624c-155,-269 -496,-349 -755,-200 -79,46 -148,112 -199,200l-1514 2624c-148,255 -68,576 176,734 84,55 193,91 298,91z" class="coloreb1e2d svgShape"></path>
</svg>
