<svg xmlns="http://www.w3.org/2000/svg" viewBox="0 0 32 32" id="labor">
  <path fill="#ff8066" d="M9.244,7.1h4a0,0,0,0,1,0,0v20a1,1,0,0,1-1,1h-2a1,1,0,0,1-1-1V7.1a0,0,0,0,1,0,0Z" transform="rotate(40 11.244 17.604)" class="colord8d9dc svgShape"></path>
  <path fill="#ff8066" d="M23.739,14.38l-10.725-9a1,1,0,0,1-.123-1.409L15.462.908A1,1,0,0,1,16.871.785L24.29,7.01a1,1,0,0,1,.323.507l1.364,5.088a1,1,0,0,1-.2.9l-.63.75A1,1,0,0,1,23.739,14.38Z" class="colord8d9dc svgShape"></path>
  <polyline fill="#ffbf66" points="18.542 31.449 12.715 25.622 19.786 18.551 29.272 28.037" class="colorfedaaa svgShape"></polyline>
  <path fill="#ffbf66" d="M14.644,25.215a5.849,5.849,0,0,1-5.149-.883L6.351,22.087l4.579-4.969,6.027-4.224,1.386,1.386a5.9,5.9,0,0,1,1.2,6.761" class="colorfedaaa svgShape"></path>
  <rect width="3" height="8" x="4.498" y="15.612" fill="#ffbf66" rx="1.5" ry="1.5" transform="rotate(-45 5.997 19.612)" class="colorfedaaa svgShape"></rect>
  <rect width="3" height="8" x="5.912" y="12.784" fill="#ffbf66" rx="1.5" ry="1.5" transform="rotate(-45 7.412 16.784)" class="colorfedaaa svgShape"></rect>
  <rect width="3" height="9" x="7.68" y="9.809" fill="#ffbf66" rx="1.5" ry="1.5" transform="rotate(-45 9.18 14.309)" class="colorfedaaa svgShape"></rect>
  <rect width="3" height="8" x="10.155" y="8.541" fill="#ffbf66" rx="1.5" ry="1.5" transform="rotate(-45 11.654 12.54)" class="colorfedaaa svgShape"></rect>
  <path fill="#ffbf66" d="M17.665,13.6l-.707-.707a2,2,0,0,0-2.828,0l-.707.707-1.061,1.061a1.5,1.5,0,0,0,2.121,2.121l1.061-1.061" class="colorfedaaa svgShape"></path>
  <path d="M29.624,27.686l-9.012-9.022a6.469,6.469,0,0,0-1.918-4.738l-.6-.6,1.494-1.777,3.826,3.21a1.489,1.489,0,0,0,.961.351c.044,0,.089,0,.133-.006a1.482,1.482,0,0,0,1.018-.53l.629-.75a1.5,1.5,0,0,0,.3-1.353L25.1,7.388a1.489,1.489,0,0,0-.485-.76L17.193.4A1.5,1.5,0,0,0,15.08.587L12.508,3.651a1.5,1.5,0,0,0,.185,2.113l3.061,2.569-2.5,2.98L11.3,9.349a2.046,2.046,0,0,0-2.821.007A2,2,0,0,0,7.924,10.4a2.055,2.055,0,0,0-2.273.369,1.959,1.959,0,0,0-.375,2.3,1.943,1.943,0,0,0-1.049.531,2,2,0,0,0-.365,2.3,1.938,1.938,0,0,0-1.045.522,2,2,0,0,0,0,2.837l2.056,2.056L3.231,23.274a1.486,1.486,0,0,0,.178,2.106L4.94,26.673a1.5,1.5,0,0,0,.961.347,1.518,1.518,0,0,0,1.153-.528l1.723-2.056.421.3a6.413,6.413,0,0,0,3.117,1.174.473.473,0,0,0,.043.064l5.49,5.49a.5.5,0,0,0,.707-.707L13.71,25.912a5.893,5.893,0,0,0,1.078-.215.5.5,0,0,0-.3-.955,4.967,4.967,0,0,1-1.614.217,5.424,5.424,0,0,1-3.1-1.037L8.69,23.145a2,2,0,0,0,.494-.352h0a2,2,0,0,0,.374-2.279,1.975,1.975,0,0,0,1.03-.546,1.9,1.9,0,0,0,.571-1.548c.051,0,.1.007.153.007a1.945,1.945,0,0,0,1.4-.583,2.044,2.044,0,0,0,.171-.206,2,2,0,0,0,.545.081,1.961,1.961,0,0,0,1.4-.586l1.06-1.06a.5.5,0,1,0-.707-.707L14.124,16.43a1,1,0,0,1-1.218.144.75.75,0,0,1-.191-.147,1,1,0,0,1-.166-1.16.7.7,0,0,1,.166-.253l1.772-1.762a1.521,1.521,0,0,1,2.121,0l.7.7,0,0,.678.678a5.468,5.468,0,0,1,1.624,4.216,4.894,4.894,0,0,1-.509,1.97.5.5,0,1,0,.9.441,5.989,5.989,0,0,0,.467-1.328l8.451,8.46a.5.5,0,0,0,.707-.707ZM13.336,5a.5.5,0,0,1-.062-.705l2.571-3.064a.5.5,0,0,1,.34-.177.511.511,0,0,1,.365.115l7.419,6.226a.5.5,0,0,1,.162.254l1.364,5.088a.5.5,0,0,1-.1.45l-.63.75a.5.5,0,0,1-.339.177A.468.468,0,0,1,24.061,14l-4.207-3.53h0l-3.07-2.58s-.011,0-.015-.008ZM6.292,25.845a.509.509,0,0,1-.708.063L4.051,24.614a.486.486,0,0,1-.057-.693l1.589-1.892.764.764a1.888,1.888,0,0,0,.775.463l.838.6Zm2.186-3.759h0a.977.977,0,0,1-.99.247.912.912,0,0,1-.432-.247l-3.53-3.53a1,1,0,0,1,0-1.423.98.98,0,0,1,.707-.283A1,1,0,0,1,4.9,17.1L8.474,20.67A1.009,1.009,0,0,1,8.477,22.086Zm1.689-3.649a.927.927,0,0,1-.28.819.969.969,0,0,1-.962.255.453.453,0,0,0-.053-.005.841.841,0,0,0-.159-.01l-.859-.857-.009-.014-2.907-2.9a1.008,1.008,0,0,1,0-1.415,1.028,1.028,0,0,1,1.414,0l2.72,2.711,0,0,.809.809a1.927,1.927,0,0,0,.352.281A.49.49,0,0,0,10.167,18.437ZM12,17.141a.975.975,0,0,1-.8.28.9.9,0,0,1-.607-.285L6.354,12.9a1,1,0,0,1-.3-.715.982.982,0,0,1,.3-.7.951.951,0,0,1,.7-.287.967.967,0,0,1,.707.294l3.753,3.753a1.958,1.958,0,0,0,.486,1.9h0Zm.005-2.835h0L9.181,11.473a.977.977,0,0,1-.293-.7,1,1,0,0,1,.3-.714,1.029,1.029,0,0,1,1.414,0L13.423,12.9Zm5.382-1.685-.072-.072a2.566,2.566,0,0,0-3.148-.319l-.2-.2,2.556-3.048,2.3,1.934Z" fill="#3a3636" class="color000000 svgShape"></path>
</svg>
