<svg xmlns="http://www.w3.org/2000/svg" viewBox="0 0 64 64" id="LetterWriting">
  <path fill="#ffbf66" d="M52.97191,13V58H16.97191c-3.31,0-6-2.69-6-6V12c0-2.21002-1.78998-4-4-4H47.97191c2.76001,0,5,2.23999,5,5Z" class="colore6f3ff svgShape"></path>
  <path fill="#3a3636" d="M52.97191,59H16.97191c-3.85986,0-7-3.14062-7-7V12c0-1.6543-1.3457-3-3-3-1.29617-.00652-1.3263-1.98358,.00006-1.99999-.00006-.00001,40.99994-.00001,40.99994-.00001,3.30859,0,6,2.69141,6,6V58c0,.55273-.44775,1-1,1ZM10.96947,9c.62891,.83594,1.00244,1.875,1.00244,3V52c0,2.75684,2.24316,5,5,5H51.97191V13c0-2.20605-1.79443-4-4-4H10.96947Z" class="color21257c svgShape"></path>
  <path fill="#ff8066" d="M53.97191,48H19.97191c6.61081,.20485,6.606,9.79732,0,10H53.97191c2.76141,0,5-2.23859,5-5s-2.23859-5-5-5Z" class="color4aa5ff svgShape"></path>
  <path fill="#3a3636" d="M53.97191,59H19.97191c-.55225,0-1-.44727-1-1s.44775-1,1-1c5.28771-.16794,5.28359-7.83374-.00009-8-1.30607-.01725-1.32034-1.97892,.00014-1.99999-.00005,0,33.99995,0,33.99995,0,3.30859,0,6,2.69141,6,6s-2.69141,6-6,6Zm-29.53174-2h29.53174c2.20557,0,4-1.79395,4-4s-1.79443-4-4-4H24.44017c2.01379,2.08304,2.01363,5.91707,0,8Z" class="color21257c svgShape"></path>
  <path fill="#3a3636" d="M19.26879,55.68848c-5.9145-.38741-4.76462-8.65939,.74177-8.67669,1.31462,.02318,1.31441,1.97731-.00011,1.99993-2.82521-.10035-3.97387,4.40754-.7416,4.67683,.75727-.00008,1.37348-.61629,1.37348-1.3741,0-.49609-.40332-.89941-.89893-.89941-.55225,0-1-.44727-1-1s.44775-1,1-1c1.59863,0,2.89893,1.30078,2.89893,2.89941,0,1.86035-1.51318,3.37402-3.37354,3.37402Z" class="color21257c svgShape"></path>
  <path fill="#ff8066" d="M10.97192,12.22552v19.77448c-.16141,5.28306-7.83654,5.28969-8.00001-.00009,0,.00009,0-19.99991,0-19.99991,.27857-5.44177,7.84339-5.20132,8.00001,.22552Z" class="color4aa5ff svgShape"></path>
  <path fill="#3a3636" d="M6.97191,37c-2.75684,0-5-2.24316-5-5V12c-.06218-2.5844,2.18567-4.92898,4.7603-4.99409,2.80962-.19475,5.30075,2.44225,5.23965,5.21972,.00005-.00004,.00005,19.77437,.00005,19.77437,0,2.75684-2.24316,5-5,5Zm-.01416-27.99902c-1.59633-.02828-3.02281,1.39363-2.98581,2.99905-.00003-.00003-.00003,19.99997-.00003,19.99997,.10213,3.95155,5.89602,3.95883,6-.00009,0,.00009,0-19.77432,0-19.77432,.03678-1.62086-1.36424-3.25457-3.01416-3.22461Z" class="color21257c svgShape"></path>
  <path fill="#3a3636" d="M6.97191,33c-.55225,0-1-.44727-1-1v-9c0-2.20605,1.79443-4,4-4h1c1.314,.02352,1.31521,1.97696-.00004,2,.00004,0-.99996,0-.99996,0-1.10303,0-2,.89746-2,2v9c0,.55273-.44775,1-1,1Z" class="color21257c svgShape"></path>
  <path fill="#ff8066" d="M45.71251,37.82422l2.2594-2.82422,2.93201,.97736,.09314-.04443,2.97485-7.93292s3,1,5.6393-7.99997c1.83365-6.25272,1.3607-12.00003,1.3607-12.00003-4.56691,2.16779-8.31977,5.72832-11,10l-2-1-3,6-1.39362-2.09039c-6.88202,8.76398-4.60638,16.09039-4.60638,16.09039,2.5271,.80408,4.76068,1.03516,6.7406,.82422Z" class="color4aa5ff svgShape"></path>
  <path fill="#3a3636" d="M44.31371 38.89746c-1.77734 0-3.66943-.31641-5.64502-.94434-.31152-.09961-.55469-.34473-.65186-.65625-.09912-.32031-2.34912-7.93164 4.7749-17.00488.3858-.53454 1.26847-.49579 1.61865.06253 0-.00003.43799.6572.43799.6572l2.229-4.45898c.24658-.49414.8457-.69336 1.3418-.44727l1.21045.60547c2.73851-4.1599 6.4931-7.48221 10.83106-9.57422.60187-.32195 1.44638.09573 1.50781.78127.02002.24217.4668 6.00486-1.39795 12.36326-1.60432 5.01146-2.96948 7.9365-5.90527 8.7168l-2.73145 7.28613c-.18153.52219-.83664.78295-1.3462.6416l-2.2705-.75684-1.82373 2.28027c-.53384.59713-1.44777.37535-2.17969.44824zm1.39893-1.07324h0zm-5.90332-1.61523c1.91895.55469 3.7251.77246 5.38916.65723l1.99268-2.49121c.26172-.32715.7002-.45898 1.09717-.32324l2.08545.69531 2.66162-7.09863c.14445-.54126.74787-.86997 1.25195-.59766-.00928-.01465 2.20605.02734 4.36426-7.33203 1.20557-4.11133 1.3833-8.02051 1.37354-10.0957-3.76352 2.09733-6.9001 5.23051-9.22116 8.93167-.27982.41892-.82864.5654-1.27933.33982l-1.10547-.55273-2.55273 5.10547c-.31212.67523-1.3327.73818-1.72656.10739 0 .00003-.60791-.91208-.60791-.91208-4.62256 6.53711-4.04785 11.93359-3.72266 13.56641zM39.97191 19H17.97191c-1.30734-.01982-1.32015-1.97749.00005-2-.00005 0 21.99995 0 21.99995 0 1.30734.01982 1.32015 1.97749 0 2zM35.97191 25H17.97191c-1.31006-.02063-1.31791-1.97774.00005-2-.00005 0 17.99995 0 17.99995 0 1.30875.02023 1.31899 1.97761 0 2zM34.97191 31H17.97191c-1.3091-.02034-1.31871-1.97765.00005-2-.00005 0 16.99995 0 16.99995 0 1.3091.02034 1.31871 1.97765 0 2zM31.97191 37h-14c-1.31011-.02064-1.31787-1.97774.00005-2-.00005 0 13.99995 0 13.99995 0 1.31011.02064 1.31787 1.97774 0 2zM30.97191 43h-13c-1.31137-.02103-1.31684-1.97786.00005-2-.00005 0 12.99995 0 12.99995 0 1.31044.02075 1.3176 1.97777 0 2z" class="color21257c svgShape"></path>
  <path fill="#ff8066" d="M41.97191 10c-2.21002 0-4 2.23747-4 5 0-2.76253-1.78998-5-4-5 2.21002 0 4-2.23755 4-5 0 2.76245 1.78998 5 4 5zM11.97191 46c-2.21002 0-4 2.23747-4 5 0-2.76253-1.78998-5-4-5 2.21002 0 4-2.23755 4-5 0 2.76245 1.78998 5 4 5z" class="color4aa5ff svgShape"></path>
  <path fill="#3a3636" d="M33.97289,42c-.93714,.03258-1.38134-1.3016-.57025-1.82228,.12835-.08885,12.90277-9.02049,19.7055-20.68162,.67043-1.11345,2.376-.14899,1.72751,1.00786-7.354,12.26804-19.76247,21.27929-20.86276,21.49605Z" class="color21257c svgShape"></path>
</svg>
