<svg xmlns="http://www.w3.org/2000/svg" version="1" viewBox="0 0 32 32" id="UpArrow">
  <path fill="#ff8066" d="M3 13.016c0-.534.208-1.036.586-1.414l7.967-7.967C11.895 3.247 12.437 3 13 3s1.105.247 1.488.678l7.926 7.924c.378.377.586.879.586 1.414a2.001 2.001 0 0 1-3.414 1.414L15 9.844V20.99c.009.657.248 4.01 4 4.01h8c1.103 0 2 .897 2 2s-.897 2-2 2h-8c-6.286 0-7.981-5.225-8-7.986V9.844L6.414 14.43A2.001 2.001 0 0 1 3 13.016z" class="color26de81 svgShape"></path>
  <path fill="#3a3636" d="M27 30h-8c-7.071 0-8.979-5.874-9-8.979v-8.763l-2.879 2.879c-1.132 1.133-3.11 1.133-4.243 0A2.983 2.983 0 0 1 2 13.016c0-.801.312-1.555.879-2.121l7.967-7.967C11.341 2.364 12.162 2 13 2c.848 0 1.663.369 2.235 1.013l7.886 7.881A2.98 2.98 0 0 1 24 13.016c0 .801-.312 1.555-.879 2.121-1.132 1.133-3.11 1.133-4.243 0L16 12.258v8.732c.013.895.331 3.01 3 3.01h8c1.654 0 3 1.346 3 3s-1.346 3-3 3zM11 8.844a1 1 0 0 1 1 1v11.17c.002.278.126 6.986 7 6.986h8c.551 0 1-.449 1-1s-.449-1-1-1h-8c-3.638 0-4.967-2.691-5-4.996V9.844a1.002 1.002 0 0 1 1.707-.707l4.586 4.586a1.024 1.024 0 0 0 1.413 0c.192-.192.294-.436.294-.707s-.102-.515-.293-.707l-7.926-7.924c-.456-.508-1.153-.457-1.479-.088l-8.009 8.012c-.191.191-.293.436-.293.707s.102.515.293.707a1.024 1.024 0 0 0 1.413 0l4.587-4.586A.996.996 0 0 1 11 8.844z" class="color4b6584 svgShape"></path>
</svg>
