<svg xmlns="http://www.w3.org/2000/svg" enable-background="new 0 0 64 64" viewBox="0 0 64 64" id="Telescope">
  <path fill="#3a3636" d="M63.511,38.76l-3.36-1.9c-0.22-0.13-0.49-0.17-0.73-0.1c-0.25,0.07-0.46,0.24-0.59,0.46l-0.24,0.43
		l-3.15-1.79l0.35-0.63c0.27-0.47,0.11-1.06-0.36-1.32l-21.45-12.2l0.12-0.21c0.26-0.47,0.1-1.06-0.37-1.32l-13.28-7.55l0.08-0.13
		c0.26-0.47,0.1-1.06-0.37-1.32L8.511,4.56c-0.22-0.13-0.48-0.16-0.73-0.1c-0.25,0.07-0.46,0.24-0.59,0.46l-7.06,12.43
		c-0.27,0.46-0.11,1.05,0.36,1.32l11.65,6.62c0.14,0.09,0.31,0.13,0.48,0.13c0.08,0,0.17-0.01,0.25-0.04
		c0.25-0.06,0.46-0.23,0.59-0.45l0.07-0.13l6.69,3.8c-0.36,0.84-0.55,1.73-0.55,2.65c0,3.07,2.08,5.66,4.91,6.44L9.151,58.01
		c-0.32,0.43-0.24,1.04,0.19,1.36c0.17,0.13,0.38,0.2,0.58,0.2c0.29,0,0.58-0.13,0.78-0.39l14.68-19.33V58.6
		c0,0.53,0.43,0.97,0.97,0.97c0.53,0,0.97-0.44,0.97-0.97V39.85l14.68,19.33c0.32,0.43,0.93,0.51,1.36,0.19
		c0.43-0.32,0.51-0.93,0.18-1.36l-15.44-20.34c1.87-0.51,3.43-1.79,4.27-3.55l17.33,9.86c0.15,0.08,0.32,0.13,0.48,0.13
		c0.09,0,0.18-0.02,0.26-0.04c0.25-0.07,0.46-0.23,0.59-0.45l0.36-0.64l3.15,1.79l-0.25,0.44c-0.13,0.22-0.16,0.48-0.09,0.73
		c0.07,0.25,0.23,0.46,0.45,0.59l3.36,1.91c0.15,0.08,0.31,0.12,0.48,0.12c0.09,0,0.17-0.01,0.26-0.03
		c0.24-0.07,0.45-0.23,0.58-0.46l4.54-7.98C64.141,39.62,63.971,39.03,63.511,38.76z M12.251,23.13l-9.96-5.67l6.11-10.74l9.96,5.66
		l-0.07,0.13L12.251,23.13z M14.491,23.12l5-8.81l12.44,7.07l-0.12,0.21l-4.89,8.6L14.491,23.12z M26.351,35.99
		c-2.62,0-4.75-2.13-4.75-4.74c0-0.58,0.12-1.14,0.32-1.68l4.89,2.78c0.15,0.09,0.31,0.13,0.48,0.13c0.08,0,0.17-0.01,0.26-0.04
		c0.24-0.06,0.45-0.23,0.58-0.45l0.12-0.21l2.43,1.38C29.931,34.86,28.251,35.99,26.351,35.99z M50.181,41.18l-0.36,0.63
		l-20.61-11.72l3.81-6.7l20.61,11.72L50.181,41.18z M52.341,41.3l2.14-3.75l3.15,1.79l-2.14,3.75L52.341,41.3z M58.131,46.27
		l-1.68-0.95l0.25-0.43l3.34-5.87l1.67,0.95L58.131,46.27z" class="color2c2e63 svgShape"></path>
  <path fill="#d8c1a0" d="M30.681,33.16c-0.75,1.7-2.43,2.83-4.33,2.83c-2.62,0-4.75-2.13-4.75-4.74c0-0.58,0.12-1.14,0.32-1.68
		l4.89,2.78c0.15,0.09,0.31,0.13,0.48,0.13c0.08,0,0.17-0.01,0.26-0.04c0.24-0.06,0.45-0.23,0.58-0.45l0.12-0.21L30.681,33.16z" class="colora0c3d8 svgShape"></path>
  <polygon fill="#ffbf66" points="57.631 39.34 55.491 43.09 52.341 41.3 54.481 37.55" class="coloredc35e svgShape"></polygon>
  <polygon fill="#f2e7d7" points="61.711 39.97 58.131 46.27 56.451 45.32 56.701 44.89 60.041 39.02" class="colord7e9f2 svgShape"></polygon>
  <polygon fill="#ff8066" points="18.361 12.38 18.291 12.51 12.251 23.13 2.291 17.46 8.401 6.72" class="colorf26e61 svgShape"></polygon>
  <polygon fill="#ffc87c" points="31.931 21.38 31.811 21.59 26.921 30.19 14.491 23.12 19.491 14.31" class="colorffdc7c svgShape"></polygon>
  <polygon fill="#ff8066" points="53.631 35.11 50.181 41.18 49.821 41.81 29.211 30.09 33.021 23.39" class="colorf26e61 svgShape"></polygon>
  <rect width="1.899" height="11.461" x="6.792" y="13.739" fill="#e1715a" transform="rotate(-60.33 7.741 19.47)" class="colore15e5a svgShape"></rect>
  <polygon fill="#ffbf66" points="27.861 28.54 26.921 30.19 14.491 23.12 15.431 21.46" class="coloredc35e svgShape"></polygon>
  <polygon fill="#e1715a" points="50.761 40.16 50.181 41.18 49.821 41.81 29.211 30.09 30.151 28.44" class="colore15e5a svgShape"></polygon>
</svg>
