<svg xmlns="http://www.w3.org/2000/svg" enable-background="new 0 0 512 512" viewBox="0 0 512 512" id="securitywarning">
  <path fill="#ff8066" d="M256,14.4L43.1,94.5c0,0,0,352.5,212.9,403.1C468.9,447.1,468.9,94.5,468.9,94.5L256,14.4z M256,447
			c-67.3-20-116-82.2-144.9-184.9c-14.5-51.4-20.4-100.9-22.9-132.6L256,66.3l167.7,63.1c-2.5,32.3-8.6,82.9-23.4,134.7
			C371.3,365.7,322.8,427.1,256,447z" class="colorf7941e svgShape"></path>
  <path d="M258,439.7c-38.5-11.6-69.5-38.2-91.9-71.1c-30.5-44.8-47.1-98.1-58-150.6c-6-29.2-10.1-58.8-12.4-88.5
				c-1.8,2.4-3.7,4.8-5.5,7.2c18.9-7.1,37.8-14.2,56.7-21.4c30.1-11.3,60.2-22.7,90.4-34c6.9-2.6,13.8-5.2,20.7-7.8
				c-1.3,0-2.7,0-4,0c18.9,7.1,37.8,14.2,56.7,21.3c30.1,11.3,60.2,22.7,90.4,34c6.9,2.6,13.8,5.2,20.7,7.8
				c-1.8-2.4-3.7-4.8-5.5-7.2c-4.4,56.3-14.6,112.9-33.9,166.1c-15.4,42.5-37.8,84.4-72.8,114c-16.2,13.8-35.2,24.1-55.5,30.2
				c-9.2,2.8-5.3,17.3,4,14.5c41.2-12.4,74.4-40.2,98.9-75.2c32.2-46,50-101.8,61.3-156.3c6.4-30.7,10.6-62,13.1-93.2
				c0.3-3.5-2.6-6.1-5.5-7.2c-19.1-7.2-38.1-14.3-57.2-21.5C338.4,89.4,308.2,78,278,66.6c-6.5-2.4-13.1-5.7-19.8-7.5
				c-5.1-1.4-12.1,2.9-16.7,4.6c-28.8,10.8-57.5,21.6-86.3,32.5c-22.6,8.5-45.3,16.8-67.9,25.5c-0.4,0.1-0.8,0.3-1.1,0.4
				c-2.9,1.1-5.8,3.8-5.5,7.2c4.5,58.2,14.9,116.8,35.1,171.8c16.5,44.8,40.3,89.3,77.6,120.2c17.9,14.8,38.3,26,60.6,32.8
				C263.3,457,267.2,442.5,258,439.7z" fill="#3a3636" class="color000000 svgShape"></path>
  <path d="M254,7.1c-24,9-48,18.1-72,27.1C143.8,48.6,105.5,63,67.3,77.4c-8.7,3.3-17.5,6.6-26.2,9.9c-3.1,1.2-5.5,3.7-5.5,7.2
				c0,12.1,0.8,24.2,1.6,36.2c2.2,30,6,60,11.6,89.5c7,37.4,16.8,74.4,30.7,109.9c14.8,37.6,34.2,73.7,60.8,104.3
				c26.6,30.6,60.7,54.3,99.5,66.5c5.1,1.6,11.8,4.6,17.1,4c5.2-0.5,10.7-2.6,15.6-4.2c10.1-3.2,20-7.2,29.5-11.9
				c18.1-8.9,34.7-20.6,49.6-34.1c29.6-26.9,52-61.1,68.9-97.2c16.7-35.6,28.6-73.3,37.3-111.6c7.2-32.1,12.2-64.8,15.4-97.6
				c1.6-17.1,2.9-34.3,3.1-51.5c0-0.8,0-1.6,0-2.4c0-3.5-2.4-6.1-5.5-7.2c-24-9-48-18.1-72-27.1C360.7,45.8,322.5,31.4,284.2,17
				c-8.7-3.3-17.5-6.6-26.2-9.9c-9-3.4-13,11.1-4,14.5c24,9,48,18.1,72,27.1c38.2,14.4,76.5,28.8,114.7,43.2
				c8.7,3.3,17.5,6.6,26.2,9.9c-1.8-2.4-3.7-4.8-5.5-7.2c0,11.7-0.7,23.4-1.6,35.1c-2.1,29.3-5.5,55.9-10.7,84.5
				c-6.8,36.7-16.2,73-29.5,107.9c-13.7,35.7-31.8,70.4-56.7,99.6c-25,29.4-56.8,52.7-93.8,64.5c-5,1.6-10,3-15.1,4.2
				c1.3,0,2.7,0,4,0c-38.4-9.2-72.4-29.7-99.5-58.3c-26.4-27.8-46-61.7-60.8-96.8C83,300.4,72.8,263.7,65.3,226.6
				c-6.1-30.3-10-58.1-12.5-88.7c-0.8-9.7-1.4-19.4-1.8-29.1c-0.2-4.4,0.2-9.2-0.4-13.6c0-0.2,0-0.4,0-0.6c-1.8,2.4-3.7,4.8-5.5,7.2
				c24-9,48-18.1,72-27.1c38.2-14.4,76.5-28.8,114.7-43.2c8.7-3.3,17.5-6.6,26.2-9.9C266.9,18.2,263.1,3.7,254,7.1z" fill="#3a3636" class="color000000 svgShape"></path>
  <path fill="#ffbf66" d="M256,66.3L88.2,129.5c2.4,31.7,8.4,81.2,22.9,132.6C140,364.8,188.8,427,256,447
			c66.8-19.9,115.3-81.3,144.3-182.8c14.8-51.9,20.9-102.5,23.4-134.7L256,66.3z M255.8,149c8.3,0,14.2,5.8,14.2,14.1
			c0,16.7-0.8,36.4-1.6,55.5c-0.8,19.1-1.5,38.8-1.5,55.5c0,7.1-6.8,9.8-11,9.8c-6.9,0-11.1-3.7-11.1-9.8c0-16.6-0.7-36.4-1.4-55.5
			c-0.7-19.1-1.5-38.8-1.5-55.5C241.8,154.6,247.4,149,255.8,149z M256,336.2c-8.4,0-15.3-7.8-15.3-17.3c0-9.7,6.7-17.3,15.3-17.3
			c8.3,0,15.3,7.9,15.3,17.3C271.3,328.1,264.1,336.2,256,336.2z" class="color00a651 svgShape"></path>
  <path d="M254,59.1c-18.9,7.1-37.8,14.2-56.7,21.4c-30.1,11.3-60.2,22.7-90.4,34c-6.9,2.6-13.8,5.2-20.7,7.8
				c-2.9,1.1-5.8,3.8-5.5,7.2c4.5,58.5,15,117.4,35.4,172.5c16.5,44.5,40.2,88.7,77.3,119.4c16,13.2,34,23.7,53.6,30.5
				c2.3,0.8,4.7,1.8,7,2.3c3.1,0.7,6-0.6,8.9-1.5c5.1-1.7,10.1-3.7,15-5.8c9.2-4,18.1-8.9,26.4-14.6c38.6-26.3,65-66.7,83.1-109
				c24-56,36.3-116.5,42.3-176.9c0.6-5.6,1.1-11.2,1.5-16.9c0.3-3.5-2.6-6.1-5.5-7.2c-18.9-7.1-37.8-14.2-56.7-21.3
				c-30.1-11.3-60.2-22.7-90.4-34c-6.9-2.6-13.8-5.2-20.7-7.8c-9-3.4-13,11.1-4,14.5c18.9,7.1,37.8,14.2,56.7,21.3
				c30.1,11.3,60.2,22.7,90.4,34c6.9,2.6,13.8,5.2,20.7,7.8c-1.8-2.4-3.7-4.8-5.5-7.2c-4.4,56.3-14.6,112.9-33.9,166.1
				c-15.4,42.5-37.8,84.4-72.8,114c-16.2,13.8-35.2,24.1-55.5,30.2c1.3,0,2.7,0,4,0c-38.5-11.6-69.5-38.2-91.9-71.1
				c-30.5-44.8-47.1-98.1-58-150.6c-6-29.2-10.1-58.8-12.4-88.5c-1.8,2.4-3.7,4.8-5.5,7.2c18.9-7.1,37.8-14.2,56.7-21.4
				c30.1-11.3,60.2-22.7,90.4-34c6.9-2.6,13.8-5.2,20.7-7.8C266.9,70.2,263.1,55.7,254,59.1z" fill="#3a3636" class="color000000 svgShape"></path>
  <path d="M255.8 156.5c7.7.3 6.7 7.5 6.6 13.4-.1 9.5-.4 19-.7 28.5-.7 20-1.7 39.9-2.1 59.9-.1 4.1-.2 8.2-.2 12.3 0 2.7.6 4.6-2.3 5.4-6.8 2-4.8-6.1-4.9-10.6-.3-19.8-1.1-39.6-1.8-59.4-.4-10.9-.7-21.8-.9-32.7C249.3 167.2 247 156.8 255.8 156.5c9.6-.4 9.7-15.4 0-15-10.2.4-19.1 6.4-21 16.9-.9 4.9-.5 10.1-.4 15 .1 6.8.3 13.5.5 20.3.8 25.7 2.2 51.3 2.3 77 0 4.5.1 8.8 2.6 12.7 2.8 4.6 8 7.1 13.2 7.7 8.7 1 18.3-3.5 20.7-12.4 1.4-5.2.6-11.3.7-16.7.1-6.8.3-13.6.6-20.4.4-12.8 1-25.5 1.5-38.3.5-13.7 1.9-27.8.9-41.5-.8-11.9-9.9-19.8-21.6-20.2C246.1 141.1 246.1 156.1 255.8 156.5zM256 328.7c-10-.5-10.6-19.1-.5-19.7C266.1 308.4 266.5 328.1 256 328.7c-9.6.5-9.7 15.5 0 15 13.2-.7 23.2-12.4 22.7-25.6-.5-12.6-10.6-25-24-24-12.7.9-21.5 12.4-21.5 24.8 0 13.1 9.6 24.2 22.8 24.8C265.7 344.1 265.6 329.1 256 328.7z" fill="#3a3636" class="color000000 svgShape"></path>
  <g fill="#3a3636" class="color000000 svgShape">
    <path fill="#ef5536" d="M269.9,163c0,16.7-0.8,36.4-1.6,55.5c-0.8,19.1-1.5,38.8-1.5,55.5c0,7.1-6.8,9.8-11,9.8
			c-6.9,0-11.1-3.7-11.1-9.8c0-16.6-0.7-36.4-1.4-55.5c-0.7-19.1-1.5-38.8-1.5-55.5c0-8.4,5.6-14.1,14-14.1
			C264.1,149,269.9,154.7,269.9,163z" class="coloref4136 svgShape"></path>
    <path d="M262.4,163c0,19.5-0.9,38.9-1.7,58.3c-0.4,9.8-0.8,19.7-1.1,29.5c-0.1,4.5-0.2,9.1-0.3,13.6c0,2.4,1.1,8.7-0.5,10.7
				c-0.9,1.1-3.3,1.3-4.5,1c-2.6-0.7-2.1-2-2.1-4.7c0-9.4-0.3-18.7-0.6-28.1c-0.6-20-1.6-40-2-60.1c-0.1-5.1-0.2-10.1-0.3-15.2
				c0-3.1-0.8-7.5,1.6-10C255.4,153.7,262.2,157.5,262.4,163c0.4,9.6,15.4,9.7,15,0c-0.4-10.2-6.6-19.2-17-21.1
				c-9.5-1.7-19.5,2-23.9,11c-2.3,4.8-2.3,9.9-2.2,15.2c0,6,0.2,12,0.3,18c0.4,13.4,0.9,26.7,1.4,40.1c0.5,12.5,0.9,25,1.1,37.5
				c0.1,9.8-0.9,20.8,9.6,25.7c8.5,3.9,20.3,1.6,25.3-6.8c2.5-4.2,2.3-8.9,2.3-13.6c0.1-6.6,0.2-13.2,0.4-19.9
				c0.9-28.7,2.6-57.3,2.7-86C277.5,153.4,262.5,153.4,262.4,163z" fill="#3a3636" class="color000000 svgShape"></path>
  </g>
  <g fill="#3a3636" class="color000000 svgShape">
    <path fill="#ef5536" d="M271.3,318.8c0,9.2-7.1,17.3-15.3,17.3c-8.4,0-15.3-7.8-15.3-17.3c0-9.7,6.7-17.3,15.3-17.3
			C264.3,301.5,271.3,309.4,271.3,318.8z" class="coloref4136 svgShape"></path>
    <path d="M263.8,318.8c-0.2,4.3-3.1,10.2-8.2,9.9c-4.7-0.3-7.3-5.7-7.3-9.9c0-4.2,2.4-9.6,7.3-9.9
				C260.7,308.7,263.6,314.4,263.8,318.8c0.4,9.6,15.4,9.7,15,0c-0.5-12.6-9.7-25.3-23.4-24.8c-13,0.5-22.2,12.2-22.1,24.8
				c0.1,12.3,8.8,23.9,21.5,24.8c13.9,1,23.5-12.1,24-24.8C279.2,309.2,264.2,309.2,263.8,318.8z" fill="#3a3636" class="color000000 svgShape"></path>
  </g>
</svg>
