<svg xmlns="http://www.w3.org/2000/svg" viewBox="0 0 36 36" id="Free">
  <path fill="#ff8066" d="M2 14.043h32L31.845 18 34 21.955H2L4.154 18z" class="color13b53e svgShape"></path>
  <path fill="#3a3636" d="M3.407 14.863h29.186L30.628 18l1.965 3.136H3.407l1.964-3.136z" class="color18a12b svgShape"></path>
  <path fill="#f2f2f2" d="M25.878 25.933c-.296.293-2.835.032-3.196.24-.362.206-1.418 2.53-1.82 2.637-.403.107-2.47-1.39-2.887-1.391-.417 0-2.493 1.483-2.895 1.374-.402-.108-1.445-2.439-1.805-2.648-.36-.21-2.9.038-3.195-.257-.293-.295-.031-2.835-.238-3.196-.208-.361-2.532-1.417-2.638-1.82-.107-.403 1.39-2.47 1.391-2.887.001-.417-1.484-2.493-1.375-2.895.11-.402 2.44-1.444 2.649-1.805.21-.36-.038-2.9.257-3.194.296-.293 2.834-.032 3.196-.239.361-.207 1.417-2.531 1.82-2.638.402-.107 2.47 1.39 2.887 1.391.416.001 2.493-1.483 2.895-1.374.402.108 1.444 2.439 1.805 2.648.36.21 2.9-.038 3.194.257.294.296.032 2.835.239 3.196.207.362 2.531 1.417 2.638 1.82.106.403-1.39 2.47-1.391 2.887-.002.417 1.483 2.493 1.374 2.895-.109.402-2.439 1.445-2.648 1.805-.21.36.038 2.9-.257 3.194z" class="colorf2f2f2 svgShape"></path>
  <path fill="#ff8066" d="M25.283 25.326c-.273.27-2.62.029-2.953.22-.334.191-1.31 2.34-1.682 2.438-.372.098-2.283-1.285-2.667-1.286-.385 0-2.304 1.371-2.676 1.27-.371-.1-1.334-2.253-1.667-2.447-.333-.193-2.68.036-2.952-.237-.272-.273-.03-2.62-.22-2.953-.192-.334-2.34-1.31-2.438-1.682-.099-.372 1.284-2.283 1.285-2.668.001-.385-1.37-2.303-1.27-2.675.1-.372 2.254-1.335 2.447-1.668.194-.332-.035-2.68.238-2.952.273-.27 2.62-.029 2.953-.22.334-.191 1.31-2.34 1.682-2.438.372-.098 2.283 1.285 2.668 1.286.384 0 2.303-1.37 2.675-1.27.371.1 1.335 2.254 1.667 2.447.333.193 2.68-.035 2.952.237.272.274.03 2.62.22 2.954.192.334 2.34 1.31 2.438 1.681.099.372-1.284 2.283-1.285 2.668-.001.385 1.37 2.304 1.27 2.675-.1.372-2.254 1.335-2.447 1.668-.194.333.035 2.68-.238 2.952z" class="color13b53e svgShape"></path>
  <path fill="#3a3636" d="M24.191 24.23c-.231.23-2.22.024-2.504.186-.283.162-1.11 1.984-1.425 2.067-.316.084-1.936-1.089-2.262-1.09-.327 0-1.953 1.162-2.268 1.077-.316-.086-1.132-1.91-1.414-2.075-.282-.164-2.273.03-2.503-.201-.23-.232-.025-2.22-.187-2.504-.162-.283-1.983-1.11-2.067-1.426-.083-.315 1.09-1.935 1.09-2.262.001-.326-1.162-1.953-1.077-2.268.086-.315 1.911-1.131 2.075-1.414.164-.282-.03-2.272.202-2.502.231-.231 2.22-.025 2.503-.187.284-.162 1.11-1.983 1.426-2.067.316-.084 1.936 1.089 2.262 1.09.326 0 1.953-1.162 2.268-1.077.315.086 1.132 1.91 1.414 2.075.282.164 2.273-.03 2.503.201.23.232.025 2.221.187 2.504.162.283 1.983 1.11 2.067 1.426.083.315-1.09 1.935-1.09 2.262-.001.326 1.162 1.953 1.077 2.268-.086.315-1.911 1.132-2.075 1.414-.164.282.03 2.272-.202 2.502z" class="color18a12b svgShape"></path>
  <path fill="#ff8066" d="m11.64 14.91 12.325.247c1.277.026 2.267-.032 2.308.047l.788 1.516-1.134 2.188 1.176 2.27c.041.078-1.875-.04-3.152-.062l-12.324-.249c-1.278-.026-2.309.043-2.309-.047l.02-5.956c0-.088 3.58.073 2.303.047z" class="color13b53e svgShape"></path>
  <path fill="#f2f2f2" d="m11.371 13.674-.014 4.592h.723l.006-1.895h.932v-.656h-.93l.004-1.375h1.185l.002-.656-1.908-.01zm2.256.013-.014 4.592h.721l.006-1.869h.25c.328.001.472.16.47.586l-.003.72c-.001.375.025.447.064.565h.735c-.071-.17-.077-.334-.077-.556l.002-.707c.002-.48-.116-.829-.476-.98.322-.15.473-.458.474-.93l.002-.362c.002-.708-.318-1.056-1.066-1.059h-1.088zm2.639 0-.014 4.592 1.969.012.002-.656h-1.246l.004-1.346h.99l.002-.656h-.99l.002-1.28h1.246l.002-.654-1.967-.012zm2.408 0-.014 4.592 1.969.01.002-.656h-1.246l.004-1.344h.99l.002-.656h-.99l.004-1.28h1.246l.002-.656-1.969-.01zm-4.328.653h.347c.256 0 .367.144.366.472v.454c-.002.367-.167.485-.436.484h-.281l.004-1.41z" font-family="Bebas Neue" font-size="6.56" font-weight="700" letter-spacing="0" style="line-height:125%;-inkscape-font-specification:&quot;Bebas Neue Bold&quot;" transform="translate(2 1.999)" word-spacing="0" class="colorf2f2f2 svgShape"></path>
  <path fill="#ffbf66" d="M13.166 8.188c-.08.005-.173.02-.281.048v-.002c-.433.115-.538.293-.66.426a3.444 3.444 0 0 0-.313.406c-.192.282-.38.602-.562.916-.183.315-.359.623-.496.842-.027.042-.04.057-.063.092-.042 0-.06.01-.111.01-.259.01-.616.01-.979 0-.363 0-.732 0-1.072.021-.17.012-.331.029-.508.067-.177.038-.382.037-.7.351H7.42c-.317.316-.318.52-.357.697-.04.177-.058.338-.07.508-.027.34-.03.711-.03 1.075 0 .363.002.72-.008.978-.002.051-.005.071-.008.113-.011.01-.013.012-.025.02-.122.078-.312.183-.488.285h-8.118l2.7 4.957-2.7 4.955h8.178c.153.09.318.186.422.254h.002l.006.111c.008.259.003.614.002.977-.002.363 0 .734.023 1.074.012.17.028.331.067.508.038.177.037.384.353.701.316.317.52.318.697.358.177.039.338.055.508.068.34.026.71.03 1.074.03.364 0 .72-.001.979.009.05 0 .07.01.111.01.023.035.036.053.063.096.136.22.312.53.492.845.18.316.364.635.555.918.095.141.19.272.312.406.122.135.225.314.658.43.43.116.61.015.782-.039.172-.054.32-.12.474-.193.308-.148.63-.33.946-.512.315-.181.62-.361.85-.482.044-.024.063-.03.1-.05.038.019.056.026.1.05.228.122.534.303.848.486.314.183.635.368.941.517.154.075.3.143.473.198.172.055.35.157.783.043.433-.115.538-.293.66-.426.123-.133.217-.264.313-.404.192-.282.38-.602.562-.916.183-.315.359-.623.496-.842.027-.042.04-.057.063-.092.042 0 .06-.012.111-.012.259-.01.614-.01.977 0 .363 0 .734 0 1.074-.021.17-.012.331-.029.508-.067.177-.038.382-.037.7-.351h.001c.317-.316.318-.52.358-.698.039-.176.057-.337.07-.507.026-.34.028-.711.03-1.075 0-.363-.003-.72.007-.978.002-.05.005-.07.008-.111l.027-.02c.123-.078.312-.185.49-.287h8.114l-2.7-4.955 2.7-4.957h-8.182c-.15-.09-.315-.183-.418-.25-.002-.042-.006-.062-.008-.113-.008-.259-.003-.614-.002-.977.002-.363 0-.734-.023-1.074a3.447 3.447 0 0 0-.067-.508c-.038-.177-.038-.384-.353-.701-.316-.317-.52-.318-.697-.358a3.53 3.53 0 0 0-.508-.07c-.34-.026-.711-.027-1.075-.027-.363 0-.72 0-.978-.01-.05 0-.07-.01-.111-.01-.023-.035-.036-.05-.063-.094-.136-.22-.312-.53-.492-.845a14.87 14.87 0 0 0-.555-.918 3.463 3.463 0 0 0-.312-.407c-.122-.133-.226-.313-.656-.43h-.002c-.43-.115-.61-.014-.782.04-.172.054-.32.12-.474.193-.308.148-.63.33-.946.512-.315.181-.62.361-.85.482-.044.024-.063.03-.1.05-.038-.02-.056-.026-.1-.05-.228-.122-.534-.303-.848-.486-.314-.183-.633-.37-.94-.52a3.451 3.451 0 0 0-.474-.197c-.13-.041-.261-.108-.502-.091ZM13.141 9.2c.402-.106 2.47 1.391 2.886 1.393.417 0 2.493-1.484 2.895-1.375.402.108 1.444 2.439 1.805 2.648.36.21 2.901-.037 3.195.258.294.296.03 2.834.238 3.195.086.15.558.43 1.065.723H32L29.846 20 32 23.955h-6.703c-.549.313-1.071.612-1.164.772-.21.36.037 2.901-.258 3.195-.296.293-2.834.03-3.195.238-.362.207-1.418 2.53-1.82 2.637-.403.107-2.47-1.39-2.887-1.39-.417-.001-2.493 1.483-2.895 1.374-.402-.108-1.444-2.439-1.805-2.648-.36-.21-2.901.038-3.195-.258-.294-.295-.03-2.834-.238-3.195-.087-.151-.56-.43-1.069-.725H0L2.154 20 0 16.043h6.707c.547-.312 1.068-.61 1.16-.77.21-.36-.037-2.901.258-3.195.296-.293 2.834-.031 3.195-.238.362-.207 1.418-2.532 1.82-2.639z" color="#000" font-family="sans-serif" font-weight="400" overflow="visible" style="line-height:normal;text-indent:0;text-align:start;text-decoration-line:none;text-decoration-style:solid;text-decoration-color:#000;text-transform:none;block-progression:tb;isolation:auto;mix-blend-mode:normal" transform="translate(2 -2.001)" class="colore9eded svgShape"></path>
</svg>
