<svg xmlns="http://www.w3.org/2000/svg" id="QuillandInk" version="1.1" viewBox="0 0 32 32">
  <g id="layer1" transform="translate(-42)" fill="#000000" class="color000000 svgShape">
    <g id="g595" transform="translate(42)" fill="#000000" class="color000000 svgShape">
      <path id="path592" d="m 28.499761,2.5001963 c -2.066199,3.6465419 -4.410097,5.8890339 -5,16.9999987 l -5,3 v 0 l -2.5,-6.500001 c 2.084843,-6.1465041 7.669572,-9.6483731 12.5,-13.4999977 z" fill="#cb8779" fill-opacity="1" stroke="none" stroke-linecap="round" stroke-linejoin="round" stroke-opacity=".972549" class="color7986cb svgShape"></path>
      <path id="path590" d="m 6.4996987,20.500274 5.0000003,-1e-6 v 2.000001 H 6.4996987 Z" fill="#ffbf66" fill-opacity="1" stroke="none" stroke-linecap="round" stroke-linejoin="round" class="colorffe082 svgShape"></path>
      <path id="path589" d="m 5.4997606,20.500195 v -2 0 h 7.0000004 v 2 z" fill="#ff9400" fill-opacity="1" stroke="none" stroke-linecap="round" stroke-linejoin="round" stroke-opacity=".972549" class="colorffb300 svgShape"></path>
      <path id="path585" d="m 4.4997596,22.500196 h 9.0000024 a 0.99999933,0.99999933 0 0 1 0.999999,0.999999 v 5.000002 a 0.99999933,0.99999933 0 0 1 -0.999999,0.999999 H 4.4997596 a 0.99999933,0.99999933 0 0 1 -0.999999,-0.999999 v -5.000002 a 0.99999933,0.99999933 0 0 1 0.999999,-0.999999 z" fill="#ff9400" fill-opacity="1" stroke="none" stroke-linecap="round" stroke-linejoin="round" stroke-opacity=".972549" class="colorffb300 svgShape"></path>
      <path id="path588" d="m 9.9997637,27.000271 c 0,0.552286 -0.4477171,1.000003 -1.0000031,1.000003 -0.552286,0 -1.000003,-0.447717 -1.000003,-1.000003 0,-0.552286 0.9999411,-2.499921 0.9999411,-2.499921 0,0 1.000065,1.947635 1.000065,2.499921 z" fill="#ff8066" fill-opacity="1" stroke="none" stroke-linecap="round" stroke-linejoin="round" stroke-opacity=".972549" class="colord84315 svgShape"></path>
      <path id="path575" d="m 28.390324,2.0119938 a 0.50005,0.50005 0 0 0 -0.205078,0.099609 c -2.437659,1.979118 -5.113705,3.7501455 -7.466797,5.9648441 A 0.5,0.5 0 0 0 20.696969,8.7834781 0.5,0.5 0 0 0 21.404,8.8049621 C 23.094173,7.2141901 25.031799,5.8362741 26.919625,4.4006652 25.22813,7.2182107 23.535395,10.35282 23.029,19.197541 l -3.894531,2.335937 c 0.282954,-2.570947 0.881226,-5.366844 2.296875,-7.779297 a 0.5,0.5 0 0 0 -0.177735,-0.685547 0.5,0.5 0 0 0 -0.685547,0.177735 c -1.343325,2.289203 -1.982266,4.841456 -2.3125,7.228515 l -1.710937,-4.451171 c 0.580054,-1.634281 1.3377,-3.05434 2.25,-4.302735 a 0.5,0.5 0 0 0 -0.109375,-0.697265 0.5,0.5 0 0 0 -0.697266,0.107421 c -0.994601,1.361018 -1.841364,2.906124 -2.460937,4.707032 a 0.50005,0.50005 0 0 0 0.0059,0.341797 l 2.490235,6.476562 c -0.03023,0.388394 -0.05513,0.770666 -0.07617,1.138672 -0.09025,1.578102 -0.113786,2.954086 -0.216797,3.917969 -0.05151,0.48194 -0.127786,0.862746 -0.212891,1.082031 -0.0851,0.219285 -0.124791,0.217176 -0.123047,0.216797 a 0.5,0.5 0 0 0 -0.382812,0.59375 0.5,0.5 0 0 0 0.59375,0.382812 c 0.429978,-0.09338 0.700914,-0.458962 0.845703,-0.832031 0.144788,-0.373069 0.217607,-0.813528 0.273437,-1.335938 0.111662,-1.044817 0.133758,-2.414294 0.222657,-3.96875 0.02009,-0.351212 0.04555,-0.714522 0.07422,-1.082031 l 4.736328,-2.841797 a 0.50005,0.50005 0 0 0 0.242139,-0.40039 C 24.586072,8.4831406 26.83244,6.4575162 28.935246,2.7463688 A 0.50005,0.50005 0 0 0 28.61884,2.0139469 0.50005,0.50005 0 0 0 28.390324,2.0119938 Z M 19.986027,9.000275 a 0.5,0.5 0 0 0 -0.349609,0.15625 c -0.233479,0.2476815 -0.461945,0.5012624 -0.685547,0.7617188 a 0.5,0.5 0 0 0 0.05273,0.7050782 0.5,0.5 0 0 0 0.705078,-0.05274 c 0.212958,-0.248057 0.430848,-0.491474 0.654297,-0.7285151 A 0.5,0.5 0 0 0 20.343449,9.1369938 0.5,0.5 0 0 0 19.986027,9.000275 Z m -14.4863283,9 a 0.50005,0.50005 0 0 0 -0.5,0.5 v 2 a 0.50005,0.50005 0 0 0 0.5,0.5 h 0.5 v 1 h -1.5 c -0.8225024,0 -1.4999997,0.677498 -1.5,1.5 v 5 c 3e-7,0.822502 0.6774976,1.5 1.5,1.5 h 9.0000003 c 0.822502,0 1.5,-0.677498 1.5,-1.5 v -5 c 0,-0.822502 -0.677498,-1.5 -1.5,-1.5 h -1.5 v -1 h 0.5 a 0.50005,0.50005 0 0 0 0.5,-0.5 v -2 a 0.50005,0.50005 0 0 0 -0.5,-0.5 z m 0.5,1 h 6.0000003 v 1 h -1 a 0.5,0.5 0 0 0 -0.5,0.5 0.5,0.5 0 0 0 0.5,0.5 v 1 H 6.9996987 v -1 a 0.5,0.5 0 0 0 0.5,-0.5 0.5,0.5 0 0 0 -0.5,-0.5 h -1 z m 2.5,1 a 0.5,0.5 0 0 0 -0.5,0.5 0.5,0.5 0 0 0 0.5,0.5 h 1 a 0.5,0.5 0 0 0 0.5,-0.5 0.5,0.5 0 0 0 -0.5,-0.5 z m -4,3 h 9.0000003 c 0.282064,0 0.5,0.217936 0.5,0.5 v 5 c 0,0.282064 -0.217936,0.5 -0.5,0.5 H 4.4996987 c -0.2820636,0 -0.4999999,-0.217936 -0.5,-0.5 v -5 c 10e-8,-0.282064 0.2179364,-0.5 0.5,-0.5 z m 4.5,1 a 0.50005,0.50005 0 0 0 -0.4453125,0.271484 c 0,0 -0.2534316,0.496342 -0.5097656,1.066407 -0.1281671,0.285031 -0.2584655,0.588993 -0.359375,0.86914 -0.1009096,0.280148 -0.1855469,0.504019 -0.1855469,0.792969 0,0.822505 0.6774951,1.5 1.5,1.5 0.8225049,0 1.5000003,-0.677495 1.5000003,-1.5 0,-0.288969 -0.08462,-0.512819 -0.185547,-0.792969 C 10.213229,25.927157 10.08296,25.623197 9.9547768,25.338166 9.6984107,24.768101 9.4450112,24.271759 9.4450112,24.271759 A 0.50005,0.50005 0 0 0 8.9996987,24.000275 Z m 0,1.654297 c 0.022225,0.04839 0.022531,0.04396 0.044922,0.09375 0.1218326,0.270911 0.2415358,0.556513 0.328125,0.796875 0.086589,0.240362 0.126953,0.467904 0.126953,0.455078 0,0.282065 -0.2179351,0.5 -0.5,0.5 -0.2820649,0 -0.5,-0.217935 -0.5,-0.5 0,0.01281 0.040374,-0.214715 0.1269531,-0.455078 0.086579,-0.240363 0.2063073,-0.525963 0.328125,-0.796875 0.022389,-0.04979 0.0227,-0.04536 0.044922,-0.09375 z" style="-inkscape-stroke:none" color="#000" fill="#3a3636" fill-opacity="1" stroke-linecap="round" stroke-linejoin="round" class="color31211c svgShape"></path>
      <path id="path594" d="M 5,23.5 A 0.5,0.5 0 0 0 4.5,24 0.5,0.5 0 0 0 5,24.5 H 6 A 0.5,0.5 0 0 0 6.5,24 0.5,0.5 0 0 0 6,23.5 Z" style="-inkscape-stroke:none" color="#000" fill="#ffffff" stroke-linecap="round" stroke-linejoin="round" class="colorffffff svgShape"></path>
    </g>
  </g>
</svg>
