<svg xmlns="http://www.w3.org/2000/svg" viewBox="0 0 32 32" id="Glass">
  <g transform="translate(-114 -1070.362)" fill="#3a3636" class="color000000 svgShape">
    <path fill="#ffbf66" d="m121.611 1075.244-3.726 3.727 2.08 2.08a11.867 11.867 0 0 0-1.52 3.672H115.5v5.273h2.951a11.858 11.858 0 0 0 1.508 3.676l-2.074 2.076 3.726 3.727 2.08-2.08c1.13.709 2.372 1.223 3.672 1.52v2.945h5.274v-2.952a11.856 11.856 0 0 0 3.676-1.507l2.076 2.074 3.726-3.727-2.08-2.08a11.867 11.867 0 0 0 1.52-3.672h2.945v-5.273h-2.951a11.858 11.858 0 0 0-1.508-3.676l2.074-2.076-3.726-3.727-2.08 2.08a11.867 11.867 0 0 0-3.596-1.498v2.485l.107.039a8.762 8.762 0 0 1 2.772 1.582 9.031 9.031 0 0 1 2.013 2.41c.265.456.49.934.676 1.432l.014.037.408 1.46a9.55 9.55 0 0 1 .13.885l.029 1.559-.002.043a9.711 9.711 0 0 1-.092.836c-.695 4.462-4.404 7.76-8.764 7.76-4.36 0-8.063-3.31-8.752-7.772-.688-4.462 1.825-8.804 5.96-10.236l.095-.035v-2.484c-1.28.294-2.504.796-3.62 1.492z" color="#000" overflow="visible" style="isolation:auto;mix-blend-mode:normal" class="colorf8d459 svgShape"></path>
    <path fill="#ff8066" d="m121.611 1075.244-3.726 3.727 2.08 2.08a11.867 11.867 0 0 0-1.52 3.672h2.5c.297-1.3.81-2.542 1.52-3.672l-2.08-2.08 2.476-2.477-1.25-1.25zm16.778 0-1.225 1.225c.568.243 1.12.526 1.645.855l.83-.83-1.25-1.25zm-6.389.56h.647H132zm-4.637.01a11.85 11.85 0 0 0-2.029.657l.854.852c.577-.36 1.184-.667 1.812-.922v-.586h-.637zm-11.863 8.909v5.273h2.5v-5.273h-2.5zm2.951 5.273a11.858 11.858 0 0 0 1.508 3.676l-2.074 2.076 3.726 3.727 1.25-1.25-2.476-2.477 2.074-2.076a11.858 11.858 0 0 1-1.508-3.676h-2.5zm7.74 7.399-.855.855c.654.28 1.33.506 2.027.664v2.946h2.5v-2.946c-1.3-.296-2.542-.81-3.672-1.52zm12.622.01a11.86 11.86 0 0 1-1.647.851l1.223 1.223 1.25-1.25-.826-.824z" color="#000" overflow="visible" style="isolation:auto;mix-blend-mode:normal" class="colorfaa660 svgShape"></path>
    <path fill="#ffffff" d="m121.611 1075.244-3.726 3.727 2.08 2.08a11.867 11.867 0 0 0-1.52 3.672h1.5c.297-1.3.81-2.542 1.52-3.672l-2.08-2.08 2.976-2.977-.75-.75zm16.778 0-1.541 1.541c.327.166.65.344.96.54l1.33-1.33-.75-.75zm-6.389.56h.643H132zm-4.637.01c-.942.213-1.851.542-2.713.974l.538.535a11.84 11.84 0 0 1 2.812-1.276v-.232h-.637zm-11.863 8.909v5.273h1.5v-5.273h-1.5zm2.951 5.273a11.858 11.858 0 0 0 1.508 3.676l-2.074 2.076 3.726 3.727.75-.75-2.976-2.977 2.074-2.076a11.858 11.858 0 0 1-1.508-3.676h-1.5zm6.74 7.399-.539.539c.86.434 1.769.766 2.711.98v2.946h1.5v-2.946c-1.3-.296-2.542-.81-3.672-1.52zm12.622.01c-.313.195-.635.37-.963.535l1.539 1.539.75-.75-1.326-1.324z" color="#000" overflow="visible" style="isolation:auto;mix-blend-mode:normal" class="colorffffff svgShape"></path>
    <path fill="#f0a53d" d="M138.451 1087.403a8.451 8.451 0 1 1-16.902 0c5.378 3.842 13.06-3.841 16.902 0z" class="color3ddef0 svgShape"></path>
    <path fill="#ff0000" d="M135.926 1086.307c-2.684-.175-6.12 1.656-9.399 2.098 3.316.52 7.058-1.46 10.17-1.979a4.563 4.563 0 0 0-.771-.12zm-14.377 1.096a8.451 8.451 0 0 0 8.451 8.45c.418 0 .825-.038 1.227-.097a8.445 8.445 0 0 1-7.163-7.354c-.874-.139-1.722-.433-2.515-1z" class="color00a5ff svgShape"></path>
    <path fill="#ffffff" d="M135.826 1086.207c-2.822-.184-6.48 1.863-9.908 2.164 3.392.285 7.17-1.799 10.234-2.127-.108-.013-.215-.03-.326-.036zm-14.377 1.096a8.451 8.451 0 0 0 8.451 8.451c.246 0 .487-.015.727-.035a8.448 8.448 0 0 1-7.69-7.65 5.763 5.763 0 0 1-1.488-.766z" class="colorffffff svgShape"></path>
    <path fill="none" stroke="#000000" stroke-linecap="round" stroke-linejoin="round" d="M132.213 1073.018v5.639l.443.166c.974.338 1.854.85 2.614 1.491.38.32.731.674 1.05 1.056a8.924 8.924 0 0 1 1.493 2.577m.408 1.46c.048.25.085.504.112.76m.028 1.558a9.16 9.16 0 0 1-.088.792c-.66 4.232-4.162 7.34-8.269 7.337-4.107 0-7.605-3.116-8.258-7.35-.654-4.233 1.731-8.336 5.63-9.685l.432-.163v-5.638" class="colorStroke000000 svgStroke"></path>
    <rect width="6.714" height="2.071" x="126.643" y="1070.865" fill="none" stroke="#000000" stroke-linecap="square" rx="0" ry="1.035" class="colorStroke000000 svgStroke"></rect>
    <path fill="none" stroke="#000000" stroke-linecap="round" stroke-linejoin="round" d="M127.364 1075.81a11.862 11.862 0 0 0-3.677 1.509l-2.075-2.075-3.728 3.728 2.08 2.08a11.863 11.863 0 0 0-1.519 3.671H115.5v1.137m0 2v2.136h2.95a11.864 11.864 0 0 0 1.51 3.676l-2.076 2.075 3.728 3.728 2.08-2.08c1.13.71 2.371 1.223 3.672 1.52v2.945h5.272v-2.95a11.862 11.862 0 0 0 3.677-1.51l2.075 2.075 3.728-3.728-2.08-2.08c.709-1.13 1.222-2.37 1.519-3.671h2.945v-5.273h-2.95a11.864 11.864 0 0 0-1.51-3.676l2.076-2.075-3.728-3.728-2.08 2.08a11.863 11.863 0 0 0-3.672-1.52" color="#000" overflow="visible" style="isolation:auto;mix-blend-mode:normal" class="colorStroke000000 svgStroke"></path>
  </g>
</svg>
