<svg id="SvgjsSvg1001" width="288" height="288" xmlns="http://www.w3.org/2000/svg" version="1.1" xmlns:xlink="http://www.w3.org/1999/xlink" xmlns:svgjs="http://svgjs.com/svgjs"><defs id="SvgjsDefs1002"></defs><g id="SvgjsG1008"><svg xmlns="http://www.w3.org/2000/svg" viewBox="0 0 512 512" width="288" height="288"><g><g><rect width="313.887" height="64.164" x="99.056" y="79.458" fill="#ffbf66" class="svgShape colordeffe8-2 selectable"></rect></g><g><polygon fill="#ff8066" points="412.944 143.622 296.135 271.168 296.135 364.208 215.865 432.542 215.865 271.168 99.056 143.622 412.944 143.622" class="svgShape color77f7aa-4 selectable"></polygon></g></g><g><path fill="#3a3636" d="M412.943,69H99.057C93.534,69,89,73.936,89,79.458v64.164c0,.326.046.65.077.972.014.146.055.288.075.432.024.17.052.341.086.51s.082.344.125.515c.033.135.066.27.105.4.052.177.115.35.177.523.044.124.087.249.136.371.068.168.143.331.219.494.058.124.116.249.179.371.079.152.164.3.25.448.074.127.15.254.23.379s.18.267.274.4.185.254.283.378.2.24.3.357c.057.066.176.138.237.2L206,275.055V432.542a9.939,9.939,0,0,0,5.739,9.078,9.839,9.839,0,0,0,4.158.922,9.953,9.953,0,0,0,6.468-2.386l80.193-68.334A9.926,9.926,0,0,0,306,364.208V275.055L420.25,150.376c.061-.065.146-.137.2-.2.1-.117.217-.235.313-.357s.2-.25.292-.378.19-.263.278-.4.157-.252.232-.379c.086-.148.172-.3.251-.448.063-.122.121-.247.179-.371.076-.163.152-.326.219-.494.049-.122.092-.247.136-.371.062-.173.124-.346.176-.523.039-.133.07-.268.1-.4.043-.171.088-.341.121-.515s.055-.34.078-.51c.021-.144.076-.286.09-.432.031-.322.077-.646.077-.972V79.458C423,73.936,418.466,69,412.943,69ZM403,89v45H109V89ZM288.693,264.6A9.6,9.6,0,0,0,286,271.168v88.42L226,410.9V271.168a9.6,9.6,0,0,0-2.693-6.565L121.775,154h268.45Z" class="svgShape color24b361-6 selectable"></path></g></svg></g></svg>